<?xml version="1.0" encoding="UTF-8" standalone="no"?>
<!-- Created with Inkscape (http://www.inkscape.org/) -->

<svg
   xmlns:dc="http://purl.org/dc/elements/1.1/"
   xmlns:cc="http://creativecommons.org/ns#"
   xmlns:rdf="http://www.w3.org/1999/02/22-rdf-syntax-ns#"
   xmlns:svg="http://www.w3.org/2000/svg"
   xmlns="http://www.w3.org/2000/svg"
   xmlns:xlink="http://www.w3.org/1999/xlink"
   xmlns:sodipodi="http://sodipodi.sourceforge.net/DTD/sodipodi-0.dtd"
   xmlns:inkscape="http://www.inkscape.org/namespaces/inkscape"
   width="1000mm"
   height="450mm"
   viewBox="0 0 999.99999 449.99999"
   version="1.1"
   id="svg8"
   inkscape:version="0.92.5 (2060ec1f9f, 2020-04-08)"
   sodipodi:docname="dayz-ctl-logo.svg">
  <defs
     id="defs2">
    <linearGradient
       inkscape:collect="always"
       id="linearGradient1005">
      <stop
         style="stop-color:#272727;stop-opacity:1;"
         offset="0"
         id="stop1001" />
      <stop
         style="stop-color:#2b4e35;stop-opacity:0.69275928"
         offset="1"
         id="stop1003" />
    </linearGradient>
    <linearGradient
       inkscape:collect="always"
       xlink:href="#linearGradient1005"
       id="linearGradient1015"
       gradientUnits="userSpaceOnUse"
       x1="10163.014"
       y1="9155.2842"
       x2="10163.014"
       y2="1655.2848" />
    <linearGradient
       inkscape:collect="always"
       xlink:href="#linearGradient1005"
       id="linearGradient904"
       gradientUnits="userSpaceOnUse"
       x1="10163.014"
       y1="9155.2842"
       x2="10163.014"
       y2="1655.2848" />
    <linearGradient
       inkscape:collect="always"
       xlink:href="#linearGradient1005"
       id="linearGradient906"
       gradientUnits="userSpaceOnUse"
       x1="10163.014"
       y1="9155.2842"
       x2="10163.014"
       y2="1655.2848" />
    <linearGradient
       inkscape:collect="always"
       xlink:href="#linearGradient1005"
       id="linearGradient908"
       gradientUnits="userSpaceOnUse"
       x1="10163.014"
       y1="9155.2842"
       x2="10163.014"
       y2="1655.2848" />
    <linearGradient
       inkscape:collect="always"
       xlink:href="#linearGradient1005"
       id="linearGradient910"
       gradientUnits="userSpaceOnUse"
       x1="10163.014"
       y1="9155.2842"
       x2="10163.014"
       y2="1655.2848" />
    <linearGradient
       inkscape:collect="always"
       xlink:href="#linearGradient1005"
       id="linearGradient912"
       gradientUnits="userSpaceOnUse"
       x1="10163.014"
       y1="9155.2842"
       x2="10163.014"
       y2="1655.2848" />
    <linearGradient
       inkscape:collect="always"
       xlink:href="#linearGradient1005"
       id="linearGradient914"
       gradientUnits="userSpaceOnUse"
       x1="10163.014"
       y1="9155.2842"
       x2="10163.014"
       y2="1655.2848" />
    <linearGradient
       inkscape:collect="always"
       xlink:href="#linearGradient1005"
       id="linearGradient916"
       gradientUnits="userSpaceOnUse"
       x1="10163.014"
       y1="9155.2842"
       x2="10163.014"
       y2="1655.2848" />
    <linearGradient
       inkscape:collect="always"
       xlink:href="#linearGradient1005"
       id="linearGradient918"
       gradientUnits="userSpaceOnUse"
       x1="10163.014"
       y1="9155.2842"
       x2="10163.014"
       y2="1655.2848" />
    <linearGradient
       inkscape:collect="always"
       xlink:href="#linearGradient1005"
       id="linearGradient920"
       gradientUnits="userSpaceOnUse"
       x1="10163.014"
       y1="9155.2842"
       x2="10163.014"
       y2="1655.2848" />
    <linearGradient
       inkscape:collect="always"
       xlink:href="#linearGradient1005"
       id="linearGradient922"
       gradientUnits="userSpaceOnUse"
       x1="10163.014"
       y1="9155.2842"
       x2="10163.014"
       y2="1655.2848" />
    <linearGradient
       inkscape:collect="always"
       xlink:href="#linearGradient1005"
       id="linearGradient924"
       gradientUnits="userSpaceOnUse"
       x1="10163.014"
       y1="9155.2842"
       x2="10163.014"
       y2="1655.2848" />
    <linearGradient
       inkscape:collect="always"
       xlink:href="#linearGradient1005"
       id="linearGradient926"
       gradientUnits="userSpaceOnUse"
       x1="10163.014"
       y1="9155.2842"
       x2="10163.014"
       y2="1655.2848" />
    <linearGradient
       inkscape:collect="always"
       xlink:href="#linearGradient1005"
       id="linearGradient928"
       gradientUnits="userSpaceOnUse"
       x1="10163.014"
       y1="9155.2842"
       x2="10163.014"
       y2="1655.2848" />
    <linearGradient
       inkscape:collect="always"
       xlink:href="#linearGradient1005"
       id="linearGradient930"
       gradientUnits="userSpaceOnUse"
       x1="10163.014"
       y1="9155.2842"
       x2="10163.014"
       y2="1655.2848" />
    <linearGradient
       inkscape:collect="always"
       xlink:href="#linearGradient1005"
       id="linearGradient932"
       gradientUnits="userSpaceOnUse"
       x1="10163.014"
       y1="9155.2842"
       x2="10163.014"
       y2="1655.2848" />
    <linearGradient
       inkscape:collect="always"
       xlink:href="#linearGradient1005"
       id="linearGradient934"
       gradientUnits="userSpaceOnUse"
       x1="10163.014"
       y1="9155.2842"
       x2="10163.014"
       y2="1655.2848" />
    <linearGradient
       inkscape:collect="always"
       xlink:href="#linearGradient1005"
       id="linearGradient936"
       gradientUnits="userSpaceOnUse"
       x1="10163.014"
       y1="9155.2842"
       x2="10163.014"
       y2="1655.2848" />
    <linearGradient
       inkscape:collect="always"
       xlink:href="#linearGradient1005"
       id="linearGradient938"
       gradientUnits="userSpaceOnUse"
       x1="10163.014"
       y1="9155.2842"
       x2="10163.014"
       y2="1655.2848" />
    <linearGradient
       inkscape:collect="always"
       xlink:href="#linearGradient1005"
       id="linearGradient940"
       gradientUnits="userSpaceOnUse"
       x1="10163.014"
       y1="9155.2842"
       x2="10163.014"
       y2="1655.2848" />
    <linearGradient
       inkscape:collect="always"
       xlink:href="#linearGradient1005"
       id="linearGradient942"
       gradientUnits="userSpaceOnUse"
       x1="10163.014"
       y1="9155.2842"
       x2="10163.014"
       y2="1655.2848" />
    <linearGradient
       inkscape:collect="always"
       xlink:href="#linearGradient1005"
       id="linearGradient944"
       gradientUnits="userSpaceOnUse"
       x1="10163.014"
       y1="9155.2842"
       x2="10163.014"
       y2="1655.2848" />
    <linearGradient
       inkscape:collect="always"
       xlink:href="#linearGradient1005"
       id="linearGradient946"
       gradientUnits="userSpaceOnUse"
       x1="10163.014"
       y1="9155.2842"
       x2="10163.014"
       y2="1655.2848" />
    <linearGradient
       inkscape:collect="always"
       xlink:href="#linearGradient1005"
       id="linearGradient948"
       gradientUnits="userSpaceOnUse"
       x1="10163.014"
       y1="9155.2842"
       x2="10163.014"
       y2="1655.2848" />
    <linearGradient
       inkscape:collect="always"
       xlink:href="#linearGradient1005"
       id="linearGradient950"
       gradientUnits="userSpaceOnUse"
       x1="10163.014"
       y1="9155.2842"
       x2="10163.014"
       y2="1655.2848" />
    <linearGradient
       inkscape:collect="always"
       xlink:href="#linearGradient1005"
       id="linearGradient952"
       gradientUnits="userSpaceOnUse"
       x1="10163.014"
       y1="9155.2842"
       x2="10163.014"
       y2="1655.2848" />
    <linearGradient
       inkscape:collect="always"
       xlink:href="#linearGradient1005"
       id="linearGradient954"
       gradientUnits="userSpaceOnUse"
       x1="10163.014"
       y1="9155.2842"
       x2="10163.014"
       y2="1655.2848" />
    <linearGradient
       inkscape:collect="always"
       xlink:href="#linearGradient1005"
       id="linearGradient956"
       gradientUnits="userSpaceOnUse"
       x1="10163.014"
       y1="9155.2842"
       x2="10163.014"
       y2="1655.2848" />
    <linearGradient
       inkscape:collect="always"
       xlink:href="#linearGradient1005"
       id="linearGradient958"
       gradientUnits="userSpaceOnUse"
       x1="10163.014"
       y1="9155.2842"
       x2="10163.014"
       y2="1655.2848" />
    <linearGradient
       inkscape:collect="always"
       xlink:href="#linearGradient1005"
       id="linearGradient960"
       gradientUnits="userSpaceOnUse"
       x1="10163.014"
       y1="9155.2842"
       x2="10163.014"
       y2="1655.2848" />
    <linearGradient
       inkscape:collect="always"
       xlink:href="#linearGradient1005"
       id="linearGradient962"
       gradientUnits="userSpaceOnUse"
       x1="10163.014"
       y1="9155.2842"
       x2="10163.014"
       y2="1655.2848" />
    <linearGradient
       inkscape:collect="always"
       xlink:href="#linearGradient1005"
       id="linearGradient964"
       gradientUnits="userSpaceOnUse"
       x1="10163.014"
       y1="9155.2842"
       x2="10163.014"
       y2="1655.2848" />
    <linearGradient
       inkscape:collect="always"
       xlink:href="#linearGradient1005"
       id="linearGradient966"
       gradientUnits="userSpaceOnUse"
       x1="10163.014"
       y1="9155.2842"
       x2="10163.014"
       y2="1655.2848" />
    <linearGradient
       inkscape:collect="always"
       xlink:href="#linearGradient1005"
       id="linearGradient968"
       gradientUnits="userSpaceOnUse"
       x1="10163.014"
       y1="9155.2842"
       x2="10163.014"
       y2="1655.2848" />
    <linearGradient
       inkscape:collect="always"
       xlink:href="#linearGradient1005"
       id="linearGradient970"
       gradientUnits="userSpaceOnUse"
       x1="10163.014"
       y1="9155.2842"
       x2="10163.014"
       y2="1655.2848" />
    <linearGradient
       inkscape:collect="always"
       xlink:href="#linearGradient1005"
       id="linearGradient972"
       gradientUnits="userSpaceOnUse"
       x1="10163.014"
       y1="9155.2842"
       x2="10163.014"
       y2="1655.2848" />
    <linearGradient
       inkscape:collect="always"
       xlink:href="#linearGradient1005"
       id="linearGradient974"
       gradientUnits="userSpaceOnUse"
       x1="10163.014"
       y1="9155.2842"
       x2="10163.014"
       y2="1655.2848" />
    <linearGradient
       inkscape:collect="always"
       xlink:href="#linearGradient1005"
       id="linearGradient976"
       gradientUnits="userSpaceOnUse"
       x1="10163.014"
       y1="9155.2842"
       x2="10163.014"
       y2="1655.2848" />
    <linearGradient
       inkscape:collect="always"
       xlink:href="#linearGradient1005"
       id="linearGradient978"
       gradientUnits="userSpaceOnUse"
       x1="10163.014"
       y1="9155.2842"
       x2="10163.014"
       y2="1655.2848" />
    <linearGradient
       inkscape:collect="always"
       xlink:href="#linearGradient1005"
       id="linearGradient980"
       gradientUnits="userSpaceOnUse"
       x1="10163.014"
       y1="9155.2842"
       x2="10163.014"
       y2="1655.2848" />
    <linearGradient
       inkscape:collect="always"
       xlink:href="#linearGradient1005"
       id="linearGradient982"
       gradientUnits="userSpaceOnUse"
       x1="10163.014"
       y1="9155.2842"
       x2="10163.014"
       y2="1655.2848" />
    <linearGradient
       inkscape:collect="always"
       xlink:href="#linearGradient1005"
       id="linearGradient984"
       gradientUnits="userSpaceOnUse"
       x1="10163.014"
       y1="9155.2842"
       x2="10163.014"
       y2="1655.2848" />
    <linearGradient
       inkscape:collect="always"
       xlink:href="#linearGradient1005"
       id="linearGradient986"
       gradientUnits="userSpaceOnUse"
       x1="10163.014"
       y1="9155.2842"
       x2="10163.014"
       y2="1655.2848" />
    <linearGradient
       inkscape:collect="always"
       xlink:href="#linearGradient1005"
       id="linearGradient988"
       gradientUnits="userSpaceOnUse"
       x1="10163.014"
       y1="9155.2842"
       x2="10163.014"
       y2="1655.2848" />
  </defs>
  <sodipodi:namedview
     id="base"
     pagecolor="#ffffff"
     bordercolor="#666666"
     borderopacity="1.0"
     inkscape:pageopacity="0.0"
     inkscape:pageshadow="2"
     inkscape:zoom="0.35"
     inkscape:cx="1051.8242"
     inkscape:cy="401.99769"
     inkscape:document-units="mm"
     inkscape:current-layer="layer1"
     showgrid="true"
     inkscape:window-width="2560"
     inkscape:window-height="1379"
     inkscape:window-x="0"
     inkscape:window-y="33"
     inkscape:window-maximized="1">
    <inkscape:grid
       type="xygrid"
       id="grid989" />
  </sodipodi:namedview>
  <metadata
     id="metadata5">
    <rdf:RDF>
      <cc:Work
         rdf:about="">
        <dc:format>image/svg+xml</dc:format>
        <dc:type
           rdf:resource="http://purl.org/dc/dcmitype/StillImage" />
        <dc:title></dc:title>
      </cc:Work>
    </rdf:RDF>
  </metadata>
  <g
     inkscape:label="Layer 1"
     inkscape:groupmode="layer"
     id="layer1"
     transform="translate(609.35534,308.84648)">
    <g
       aria-label="DayZ Command Line Launcher"
       transform="matrix(1.4588288,0,0,1.4975913,-468.71291,-412.87338)"
       style="font-style:normal;font-variant:normal;font-weight:normal;font-stretch:normal;font-size:40.00018692px;line-height:1.25;font-family:Uroob;-inkscape-font-specification:'Uroob, Normal';font-variant-ligatures:normal;font-variant-caps:normal;font-variant-numeric:normal;font-feature-settings:normal;text-align:start;letter-spacing:0px;word-spacing:0px;writing-mode:lr-tb;text-anchor:start;fill:#3e563e;fill-opacity:0.90196078;stroke:none"
       id="flowRoot815">
      <path
         d="m 73.33406,349.08216 q 0,1.73828 -1.054692,2.83204 -1.054693,1.07422 -2.812514,1.07422 H 59.037118 v -24.96105 h 9.648483 q 1.914071,0 3.281265,1.26954 1.367194,1.26953 1.367194,3.18361 z m -3.535173,-0.83985 v -15.11726 q 0,-1.3086 -1.015629,-1.89454 -0.312502,-0.19531 -0.72266,-0.17578 H 62.591822 V 349.922 h 6.054716 q 0.996099,-0.0195 1.113287,-1.07422 0.03906,-0.3125 0.03906,-0.60547 z"
         style="font-style:normal;font-variant:normal;font-weight:normal;font-stretch:normal;font-size:40.00018692px;font-family:Uroob;-inkscape-font-specification:'Uroob, Normal';font-variant-ligatures:normal;font-variant-caps:normal;font-variant-numeric:normal;font-feature-settings:normal;text-align:start;writing-mode:lr-tb;text-anchor:start;fill:#3e563e;fill-opacity:0.90196078"
         id="path898"
         inkscape:connector-curvature="0" />
      <path
         d="m 85.287241,338.49617 q 0,-1.64063 -1.582038,-1.64063 h -3.554704 q -0.585941,0 -0.917973,0.37109 -0.312502,0.35157 -0.332033,0.91797 h -3.359391 q 0.03906,-1.77735 1.152349,-3.00782 1.113287,-1.23048 2.832045,-1.23048 h 5.214868 q 1.679695,0 2.753919,1.21095 1.074224,1.21094 1.074224,2.94923 v 14.92194 h -3.261734 v -0.76172 q -1.054693,0.82032 -2.070322,0.82032 h -3.20314 q -1.777353,0 -3.222672,-1.15235 -1.445319,-1.15235 -1.445319,-2.83205 v -3.71095 q 0,-1.71876 1.445319,-2.87111 1.445319,-1.15235 3.222672,-1.15235 h 3.78908 q 0.781253,0 1.46485,0.42969 z m -0.05859,9.92192 v -2.42189 q 0,-0.74219 -0.429689,-1.25 -0.410158,-0.52735 -1.210943,-0.52735 h -3.320328 q -0.820317,0 -1.191412,0.52735 -0.371096,0.50781 -0.371096,1.25 v 2.42189 q 0,0.74219 0.371096,1.26954 0.371095,0.50781 1.191412,0.50781 h 3.320328 q 0.800785,0 1.210943,-0.50781 0.429689,-0.52735 0.429689,-1.26954 z"
         style="font-style:normal;font-variant:normal;font-weight:normal;font-stretch:normal;font-size:40.00018692px;font-family:Uroob;-inkscape-font-specification:'Uroob, Normal';font-variant-ligatures:normal;font-variant-caps:normal;font-variant-numeric:normal;font-feature-settings:normal;text-align:start;writing-mode:lr-tb;text-anchor:start;fill:#3e563e;fill-opacity:0.90196078"
         id="path900"
         inkscape:connector-curvature="0" />
      <path
         d="m 100.092,351.83607 q -1.132819,1.13282 -2.285168,1.13282 h -3.125014 q -1.699227,0 -2.929701,-1.15235 -1.230475,-1.15235 -1.230475,-2.8711 v -15.00007 h 3.339859 v 14.35553 q 0,0.74219 0.410159,1.26954 0.429689,0.50781 1.230474,0.50781 h 2.851576 q 1.17188,0.0195 1.484382,-1.42578 0.07813,-0.39063 0.07813,-0.7422 v -13.76959 h 3.339858 v 19.2579 q 0,0.64454 0.0195,1.48438 0.0195,0.83985 -0.13672,3.71096 -0.15625,2.87111 -3.300793,2.87111 h -4.492209 q -1.386725,0 -2.48048,-0.89845 -1.113286,-0.89844 -1.113286,-2.2461 v -1.05469 h 2.968763 q 0,1.03516 0.859379,1.50391 0.273439,0.15625 0.585941,0.13672 h 1.933602 q 1.269538,-0.0195 1.816415,-0.83985 0.195308,-0.27344 0.175778,-0.66406 z"
         style="font-style:normal;font-variant:normal;font-weight:normal;font-stretch:normal;font-size:40.00018692px;font-family:Uroob;-inkscape-font-specification:'Uroob, Normal';font-variant-ligatures:normal;font-variant-caps:normal;font-variant-numeric:normal;font-feature-settings:normal;text-align:start;writing-mode:lr-tb;text-anchor:start;fill:#3e563e;fill-opacity:0.90196078"
         id="path902"
         inkscape:connector-curvature="0" />
      <path
         d="m 120.32647,328.0469 q 0.74219,0.29297 0.74219,1.21094 0,0.3711 -4.08205,7.69535 -4.08205,7.32426 -5.46878,9.82427 -1.38672,2.50001 -1.71875,3.04689 h 11.05474 v 3.1836 h -14.96101 v -0.0195 q -0.74219,-0.2539 -0.74219,-1.11328 -0.0195,-0.83985 10.37114,-19.12119 0.625,-1.09375 0.87891,-1.52344 h -10.7813 v -3.20314 h 14.7071 z"
         style="font-style:normal;font-variant:normal;font-weight:normal;font-stretch:normal;font-size:40.00018692px;font-family:Uroob;-inkscape-font-specification:'Uroob, Normal';font-variant-ligatures:normal;font-variant-caps:normal;font-variant-numeric:normal;font-feature-settings:normal;text-align:start;writing-mode:lr-tb;text-anchor:start;fill:#3e563e;fill-opacity:0.90196078"
         id="path904"
         inkscape:connector-curvature="0" />
      <path
         d="m 143.97892,332.94927 q 0,-1.87501 -1.54297,-1.89454 h -3.43752 q -0.76172,0 -1.11329,0.48828 -0.35156,0.48828 -0.35156,1.19141 v 15.52742 q 0,0.70313 0.35156,1.19141 0.35157,0.48828 1.11329,0.48828 h 3.43752 q 1.50391,0 1.54297,-1.73828 0,-0.46876 0,-0.89845 h 3.53517 v 1.60157 q 0,1.75782 -1.26953,2.9297 -1.26954,1.15235 -2.9883,1.15235 h -4.49221 q -1.81641,0 -3.28126,-1.15235 -1.48438,-1.15234 -1.48438,-2.9297 v -16.81648 q 0,-1.77735 1.48438,-2.94923 1.48438,-1.17188 3.28126,-1.17188 h 4.49221 q 1.73829,0 3.00783,1.19141 1.25,1.19141 1.25,2.9297 v 1.79688 h -3.53517 z"
         style="font-style:normal;font-variant:normal;font-weight:normal;font-stretch:normal;font-size:40.00018692px;font-family:Uroob;-inkscape-font-specification:'Uroob, Normal';font-variant-ligatures:normal;font-variant-caps:normal;font-variant-numeric:normal;font-feature-settings:normal;text-align:start;writing-mode:lr-tb;text-anchor:start;fill:#3e563e;fill-opacity:0.90196078"
         id="path906"
         inkscape:connector-curvature="0" />
      <path
         d="m 161.22509,348.88684 q 0.0195,1.6797 -1.38672,2.83205 -1.40626,1.17188 -3.16408,1.17188 h -2.51954 q -1.77735,0 -3.22267,-1.15235 -1.44532,-1.15235 -1.44532,-2.85158 v -10.97661 q 0,-1.71876 1.44532,-2.87111 1.44532,-1.15235 3.22267,-1.15235 h 2.51954 q 1.71876,0 3.14455,1.15235 1.40625,1.15235 1.40625,2.87111 z m -3.33986,-0.64453 v -9.68755 q 0,-0.74219 -0.42969,-1.25 -0.41015,-0.52735 -1.21094,-0.52735 h -1.85548 q -0.82031,0 -1.19141,0.52735 -0.37109,0.50781 -0.37109,1.25 v 9.68755 q 0,0.74219 0.37109,1.26953 0.3711,0.50782 1.19141,0.50782 h 1.85548 q 0.80079,0 1.21094,-0.50782 0.42969,-0.52734 0.42969,-1.26953 z"
         style="font-style:normal;font-variant:normal;font-weight:normal;font-stretch:normal;font-size:40.00018692px;font-family:Uroob;-inkscape-font-specification:'Uroob, Normal';font-variant-ligatures:normal;font-variant-caps:normal;font-variant-numeric:normal;font-feature-settings:normal;text-align:start;writing-mode:lr-tb;text-anchor:start;fill:#3e563e;fill-opacity:0.90196078"
         id="path908"
         inkscape:connector-curvature="0" />
      <path
         d="m 174.3111,335.31256 q 0.87891,-1.36719 2.32423,-1.36719 h 3.71095 q 1.69923,0 2.9297,1.15235 1.23048,1.15234 1.23048,2.8711 v 15.00007 h -3.33986 v -14.35553 q 0,-0.74219 -0.42969,-1.25001 -0.41016,-0.52735 -1.21095,-0.52735 h -2.65626 q -0.97657,0 -1.26954,1.34767 -0.0781,0.35156 -0.0781,0.64453 v 14.14069 h -3.35939 v -14.66804 q 0,-0.97656 -1.03516,-1.36719 -0.29297,-0.11719 -0.58594,-0.0977 h -2.85158 q -1.17188,0 -1.17188,2.75392 v 13.37897 h -3.35939 v -19.02352 h 2.9883 v 1.17188 q 0.85937,-1.17188 2.08985,-1.17188 h 3.51564 q 1.64063,0 2.55861,1.36719 z"
         style="font-style:normal;font-variant:normal;font-weight:normal;font-stretch:normal;font-size:40.00018692px;font-family:Uroob;-inkscape-font-specification:'Uroob, Normal';font-variant-ligatures:normal;font-variant-caps:normal;font-variant-numeric:normal;font-feature-settings:normal;text-align:start;writing-mode:lr-tb;text-anchor:start;fill:#3e563e;fill-opacity:0.90196078"
         id="path910"
         inkscape:connector-curvature="0" />
      <path
         d="m 197.59245,335.31256 q 0.87891,-1.36719 2.32423,-1.36719 h 3.71096 q 1.69922,0 2.9297,1.15235 1.23047,1.15234 1.23047,2.8711 v 15.00007 h -3.33986 v -14.35553 q 0,-0.74219 -0.42969,-1.25001 -0.41015,-0.52735 -1.21094,-0.52735 h -2.65626 q -0.97657,0 -1.26954,1.34767 -0.0781,0.35156 -0.0781,0.64453 v 14.14069 h -3.35939 v -14.66804 q 0,-0.97656 -1.03517,-1.36719 -0.29297,-0.11719 -0.58594,-0.0977 h -2.85157 q -1.17188,0 -1.17188,2.75392 v 13.37897 h -3.35939 v -19.02352 h 2.98829 v 1.17188 q 0.85938,-1.17188 2.08986,-1.17188 h 3.51564 q 1.64063,0 2.5586,1.36719 z"
         style="font-style:normal;font-variant:normal;font-weight:normal;font-stretch:normal;font-size:40.00018692px;font-family:Uroob;-inkscape-font-specification:'Uroob, Normal';font-variant-ligatures:normal;font-variant-caps:normal;font-variant-numeric:normal;font-feature-settings:normal;text-align:start;writing-mode:lr-tb;text-anchor:start;fill:#3e563e;fill-opacity:0.90196078"
         id="path912"
         inkscape:connector-curvature="0" />
      <path
         d="m 219.74099,338.49617 q 0,-1.64063 -1.58204,-1.64063 h -3.5547 q -0.58594,0 -0.91797,0.37109 -0.31251,0.35157 -0.33204,0.91797 h -3.35939 q 0.0391,-1.77735 1.15235,-3.00782 1.11329,-1.23048 2.83205,-1.23048 h 5.21486 q 1.6797,0 2.75392,1.21095 1.07423,1.21094 1.07423,2.94923 v 14.92194 h -3.26174 v -0.76172 q -1.05469,0.82032 -2.07032,0.82032 h -3.20314 q -1.77735,0 -3.22267,-1.15235 -1.44532,-1.15235 -1.44532,-2.83205 v -3.71095 q 0,-1.71876 1.44532,-2.87111 1.44532,-1.15235 3.22267,-1.15235 h 3.78908 q 0.78126,0 1.46485,0.42969 z m -0.0586,9.92192 v -2.42189 q 0,-0.74219 -0.42969,-1.25 -0.41016,-0.52735 -1.21094,-0.52735 h -3.32033 q -0.82032,0 -1.19141,0.52735 -0.3711,0.50781 -0.3711,1.25 v 2.42189 q 0,0.74219 0.3711,1.26954 0.37109,0.50781 1.19141,0.50781 h 3.32033 q 0.80078,0 1.21094,-0.50781 0.42969,-0.52735 0.42969,-1.26954 z"
         style="font-style:normal;font-variant:normal;font-weight:normal;font-stretch:normal;font-size:40.00018692px;font-family:Uroob;-inkscape-font-specification:'Uroob, Normal';font-variant-ligatures:normal;font-variant-caps:normal;font-variant-numeric:normal;font-feature-settings:normal;text-align:start;writing-mode:lr-tb;text-anchor:start;fill:#3e563e;fill-opacity:0.90196078"
         id="path914"
         inkscape:connector-curvature="0" />
      <path
         d="m 227.96369,335.07818 q 1.13282,-1.13281 2.28517,-1.13281 h 3.32033 q 1.69922,0 2.9297,1.15235 1.23047,1.15234 1.23047,2.8711 v 15.00007 h -3.33986 v -14.35553 q 0,-0.74219 -0.42969,-1.25001 -0.41015,-0.52735 -1.21094,-0.52735 h -2.85158 q -1.15234,-0.0195 -1.46485,1.42579 -0.0781,0.39063 -0.0977,0.74219 v 13.96491 h -3.33986 l -0.0195,-19.02352 h 2.98829 z"
         style="font-style:normal;font-variant:normal;font-weight:normal;font-stretch:normal;font-size:40.00018692px;font-family:Uroob;-inkscape-font-specification:'Uroob, Normal';font-variant-ligatures:normal;font-variant-caps:normal;font-variant-numeric:normal;font-feature-settings:normal;text-align:start;writing-mode:lr-tb;text-anchor:start;fill:#3e563e;fill-opacity:0.90196078"
         id="path916"
         inkscape:connector-curvature="0" />
      <path
         d="m 246.87002,333.92583 q 1.17188,0 2.14845,0.58594 v -6.38674 h 3.35939 v 24.76574 h -3.06642 v -0.91798 q -1.26954,0.91798 -2.83204,0.91798 h -1.3672 q -2.50001,0 -3.96486,-1.6211 -1.48438,-1.62111 -1.48438,-4.14065 v -7.42191 q 0,-4.10158 2.75392,-5.35159 0.95703,-0.42969 2.30469,-0.42969 z m 2.14845,14.64851 v -10.4102 q 0,-0.56641 -0.52735,-0.95704 -0.52734,-0.39063 -1.07422,-0.39063 h -2.07032 q -2.01173,0 -2.26564,1.91407 -0.0781,0.58594 -0.0781,1.23048 v 7.10941 q 0.0195,1.52344 0.33203,2.01173 0.60547,0.9375 2.01173,0.9375 h 1.67969 q 1.07423,0 1.77736,-0.85938 0.21484,-0.27344 0.21484,-0.58594 z"
         style="font-style:normal;font-variant:normal;font-weight:normal;font-stretch:normal;font-size:40.00018692px;font-family:Uroob;-inkscape-font-specification:'Uroob, Normal';font-variant-ligatures:normal;font-variant-caps:normal;font-variant-numeric:normal;font-feature-settings:normal;text-align:start;writing-mode:lr-tb;text-anchor:start;fill:#3e563e;fill-opacity:0.90196078"
         id="path918"
         inkscape:connector-curvature="0" />
      <path
         d="m 269.11622,352.98842 q -3.78908,0 -3.78908,-3.30079 v -21.66026 h 3.53517 v 20.6251 q 0,0.78125 0.17579,1.03516 0.17578,0.2539 0.89844,0.2539 h 6.64065 v 3.04689 z"
         style="font-style:normal;font-variant:normal;font-weight:normal;font-stretch:normal;font-size:40.00018692px;font-family:Uroob;-inkscape-font-specification:'Uroob, Normal';font-variant-ligatures:normal;font-variant-caps:normal;font-variant-numeric:normal;font-feature-settings:normal;text-align:start;writing-mode:lr-tb;text-anchor:start;fill:#3e563e;fill-opacity:0.90196078"
         id="path920"
         inkscape:connector-curvature="0" />
      <path
         d="m 280.21002,328.24221 q 2.14845,0 2.14845,2.18751 0,2.20705 -2.14845,2.20705 -1.05469,0 -1.6211,-0.56641 -0.56641,-0.58594 -0.56641,-1.64064 0,-1.05469 0.56641,-1.6211 0.56641,-0.56641 1.6211,-0.56641 z m 1.64064,24.64856 h -3.35939 V 333.9063 h 3.35939 z"
         style="font-style:normal;font-variant:normal;font-weight:normal;font-stretch:normal;font-size:40.00018692px;font-family:Uroob;-inkscape-font-specification:'Uroob, Normal';font-variant-ligatures:normal;font-variant-caps:normal;font-variant-numeric:normal;font-feature-settings:normal;text-align:start;writing-mode:lr-tb;text-anchor:start;fill:#3e563e;fill-opacity:0.90196078"
         id="path922"
         inkscape:connector-curvature="0" />
      <path
         d="m 286.7335,335.07818 q 1.13282,-1.13281 2.28516,-1.13281 h 3.32033 q 1.69923,0 2.9297,1.15235 1.23048,1.15234 1.23048,2.8711 v 15.00007 h -3.33986 v -14.35553 q 0,-0.74219 -0.42969,-1.25001 -0.41016,-0.52735 -1.21094,-0.52735 h -2.85158 q -1.15235,-0.0195 -1.46485,1.42579 -0.0781,0.39063 -0.0977,0.74219 v 13.96491 h -3.33986 l -0.0195,-19.02352 h 2.9883 z"
         style="font-style:normal;font-variant:normal;font-weight:normal;font-stretch:normal;font-size:40.00018692px;font-family:Uroob;-inkscape-font-specification:'Uroob, Normal';font-variant-ligatures:normal;font-variant-caps:normal;font-variant-numeric:normal;font-feature-settings:normal;text-align:start;writing-mode:lr-tb;text-anchor:start;fill:#3e563e;fill-opacity:0.90196078"
         id="path924"
         inkscape:connector-curvature="0" />
      <path
         d="m 311.06954,348.6134 q -0.0586,2.94924 -2.28517,4.02346 -0.74219,0.35156 -1.69922,0.35156 h -4.62893 q -1.73829,0 -2.87111,-1.25 -1.15235,-1.25001 -1.15235,-3.00783 v -10.66411 q 0,-1.73829 1.0547,-2.9883 1.05469,-1.25 2.77345,-1.25 h 4.96096 q 1.73829,0 2.77345,1.32813 1.03516,1.32813 1.03516,3.10548 v 2.53908 q 0,1.71875 -0.95704,2.94923 -0.95703,1.21094 -2.65626,1.21094 h -5.70315 v 3.53518 q 0,1.5625 1.58204,1.5625 h 2.96876 q 0.66407,0 1.05469,-0.37109 0.41016,-0.39063 0.39063,-1.07423 z m -7.77347,-11.75786 q -1.58204,0 -1.58204,1.64063 v 3.57423 h 4.27736 q 0.74219,0 1.25001,-0.41015 0.52734,-0.42969 0.52734,-1.23048 v -2.01173 q 0,-0.82031 -0.52734,-1.19141 -0.50782,-0.37109 -1.25001,-0.37109 z"
         style="font-style:normal;font-variant:normal;font-weight:normal;font-stretch:normal;font-size:40.00018692px;font-family:Uroob;-inkscape-font-specification:'Uroob, Normal';font-variant-ligatures:normal;font-variant-caps:normal;font-variant-numeric:normal;font-feature-settings:normal;text-align:start;writing-mode:lr-tb;text-anchor:start;fill:#3e563e;fill-opacity:0.90196078"
         id="path926"
         inkscape:connector-curvature="0" />
      <path
         d="m 327.57354,352.98842 q -3.78908,0 -3.78908,-3.30079 v -21.66026 h 3.53518 v 20.6251 q 0,0.78125 0.17578,1.03516 0.17578,0.2539 0.89844,0.2539 h 6.64066 v 3.04689 z"
         style="font-style:normal;font-variant:normal;font-weight:normal;font-stretch:normal;font-size:40.00018692px;font-family:Uroob;-inkscape-font-specification:'Uroob, Normal';font-variant-ligatures:normal;font-variant-caps:normal;font-variant-numeric:normal;font-feature-settings:normal;text-align:start;writing-mode:lr-tb;text-anchor:start;fill:#3e563e;fill-opacity:0.90196078"
         id="path928"
         inkscape:connector-curvature="0" />
      <path
         d="m 346.96816,338.49617 q 0,-1.64063 -1.58203,-1.64063 h -3.55471 q -0.58594,0 -0.91797,0.37109 -0.3125,0.35157 -0.33203,0.91797 h -3.35939 q 0.0391,-1.77735 1.15234,-3.00782 1.11329,-1.23048 2.83205,-1.23048 h 5.21487 q 1.67969,0 2.75392,1.21095 1.07422,1.21094 1.07422,2.94923 v 14.92194 h -3.26173 v -0.76172 q -1.0547,0.82032 -2.07033,0.82032 h -3.20314 q -1.77735,0 -3.22267,-1.15235 -1.44532,-1.15235 -1.44532,-2.83205 v -3.71095 q 0,-1.71876 1.44532,-2.87111 1.44532,-1.15235 3.22267,-1.15235 h 3.78908 q 0.78126,0 1.46485,0.42969 z m -0.0586,9.92192 v -2.42189 q 0,-0.74219 -0.42969,-1.25 -0.41016,-0.52735 -1.21094,-0.52735 h -3.32033 q -0.82032,0 -1.19141,0.52735 -0.3711,0.50781 -0.3711,1.25 v 2.42189 q 0,0.74219 0.3711,1.26954 0.37109,0.50781 1.19141,0.50781 h 3.32033 q 0.80078,0 1.21094,-0.50781 0.42969,-0.52735 0.42969,-1.26954 z"
         style="font-style:normal;font-variant:normal;font-weight:normal;font-stretch:normal;font-size:40.00018692px;font-family:Uroob;-inkscape-font-specification:'Uroob, Normal';font-variant-ligatures:normal;font-variant-caps:normal;font-variant-numeric:normal;font-feature-settings:normal;text-align:start;writing-mode:lr-tb;text-anchor:start;fill:#3e563e;fill-opacity:0.90196078"
         id="path930"
         inkscape:connector-curvature="0" />
      <path
         d="m 364.93699,352.96889 h -2.96877 v -0.9375 q -0.78125,0.78125 -1.15234,0.85938 -0.3711,0.0781 -0.7422,0.0781 h -3.90626 q -1.69923,0 -2.83205,-1.15235 -1.13282,-1.15235 -1.13282,-2.8711 v -15.00007 h 3.33986 v 14.35553 q 0,0.74219 0.41016,1.26954 0.42969,0.50781 1.23048,0.50781 h 2.85157 q 0.78126,0 1.17188,-0.82031 0.39063,-0.82032 0.39063,-1.73829 v -13.57428 h 3.33986 z"
         style="font-style:normal;font-variant:normal;font-weight:normal;font-stretch:normal;font-size:40.00018692px;font-family:Uroob;-inkscape-font-specification:'Uroob, Normal';font-variant-ligatures:normal;font-variant-caps:normal;font-variant-numeric:normal;font-feature-settings:normal;text-align:start;writing-mode:lr-tb;text-anchor:start;fill:#3e563e;fill-opacity:0.90196078"
         id="path932"
         inkscape:connector-curvature="0" />
      <path
         d="m 369.85888,335.07818 q 1.13282,-1.13281 2.28517,-1.13281 h 3.32032 q 1.69923,0 2.92971,1.15235 1.23047,1.15234 1.23047,2.8711 v 15.00007 h -3.33986 v -14.35553 q 0,-0.74219 -0.42969,-1.25001 -0.41016,-0.52735 -1.21094,-0.52735 h -2.85158 q -1.15235,-0.0195 -1.46485,1.42579 -0.0781,0.39063 -0.0977,0.74219 v 13.96491 h -3.33985 l -0.0195,-19.02352 h 2.9883 z"
         style="font-style:normal;font-variant:normal;font-weight:normal;font-stretch:normal;font-size:40.00018692px;font-family:Uroob;-inkscape-font-specification:'Uroob, Normal';font-variant-ligatures:normal;font-variant-caps:normal;font-variant-numeric:normal;font-feature-settings:normal;text-align:start;writing-mode:lr-tb;text-anchor:start;fill:#3e563e;fill-opacity:0.90196078"
         id="path934"
         inkscape:connector-curvature="0" />
      <path
         d="m 386.42145,336.85554 q -1.58204,0 -1.58204,1.64063 v 10.00005 q 0,1.5625 1.58204,1.5625 h 2.77345 q 0.66406,0 1.05469,-0.37109 0.39063,-0.39063 0.39063,-1.07423 h 3.35939 q -0.0586,2.94924 -2.28517,4.02346 -0.74219,0.35156 -1.69922,0.35156 h -4.43362 q -1.73829,0 -2.87111,-1.25 -1.15235,-1.25001 -1.15235,-3.00783 v -10.66411 q 0,-1.71876 1.07423,-2.94923 1.07422,-1.21095 2.75392,-1.21095 h 4.62893 q 1.73829,0 2.83204,1.23048 1.11329,1.23047 1.15235,3.00782 h -3.35939 q -0.0195,-0.5664 -0.35157,-0.91797 -0.3125,-0.37109 -0.89844,-0.37109 z"
         style="font-style:normal;font-variant:normal;font-weight:normal;font-stretch:normal;font-size:40.00018692px;font-family:Uroob;-inkscape-font-specification:'Uroob, Normal';font-variant-ligatures:normal;font-variant-caps:normal;font-variant-numeric:normal;font-feature-settings:normal;text-align:start;writing-mode:lr-tb;text-anchor:start;fill:#3e563e;fill-opacity:0.90196078"
         id="path936"
         inkscape:connector-curvature="0" />
      <path
         d="m 408.60908,352.96889 h -3.33986 v -14.35553 q 0,-0.74219 -0.42969,-1.25001 -0.41016,-0.52735 -1.21094,-0.52735 h -2.46095 q -0.80079,0 -1.3672,0.60548 -0.58594,0.60547 -0.58594,1.36719 v 14.16022 h -3.33986 l -0.0195,-24.88293 h 3.37892 v 6.543 q 0.72266,-0.68359 1.69923,-0.68359 h 3.12501 q 1.71876,0 3.14455,1.15235 1.40626,1.15234 1.40626,2.8711 z"
         style="font-style:normal;font-variant:normal;font-weight:normal;font-stretch:normal;font-size:40.00018692px;font-family:Uroob;-inkscape-font-specification:'Uroob, Normal';font-variant-ligatures:normal;font-variant-caps:normal;font-variant-numeric:normal;font-feature-settings:normal;text-align:start;writing-mode:lr-tb;text-anchor:start;fill:#3e563e;fill-opacity:0.90196078"
         id="path938"
         inkscape:connector-curvature="0" />
      <path
         d="m 423.17945,348.6134 q -0.0586,2.94924 -2.28517,4.02346 -0.74219,0.35156 -1.69922,0.35156 h -4.62893 q -1.73829,0 -2.87111,-1.25 -1.15235,-1.25001 -1.15235,-3.00783 v -10.66411 q 0,-1.73829 1.05469,-2.9883 1.0547,-1.25 2.77346,-1.25 h 4.96096 q 1.73829,0 2.77345,1.32813 1.03516,1.32813 1.03516,3.10548 v 2.53908 q 0,1.71875 -0.95704,2.94923 -0.95703,1.21094 -2.65626,1.21094 h -5.70315 v 3.53518 q 0,1.5625 1.58204,1.5625 h 2.96876 q 0.66407,0 1.05469,-0.37109 0.41016,-0.39063 0.39063,-1.07423 z m -7.77347,-11.75786 q -1.58204,0 -1.58204,1.64063 v 3.57423 h 4.27736 q 0.74219,0 1.25001,-0.41015 0.52734,-0.42969 0.52734,-1.23048 v -2.01173 q 0,-0.82031 -0.52734,-1.19141 -0.50782,-0.37109 -1.25001,-0.37109 z"
         style="font-style:normal;font-variant:normal;font-weight:normal;font-stretch:normal;font-size:40.00018692px;font-family:Uroob;-inkscape-font-specification:'Uroob, Normal';font-variant-ligatures:normal;font-variant-caps:normal;font-variant-numeric:normal;font-feature-settings:normal;text-align:start;writing-mode:lr-tb;text-anchor:start;fill:#3e563e;fill-opacity:0.90196078"
         id="path940"
         inkscape:connector-curvature="0" />
      <path
         d="m 433.62871,336.836 -1.97266,-0.0195 q -2.46095,0 -3.20314,1.77736 -0.25391,0.60547 -0.25391,1.38672 v 12.98834 h -3.33986 l -0.0195,-17.30477 q -0.85938,0 -0.85938,-0.64453 v -1.13282 h 3.84767 v 1.77735 q 0.27344,-0.78125 0.9961,-1.28906 0.72266,-0.50782 1.54298,-0.50782 h 3.26173 z"
         style="font-style:normal;font-variant:normal;font-weight:normal;font-stretch:normal;font-size:40.00018692px;font-family:Uroob;-inkscape-font-specification:'Uroob, Normal';font-variant-ligatures:normal;font-variant-caps:normal;font-variant-numeric:normal;font-feature-settings:normal;text-align:start;writing-mode:lr-tb;text-anchor:start;fill:#3e563e;fill-opacity:0.90196078"
         id="path942"
         inkscape:connector-curvature="0" />
    </g>
    <g
       id="g913"
       transform="matrix(0.03527778,0,0,-0.03527778,-448.28686,127.58159)"
       style="fill:url(#linearGradient1015);fill-opacity:1;stroke:none">
      <path
         id="path827"
         d="m 7945,9129 c -93,-5 -303,-24 -466,-44 -276,-33 -316,-35 -591,-35 h -296 l -6,-32 c -3,-18 -23,-164 -46,-324 -38,-276 -47,-318 -169,-805 -72,-283 -149,-610 -172,-727 -40,-201 -41,-213 -25,-231 12,-13 16,-32 14,-57 -3,-33 -7,-39 -35,-46 -37,-10 -33,2 -73,-203 -33,-167 -177,-847 -186,-877 -9,-30 -23,-20 -29,20 -3,20 -10,44 -16,52 -30,47 -32,60 -17,77 14,16 17,104 23,698 5,474 3,713 -4,790 -10,94 -62,342 -78,368 -9,14 -83,-65 -109,-115 -14,-27 -31,-48 -40,-48 -15,0 -16,15 -9,134 6,117 5,137 -10,160 -19,29 -14,56 10,56 12,0 15,15 15,83 v 82 l -65,90 c -128,179 -314,366 -460,463 -38,25 -93,63 -120,83 -28,20 -65,40 -83,43 l -32,8 20,38 c 39,77 19,104 -82,115 -38,3 -72,13 -79,21 -14,17 -65,19 -75,3 -11,-18 -247,-1 -439,32 -252,43 -463,50 -1429,47 l -848,-3 -108,-309 c -69,-200 -113,-312 -124,-318 -10,-5 -19,-8 -21,-6 -2,2 30,147 70,323 41,175 72,321 70,323 -2,2 -33,1 -69,-3 l -66,-7 -15,-52 c -8,-28 -78,-280 -155,-561 -77,-280 -142,-514 -145,-520 -2,-5 -2,37 1,95 4,72 32,242 90,540 47,239 88,446 91,459 6,23 5,24 -53,16 -32,-4 -60,-8 -62,-10 -2,-2 -82,-745 -82,-766 0,-3 -11,-23 -25,-43 l -25,-37 4,-1032 c 4,-1075 6,-1134 25,-1180 6,-16 11,-83 11,-155 0,-123 -1,-127 -27,-154 l -26,-27 12,-308 c 6,-169 13,-372 16,-451 2,-79 9,-160 15,-180 5,-20 10,-93 10,-162 0,-70 4,-130 9,-135 10,-10 18,-166 24,-422 l 2,-123 h -37 -38 v -92 c 0,-84 2,-94 24,-117 14,-15 28,-43 31,-64 7,-35 5,-38 -23,-48 -26,-9 -31,-17 -37,-57 -6,-41 -12,-50 -48,-73 -23,-14 -51,-29 -61,-33 -18,-6 -17,-9 9,-36 21,-22 38,-30 62,-30 h 33 v -270 -269 l 91,-208 c 67,-155 99,-215 121,-234 18,-15 28,-31 24,-38 -4,-6 -2,-27 4,-47 12,-34 14,-36 49,-29 20,3 59,13 88,21 61,17 52,-3 109,252 20,86 47,195 61,242 26,84 116,260 134,260 14,0 11,-59 -6,-120 -42,-153 -77,-299 -105,-428 -16,-79 -32,-147 -35,-153 -8,-12 18,-12 30,0 6,5 34,19 63,30 l 52,21 68,-49 c 51,-37 79,-50 118,-56 l 51,-7 8,38 c 5,31 3,40 -13,53 -13,10 -24,37 -31,74 l -11,58 51,65 c 37,47 57,64 75,64 31,0 33,39 4,65 -22,20 -27,70 -7,79 10,5 10,7 0,12 -25,11 -14,57 22,90 25,22 35,40 35,61 0,22 14,42 58,86 l 59,58 18,-28 c 10,-15 36,-45 57,-65 21,-20 38,-43 38,-51 0,-8 11,-22 25,-31 17,-11 27,-29 31,-56 6,-33 9,-38 21,-29 20,17 44,-9 64,-69 9,-29 24,-51 37,-57 26,-12 32,-65 7,-65 -22,0 -18,-14 8,-25 18,-8 23,-19 25,-58 2,-33 -1,-47 -10,-47 -7,0 3,-13 22,-28 l 33,-28 -12,-50 c -7,-27 -21,-58 -31,-69 -10,-11 -20,-29 -22,-40 -2,-12 -13,-21 -25,-23 -27,-4 -73,-56 -73,-82 0,-10 7,-20 15,-24 8,-3 15,-1 15,4 0,6 21,10 46,10 61,0 74,-17 67,-90 -6,-60 -16,-78 -50,-91 -14,-5 -23,-17 -23,-29 0,-21 14,-27 25,-10 3,6 33,10 65,10 37,0 64,5 73,14 19,19 83,36 137,36 26,0 52,6 58,12 8,8 15,9 20,3 15,-22 54,-37 65,-26 14,14 167,15 167,1 0,-5 18,-10 40,-10 39,0 40,1 40,37 0,36 0,36 -20,18 -23,-21 -22,-21 -40,23 -10,25 -10,36 -1,45 14,14 15,64 0,69 -30,10 73,128 112,128 5,0 9,5 9,10 0,22 40,9 54,-17 8,-16 28,-41 45,-57 29,-28 43,-76 21,-76 -6,0 -10,-55 -10,-145 v -145 h 26 c 23,0 25,3 19,28 -9,41 17,62 45,37 18,-17 19,-20 5,-41 -8,-13 -15,-26 -15,-29 0,-8 75,-6 106,4 16,5 55,17 88,26 l 58,16 -6,35 c -6,27 -4,34 9,34 19,0 20,19 0,26 -12,5 -15,25 -15,89 0,46 -4,87 -10,90 -12,7 -2,62 16,92 11,18 11,23 0,32 -7,6 -16,34 -20,61 -4,27 -11,52 -16,55 -6,3 -10,39 -10,79 0,39 -5,77 -10,82 -6,6 -35,260 -65,565 -30,305 -57,576 -61,602 l -6,48 -43,-7 c -37,-5 -45,-3 -54,14 -7,13 -26,22 -57,27 -42,6 -49,4 -74,-20 l -29,-27 -136,7 -137,7 -19,47 c -10,25 -25,57 -33,71 -21,37 -21,37 -96,855 -58,629 -129,1295 -156,1467 -5,34 -8,37 -26,27 -11,-6 -26,-8 -35,-5 -12,5 -7,17 24,58 36,51 38,56 37,128 -1,51 -6,84 -17,101 -13,20 -15,50 -10,192 l 6,168 50,26 c 30,15 60,23 76,20 21,-3 370,-110 407,-124 7,-3 14,33 21,107 8,94 13,114 33,135 35,38 72,33 125,-16 52,-48 57,-75 20,-109 l -25,-24 30,-25 c 25,-22 31,-38 40,-96 6,-38 14,-73 18,-76 4,-3 86,-36 182,-73 189,-73 212,-84 235,-119 27,-42 34,-107 160,-1447 40,-421 48,-487 64,-505 52,-55 62,-159 20,-189 -17,-12 -18,-15 -4,-26 19,-15 22,-159 3,-178 -8,-8 -8,-15 1,-26 9,-11 7,-19 -13,-40 -13,-15 -27,-43 -30,-64 -4,-20 -9,-50 -13,-67 -5,-30 -5,-30 16,-11 11,11 21,25 21,31 0,7 9,24 20,38 11,14 20,36 20,50 0,36 21,50 48,31 32,-22 29,-69 -8,-111 -28,-31 -30,-40 -30,-107 0,-83 -5,-90 -69,-105 -23,-5 -50,-16 -60,-25 -22,-20 -54,-20 -96,0 -30,14 -36,14 -65,-1 -25,-13 -38,-14 -61,-6 l -29,10 v -74 c 0,-41 -5,-77 -10,-80 -6,-3 -10,-38 -10,-76 0,-57 5,-79 25,-112 22,-38 27,-74 55,-331 16,-159 33,-292 36,-295 3,-3 46,-5 95,-4 86,2 90,1 141,-33 29,-19 61,-37 70,-40 32,-10 70,-107 105,-269 l 9,-40 56,-3 c 55,-3 57,-4 83,-47 l 26,-45 h 92 c 56,0 123,8 172,19 44,11 83,17 88,14 4,-3 13,-17 19,-31 l 11,-27 9,40 c 9,37 18,170 36,534 4,81 11,146 17,148 30,9 35,-19 55,-307 11,-162 20,-298 20,-302 0,-5 19,-8 43,-8 55,0 67,-13 67,-71 0,-56 -23,-79 -77,-79 -48,0 -33,-25 38,-60 63,-32 119,-40 119,-16 0,8 -4,18 -10,21 -23,14 -8,53 38,98 l 48,47 h 72 72 v 35 c 0,29 5,37 26,46 32,11 64,3 64,-17 0,-8 10,-14 25,-14 33,0 315,127 337,151 18,21 86,26 119,9 16,-9 19,-7 19,9 0,11 7,27 16,36 22,22 36,7 49,-52 l 10,-46 130,-57 c 125,-55 134,-58 243,-65 94,-6 116,-5 130,8 9,8 45,18 80,22 57,6 62,5 62,-13 0,-17 6,-19 48,-14 71,6 77,-5 91,-179 6,-81 11,-172 11,-204 0,-35 4,-54 10,-50 6,3 10,22 10,42 0,45 26,100 57,120 32,21 26,44 -17,58 -33,11 -35,15 -38,58 -2,28 1,47 7,47 17,0 13,37 -4,44 -13,4 -15,36 -15,200 v 195 l -57,42 c -32,23 -73,53 -91,66 l -33,25 27,46 c 15,26 37,58 50,73 24,25 35,54 12,31 -7,-7 -25,-12 -41,-12 h -29 l 8,82 c 12,112 7,213 -21,473 -26,235 -36,275 -72,275 -29,0 -47,33 -33,59 5,11 69,295 140,633 127,597 132,614 167,667 20,29 54,67 76,84 l 38,32 -5,65 c -12,151 -23,229 -35,244 -17,21 7,66 60,108 23,18 60,49 83,69 75,66 98,74 156,61 28,-7 62,-12 74,-12 28,0 232,-205 241,-242 3,-13 1,-36 -5,-52 -9,-25 -7,-32 22,-65 17,-20 47,-42 67,-49 46,-16 58,-29 43,-44 -9,-9 -9,-15 2,-27 7,-9 18,-29 23,-46 9,-29 12,-30 72,-33 48,-2 68,1 82,14 17,15 23,15 89,-1 l 71,-17 29,27 c 26,25 30,26 57,13 15,-7 36,-28 45,-47 9,-18 26,-43 37,-55 11,-12 30,-44 42,-71 12,-28 36,-68 54,-90 18,-22 69,-121 115,-220 l 82,-180 -7,-180 c -3,-99 -13,-232 -21,-295 -9,-63 -12,-138 -9,-167 4,-31 0,-80 -8,-125 -8,-40 -18,-120 -22,-178 -3,-58 -15,-136 -26,-173 -20,-68 -21,-69 -73,-92 -44,-19 -56,-30 -69,-63 -9,-22 -21,-43 -27,-47 -6,-3 -8,-11 -5,-16 4,-5 10,-35 16,-68 5,-32 16,-72 24,-87 9,-18 15,-57 15,-106 v -77 l -41,-11 c -41,-11 -54,-8 -54,12 0,14 -32,34 -41,26 -3,-4 1,-17 10,-30 9,-12 16,-36 16,-53 0,-16 9,-59 20,-93 11,-35 20,-83 20,-106 0,-23 18,-132 40,-241 22,-109 40,-200 40,-202 0,-2 21,8 47,21 25,14 50,23 55,20 25,-16 -14,-104 -47,-104 -7,0 -23,-8 -35,-18 l -23,-18 37,-22 c 47,-28 47,-45 0,-40 l -37,4 7,-74 c 3,-41 6,-86 6,-99 v -25 l 36,21 c 37,22 69,27 78,12 3,-4 17,-6 31,-3 16,3 33,-2 45,-13 17,-15 32,-17 125,-10 58,4 105,10 105,14 0,73 24,329 32,338 8,10 7,18 -5,31 -14,15 -14,23 -1,72 8,30 14,64 14,77 0,28 14,37 30,18 7,-8 27,-15 45,-15 42,0 61,-21 45,-49 -6,-12 -15,-21 -20,-21 -6,0 -10,-4 -10,-10 0,-5 7,-10 15,-10 24,0 18,-20 -15,-48 -29,-25 -30,-30 -30,-108 0,-72 2,-82 20,-90 20,-9 20,-11 -15,-51 -31,-36 -35,-47 -35,-97 v -56 h 88 c 76,0 91,3 107,20 11,12 31,20 52,20 30,0 33,3 33,29 0,17 -4,33 -10,36 -5,3 -10,0 -10,-7 0,-9 -3,-9 -10,2 -18,28 -10,40 46,65 l 55,24 -2,84 c -2,46 1,88 5,95 4,6 -1,23 -9,36 -16,24 -16,27 12,68 l 29,43 69,3 c 43,2 76,9 85,17 14,13 19,13 36,0 27,-20 51,-18 64,5 16,31 37,24 100,-30 l 58,-50 6,47 c 3,27 10,102 16,168 6,66 15,160 22,208 14,111 4,138 -48,130 -27,-4 -35,-2 -40,13 -4,11 -23,34 -41,52 -27,27 -32,37 -22,48 6,8 15,14 20,14 16,0 51,-41 46,-54 -3,-7 3,-18 13,-24 17,-10 19,-6 26,56 5,57 11,71 35,92 28,25 29,28 40,180 9,137 31,286 44,298 2,3 11,0 19,-7 11,-9 13,-50 8,-230 l -5,-218 63,-6 c 112,-12 107,-15 115,51 5,47 -2,103 -39,295 -43,221 -51,246 -111,387 l -65,151 -50,367 c -95,682 -139,966 -200,1267 -33,165 -85,437 -115,605 -31,168 -78,418 -105,555 -27,138 -70,363 -95,500 -25,138 -71,375 -101,529 -54,272 -59,330 -21,272 9,-14 147,-398 306,-854 260,-744 576,-1619 629,-1743 12,-27 37,-60 60,-79 l 40,-32 7,-116 7,-117 134,-358 134,-357 v -669 -669 l 113,-7 c 81,-5 117,-12 130,-23 15,-14 38,-16 130,-13 108,3 113,2 135,-22 17,-18 23,-34 20,-58 l -3,-34 -201,-5 -201,-5 211,-362 c 116,-199 214,-365 218,-368 4,-4 10,6 14,21 4,16 73,169 154,339 152,319 173,375 147,375 -8,0 -17,-7 -21,-15 -3,-9 -19,-15 -41,-15 -35,0 -35,0 -35,45 0,45 0,45 34,45 25,0 39,7 53,26 l 19,26 93,-17 92,-17 -6,-42 c -4,-22 -18,-55 -31,-73 -21,-28 -28,-31 -49,-23 -31,12 -34,-5 -4,-21 17,-9 20,-17 14,-46 -3,-19 -87,-208 -186,-419 -135,-291 -178,-391 -173,-410 8,-33 38,-31 66,6 18,25 29,30 65,30 38,0 46,-4 61,-30 14,-25 23,-30 56,-30 37,0 38,1 23,18 -19,21 -23,82 -5,100 8,8 8,15 -1,26 -16,19 -5,38 57,99 46,45 52,48 73,37 20,-10 22,-10 12,1 -7,7 -13,36 -13,65 0,34 -5,56 -15,64 -12,10 -14,24 -9,59 3,25 10,50 15,55 5,6 9,37 9,70 1,53 6,71 44,140 l 44,79 10,-44 9,-44 8,50 c 12,75 30,105 64,105 16,0 35,7 42,17 18,21 16,90 -4,129 -19,37 -15,44 28,44 18,0 38,7 45,15 28,34 150,3 150,-38 0,-9 5,-26 12,-36 9,-15 9,-28 -1,-59 -8,-22 -12,-45 -9,-52 2,-7 37,-32 78,-55 68,-39 75,-46 72,-72 -3,-41 30,-89 67,-96 42,-9 40,-34 -3,-43 -19,-3 -42,-14 -51,-24 -15,-17 -14,-19 16,-43 28,-22 33,-32 37,-81 7,-89 19,-74 26,33 7,87 10,102 32,122 24,22 24,24 24,223 l 1,201 29,35 c 17,19 30,40 30,47 0,7 -14,28 -31,48 l -31,35 6,103 7,102 -56,-102 c -31,-57 -63,-103 -71,-103 -18,0 -18,44 0,73 8,12 37,85 64,162 l 50,140 7,430 7,430 78,200 c 71,182 80,200 106,208 16,6 35,14 42,20 19,15 14,71 -8,100 l -20,25 39,108 c 31,88 43,110 61,114 21,5 21,7 6,19 -9,7 -16,21 -16,30 0,28 152,475 168,493 11,13 12,21 4,31 -8,9 -6,32 8,86 15,59 26,80 54,106 20,18 36,39 36,48 0,8 10,36 21,63 18,39 19,51 9,67 -10,17 -7,31 16,90 17,42 36,72 47,76 15,6 60,123 196,507 296,835 586,1634 592,1634 4,0 10,-187 14,-415 l 7,-414 472,5 c 410,5 469,4 453,-9 -15,-12 59,-15 575,-22 664,-8 638,-5 614,-73 -22,-62 -740,-1670 -881,-1973 -74,-157 -137,-303 -141,-325 -3,-21 -24,-79 -44,-129 -21,-49 -41,-105 -45,-123 -5,-24 -35,-63 -105,-135 l -98,-102 -7,-85 c -4,-47 -11,-90 -16,-95 -4,-6 -13,-32 -19,-58 -6,-27 -107,-262 -225,-523 -187,-412 -215,-480 -215,-523 0,-28 22,-130 49,-233 90,-335 179,-642 200,-691 12,-27 21,-58 21,-68 0,-19 7,-20 181,-18 l 181,2 27,-34 c 16,-20 62,-127 111,-256 82,-218 83,-223 65,-243 -10,-11 -31,-20 -48,-20 -29,0 -29,-1 -23,-38 3,-20 6,-43 6,-49 0,-10 32,-13 124,-13 h 124 l 7,121 c 6,100 10,119 22,115 8,-3 18,-6 23,-6 5,0 11,-30 15,-67 8,-88 21,-119 61,-149 28,-22 41,-25 101,-22 l 68,3 1,30 c 1,49 3,54 24,65 30,16 54,-1 90,-65 20,-35 38,-55 50,-55 9,0 23,-7 30,-15 14,-17 46,-20 55,-5 3,5 32,10 63,11 83,1 157,13 156,24 -3,36 9,47 46,42 34,-4 42,-1 78,37 32,32 43,52 49,91 8,47 10,50 40,53 25,3 35,-3 52,-27 12,-16 18,-36 15,-45 -8,-20 50,-76 77,-76 20,0 20,15 -2,84 -5,15 -6,33 -2,40 4,6 60,70 125,143 l 118,131 v 54 c 0,50 -2,55 -22,54 -14,-1 -23,5 -23,14 0,8 10,16 23,18 20,3 22,9 22,67 0,36 -7,85 -16,111 -26,76 0,132 43,93 20,-19 31,-21 156,-18 149,4 152,2 86,-51 -27,-21 -37,-36 -31,-42 6,-6 17,-6 29,1 11,5 109,102 218,215 180,188 200,205 224,199 14,-3 118,-50 231,-103 l 205,-97 10,66 c 6,36 13,71 18,78 4,6 25,14 47,17 22,3 58,9 80,12 l 40,6 v 84 84 l -47,2 c -27,0 -55,0 -63,-1 -87,-15 -88,-14 -95,17 -5,23 -13,32 -35,37 -38,8 -47,2 -55,-36 l -7,-31 -862,7 c -473,4 -865,11 -870,15 -12,12 15,96 83,255 36,85 66,141 76,145 12,4 124,240 321,675 246,542 301,672 292,685 -7,8 -20,25 -31,36 -18,22 -18,22 17,49 30,23 39,25 51,15 11,-9 19,-10 26,-3 5,5 108,230 228,499 225,505 349,778 648,1429 97,209 186,405 200,435 22,50 26,53 38,37 11,-16 18,-8 63,80 28,54 96,201 152,328 l 102,229 -25,21 c -13,11 -41,33 -62,49 -22,17 -48,51 -63,85 -26,54 -27,63 -30,281 -4,260 0,280 53,280 19,0 35,4 35,8 0,4 -20,27 -44,51 l -44,43 -7,119 -7,119 h -68 -68 l -7,-75 c -4,-51 -11,-75 -20,-75 -18,0 -32,20 -39,60 -20,100 -26,104 -241,120 -77,6 -152,13 -166,16 -22,5 -27,2 -33,-20 l -6,-26 h -954 c -796,0 -958,-2 -981,-14 -15,-8 -22,-17 -16,-21 18,-10 13,-33 -10,-46 -17,-9 -25,-8 -37,5 -14,13 -14,21 -5,46 l 11,30 h -470 c -430,0 -470,-1 -464,-16 4,-9 1,-23 -5,-30 -14,-17 -71,-18 -88,-1 -9,9 -60,11 -199,10 -103,-1 -196,2 -207,7 -53,22 -275,30 -882,30 -602,0 -642,-1 -647,-17 -3,-10 -98,-364 -211,-788 -113,-423 -220,-819 -237,-880 -17,-60 -31,-137 -32,-171 -2,-45 -9,-72 -28,-106 -15,-24 -63,-165 -106,-312 -75,-253 -93,-299 -108,-283 -4,4 -137,464 -296,1024 l -289,1018 -44,45 c -24,25 -47,57 -50,73 -4,15 -11,30 -16,33 -5,3 -9,14 -9,24 0,10 -16,40 -36,66 -24,31 -50,86 -74,158 l -37,111 -449,3 c -329,2 -455,-1 -471,-9 -16,-9 -80,-10 -230,-6 -114,4 -433,11 -708,17 -395,9 -503,14 -514,25 -17,17 -7,33 33,51 28,12 19,13 -99,12 -71,0 -206,-5 -300,-9 z m -225,-129 c 0,-5 -4,-10 -9,-10 -6,0 -13,5 -16,10 -3,6 1,10 9,10 9,0 16,-4 16,-10 z m 6145,-61 c 10,-15 -1,-23 -20,-15 -9,3 -13,10 -10,16 8,13 22,13 30,-1 z M 8268,8834 c 24,-17 29,-39 10,-50 -13,-8 -61,43 -53,57 8,13 17,11 43,-7 z m 4173,-54 c 23,-13 24,-38 3,-69 -10,-14 -23,-21 -35,-18 -10,3 -20,0 -22,-6 -5,-17 -71,6 -75,26 -2,9 10,31 26,47 32,31 68,38 103,20 z m 1744,-161 c 21,-26 25,-40 23,-78 -2,-35 -7,-47 -21,-49 -41,-8 -73,62 -60,132 7,35 25,33 58,-5 z m -9101,-50 c 6,-5 5,-18 -2,-33 -8,-18 -16,-23 -32,-19 -27,7 -47,53 -28,64 14,9 47,2 62,-12 z m 7232,-174 c 10,-24 -23,-65 -51,-65 -33,0 -50,32 -27,52 33,29 70,35 78,13 z M 4900,7924 c 0,-9 -5,-14 -12,-12 -18,6 -21,28 -4,28 9,0 16,-7 16,-16 z m 12510,-529 c 10,-13 9,-15 -9,-15 -12,0 -21,6 -21,15 0,8 4,15 9,15 5,0 14,-7 21,-15 z M 6312,7088 c -6,-6 -16,-7 -23,-3 -9,6 -7,12 7,22 21,15 34,-1 16,-19 z m 10638,-38 c 0,-37 -38,-80 -51,-59 -23,37 -3,89 33,89 13,0 18,-8 18,-30 z M 2806,6425 c 9,-23 -4,-65 -20,-65 -8,0 -22,7 -31,17 -15,15 -15,17 -1,25 9,5 16,16 16,23 0,20 29,19 36,0 z m 13865,-295 c 27,-15 26,-66 -2,-81 -33,-17 -47,14 -33,69 7,25 8,26 35,12 z M 8334,5376 c 28,-60 18,-76 -45,-76 -63,0 -85,32 -54,77 13,19 31,27 71,32 7,0 19,-14 28,-33 z m 926,-386 c 0,-5 -2,-10 -4,-10 -3,0 -8,5 -11,10 -3,6 -1,10 4,10 6,0 11,-4 11,-10 z m 7110,-45 c 0,-8 -4,-15 -10,-15 -5,0 -7,7 -4,15 4,8 8,15 10,15 2,0 4,-7 4,-15 z m -5535,-376 c 10,-30 -16,-47 -44,-30 -10,7 -11,13 -2,30 15,27 38,27 46,0 z M 9098,4388 c 21,-21 14,-38 -15,-38 -42,0 -60,15 -44,34 16,19 42,21 59,4 z m -318,-38 c 0,-11 -7,-20 -15,-20 -15,0 -21,21 -8,33 12,13 23,7 23,-13 z m 260,-40 c 0,-4 -6,-13 -14,-19 -18,-15 -41,10 -25,26 12,12 39,7 39,-7 z m -6300,-10 c 0,-5 -2,-10 -4,-10 -3,0 -8,5 -11,10 -3,6 -1,10 4,10 6,0 11,-4 11,-10 z m 7925,-70 c 3,-5 1,-10 -4,-10 -6,0 -11,5 -11,10 0,6 2,10 4,10 3,0 8,-4 11,-10 z m -1385,-71 c 0,-6 -4,-7 -10,-4 -5,3 -10,11 -10,16 0,6 5,7 10,4 6,-3 10,-11 10,-16 z m -392,-156 c 6,-58 -64,-123 -82,-77 -4,9 0,27 9,40 8,13 15,32 15,42 0,25 10,33 35,30 14,-2 21,-12 23,-35 z m -6148,-13 c 0,-25 -30,-79 -50,-90 -21,-11 -75,-5 -85,10 -8,13 36,61 69,76 37,16 66,18 66,4 z m 6095,-131 c -8,-12 -35,-12 -35,0 0,11 22,20 33,14 4,-2 5,-9 2,-14 z m -57,-91 c 12,-12 17,-68 7,-68 -17,0 -75,30 -75,39 0,10 38,41 50,41 3,0 11,-5 18,-12 z m 722,-28 c 21,-21 28,-46 9,-34 -7,4 -9,0 -5,-14 8,-24 -9,-39 -18,-16 -3,8 -10,13 -15,10 -5,-3 -11,12 -13,34 -4,46 10,52 42,20 z M 3276,3616 c 25,-19 8,-50 -30,-54 -22,-3 -26,1 -26,20 0,22 16,48 30,48 3,0 15,-6 26,-14 z m 5607,3 c 57,-26 59,-92 5,-132 -23,-17 -33,-19 -55,-11 -16,5 -28,17 -28,27 0,10 -6,21 -12,25 -22,14 3,79 35,90 15,6 28,11 29,11 1,1 13,-4 26,-10 z M 1540,3135 c 0,-12 -20,-35 -31,-35 -13,0 -19,64 -7,72 13,8 38,-16 38,-37 z m 10350,-16 c 0,-11 -6,-19 -14,-19 -9,0 -12,-7 -9,-19 3,-11 -2,-21 -12,-25 -27,-10 -35,2 -24,37 6,17 12,37 14,44 6,18 45,3 45,-18 z m -10470,6 c 14,-16 10,-18 -14,-9 -9,3 -16,10 -16,15 0,14 16,11 30,-6 z m 7270,6 c 0,-6 -4,-13 -10,-16 -5,-3 -10,1 -10,9 0,9 5,16 10,16 6,0 10,-4 10,-9 z m -6910,-42 c 0,-4 -10,-13 -22,-20 -18,-10 -20,-9 -15,6 4,9 7,21 7,26 0,4 7,6 15,3 8,-4 15,-10 15,-15 z m 15552,-51 c -9,-9 -15,-9 -24,0 -9,9 -7,12 12,12 19,0 21,-3 12,-12 z m -5992,-28 c -8,-5 -24,-10 -35,-10 -18,0 -18,2 5,20 16,12 28,16 35,9 6,-6 5,-13 -5,-19 z m -108,-5 c 6,-14 17,-25 23,-25 24,0 36,-26 25,-54 -21,-56 -100,-14 -100,54 0,20 3,40 7,43 14,14 34,6 45,-18 z m 5598,-75 c 0,-13 -5,-17 -21,-13 -26,7 -37,32 -18,43 17,11 39,-6 39,-30 z M 1657,2904 c -9,-9 -28,6 -21,18 4,6 10,6 17,-1 6,-6 8,-13 4,-17 z m 7153,-35 c 0,-10 -4,-20 -9,-23 -10,-7 -33,42 -25,55 8,14 34,-10 34,-32 z m 2968,12 c 19,-12 -19,-57 -41,-48 -21,8 -21,21 -1,41 18,18 24,19 42,7 z m -3201,-40 c 15,-19 15,-22 4,-39 -13,-21 -54,-10 -68,18 -23,47 31,65 64,21 z m 7817,-183 c 31,-27 43,-76 24,-100 -15,-20 -86,-39 -74,-20 4,6 -7,21 -24,33 -24,18 -30,30 -30,59 0,20 3,40 7,43 15,15 73,6 97,-15 z m -7689,-59 c -14,-14 -22,-16 -36,-8 -16,8 -17,14 -8,30 5,11 20,24 32,28 18,7 23,5 25,-11 2,-11 -4,-28 -13,-39 z m 245,41 c 0,-5 -5,-10 -11,-10 -5,0 -7,5 -4,10 3,6 8,10 11,10 2,0 4,-4 4,-10 z M 1566,2444 c -7,-19 -21,-18 -41,3 -21,21 -14,82 12,101 16,12 19,8 26,-38 5,-28 6,-58 3,-66 z m 7078,74 c 9,-37 -7,-88 -32,-96 -18,-6 -45,65 -38,102 5,27 10,31 34,31 22,-1 29,-8 36,-37 z m 254,10 c 27,-27 -1,-118 -36,-118 -17,1 -72,43 -72,57 0,14 64,73 80,73 9,0 21,-5 28,-12 z m -5158,-28 c 0,-5 -4,-10 -10,-10 -5,0 -10,5 -10,10 0,6 5,10 10,10 6,0 10,-4 10,-10 z m 5750,-80 c -21,-14 -27,-12 -34,7 -9,23 16,36 34,17 13,-13 13,-16 0,-24 z m -270,16 c 0,-21 -21,-31 -31,-15 -14,22 -11,29 11,29 11,0 20,-6 20,-14 z m -626,-52 c 9,-3 16,-15 16,-25 0,-15 -7,-19 -35,-19 -19,0 -35,2 -35,4 0,2 -3,11 -6,19 -5,14 5,20 38,26 3,0 13,-2 22,-5 z m 7684,-18 c 6,-14 21,-26 34,-28 17,-2 26,-14 36,-42 7,-21 11,-41 8,-43 -2,-2 -22,5 -45,17 -27,13 -41,27 -41,40 0,11 -6,20 -14,20 -19,0 -29,30 -15,46 16,20 24,17 37,-10 z m -7458,-21 c 21,-25 4,-45 -38,-45 -50,0 -76,25 -41,38 13,5 31,12 39,15 23,9 27,8 40,-8 z m 400,-25 c 0,-11 -7,-20 -15,-20 -8,0 -19,-9 -25,-20 -21,-39 -67,-11 -56,34 12,47 96,52 96,6 z m 76,-20 c 7,-24 11,-46 9,-48 -2,-2 -17,-1 -34,3 -28,6 -31,10 -31,44 0,68 36,69 56,1 z m -7626,6 c 0,-39 -24,-67 -34,-40 -3,8 -6,29 -6,45 0,22 5,29 20,29 16,0 20,-7 20,-34 z m 7180,-71 c 11,-13 8,-15 -13,-15 -19,0 -25,4 -21,15 4,8 10,15 14,15 4,0 13,-7 20,-15 z m 370,-21 c 0,-8 -9,-14 -20,-14 -19,0 -28,28 -13,43 9,9 33,-12 33,-29 z m -371,-33 c 11,-7 11,-14 -3,-42 -13,-27 -14,-39 -5,-68 10,-30 9,-36 -7,-48 -37,-28 -114,7 -114,51 0,11 22,41 51,68 55,51 57,52 78,39 z m 369,-72 c 2,-11 -4,-16 -18,-15 -11,0 -20,4 -20,9 0,4 0,12 0,18 0,17 34,6 38,-12 z m -573,-90 c 4,-6 5,-12 2,-15 -7,-7 -37,7 -37,17 0,13 27,11 35,-2 z m 6675,-99 c 6,-12 8,-30 5,-40 -8,-25 -61,-27 -87,-3 -18,16 -18,17 4,40 27,28 64,30 78,3 z m -6250,-11 c 0,-5 -4,-9 -10,-9 -5,0 -10,7 -10,16 0,8 5,12 10,9 6,-3 10,-10 10,-16 z m 6750,-90 c 0,-20 -25,-20 -42,1 -15,18 -16,25 -6,37 11,13 15,12 30,-7 10,-12 18,-26 18,-31 z"
         inkscape:connector-curvature="0"
         style="fill:url(#linearGradient904);fill-opacity:1" />
      <path
         id="path829"
         d="m 5310,8826 c 0,-10 9,-16 21,-16 24,0 21,23 -4,28 -10,2 -17,-3 -17,-12 z"
         inkscape:connector-curvature="0"
         style="fill:url(#linearGradient906);fill-opacity:1" />
      <path
         id="path831"
         d="m 3180,6459 c -21,-40 -21,-41 -2,-72 15,-25 25,-32 47,-30 40,3 60,25 46,51 -6,11 -11,29 -11,40 0,20 -29,52 -48,52 -6,0 -21,-18 -32,-41 z"
         inkscape:connector-curvature="0"
         style="fill:url(#linearGradient908);fill-opacity:1" />
      <path
         id="path833"
         d="m 3310,6181 c -5,-11 -10,-29 -10,-40 0,-23 34,-45 56,-37 28,11 10,96 -21,96 -8,0 -19,-9 -25,-19 z"
         inkscape:connector-curvature="0"
         style="fill:url(#linearGradient910);fill-opacity:1" />
      <path
         id="path835"
         d="m 1187,6030 c -13,-39 -28,-165 -23,-195 7,-38 17,-48 39,-40 11,5 13,24 11,93 -3,93 -17,168 -27,142 z"
         inkscape:connector-curvature="0"
         style="fill:url(#linearGradient912);fill-opacity:1" />
      <path
         id="path837"
         d="m 4032,4567 c -14,-17 3,-87 21,-87 21,0 37,22 37,50 0,43 -35,65 -58,37 z"
         inkscape:connector-curvature="0"
         style="fill:url(#linearGradient914);fill-opacity:1" />
      <path
         id="path839"
         d="m 12395,3729 c -10,-15 1,-23 20,-15 9,3 13,10 10,16 -8,13 -22,13 -30,-1 z"
         inkscape:connector-curvature="0"
         style="fill:url(#linearGradient916);fill-opacity:1" />
      <path
         id="path841"
         d="m 8430,3491 c 0,-49 14,-81 37,-81 11,0 14,6 9,23 -4,12 -9,34 -12,49 -4,15 -13,33 -20,39 -12,9 -14,4 -14,-30 z"
         inkscape:connector-curvature="0"
         style="fill:url(#linearGradient918);fill-opacity:1" />
      <path
         id="path843"
         d="m 13872,2933 c -108,-245 -113,-259 -110,-316 3,-57 5,-61 33,-70 44,-14 75,-46 75,-78 0,-15 -4,-31 -10,-34 -5,-3 -10,-17 -10,-30 0,-21 5,-24 66,-30 59,-7 67,-5 88,14 22,20 28,21 67,11 38,-10 149,-6 149,6 0,2 -7,22 -16,44 -9,23 -13,51 -10,65 5,19 -24,120 -100,348 -58,177 -107,323 -108,324 -1,1 -52,-113 -114,-254 z"
         inkscape:connector-curvature="0"
         style="fill:url(#linearGradient920);fill-opacity:1" />
      <path
         id="path845"
         d="m 7683,2966 c -13,-6 -23,-18 -23,-28 0,-9 -4,-20 -10,-23 -5,-3 -10,-14 -10,-24 0,-14 10,-20 45,-24 82,-9 82,-7 90,-268 4,-126 12,-232 17,-235 4,-3 13,8 19,25 12,33 27,39 47,19 14,-14 16,-67 3,-101 -6,-14 -15,-63 -21,-109 -6,-45 -17,-89 -23,-96 -15,-19 -19,-112 -5,-139 8,-16 8,-34 -1,-69 -7,-29 -8,-51 -3,-56 6,-6 69,-5 163,1 188,14 229,20 235,35 7,17 -24,87 -51,116 -14,15 -25,45 -30,74 -7,49 -72,244 -115,344 -22,50 -40,60 -40,22 0,-24 -40,-36 -69,-20 -31,16 -26,39 20,86 l 41,42 -54,163 -53,164 -60,10 c -59,10 -59,11 -72,54 -7,24 -14,45 -15,45 -2,1 -13,-3 -25,-8 z"
         inkscape:connector-curvature="0"
         style="fill:url(#linearGradient922);fill-opacity:1" />
      <path
         id="path847"
         d="m 8275,2950 c 3,-5 8,-10 11,-10 2,0 4,5 4,10 0,6 -5,10 -11,10 -5,0 -7,-4 -4,-10 z"
         inkscape:connector-curvature="0"
         style="fill:url(#linearGradient924);fill-opacity:1" />
      <path
         id="path849"
         d="m 17895,2950 c -8,-13 3,-50 15,-50 12,0 23,37 15,50 -3,5 -10,10 -15,10 -5,0 -12,-5 -15,-10 z"
         inkscape:connector-curvature="0"
         style="fill:url(#linearGradient926);fill-opacity:1" />
      <path
         id="path851"
         d="m 2460,2916 c 0,-8 5,-18 10,-21 6,-3 10,1 10,9 0,8 -4,18 -10,21 -5,3 -10,-1 -10,-9 z"
         inkscape:connector-curvature="0"
         style="fill:url(#linearGradient928);fill-opacity:1" />
      <path
         id="path853"
         d="m 10546,2615 6,-260 29,-30 c 36,-39 36,-64 0,-141 l -29,-61 19,-42 c 12,-27 28,-45 46,-52 15,-6 36,-17 45,-26 41,-37 208,57 223,125 3,17 15,32 30,38 24,9 23,9 -62,164 -142,258 -281,504 -298,525 -14,18 -15,-2 -9,-240 z"
         inkscape:connector-curvature="0"
         style="fill:url(#linearGradient930);fill-opacity:1" />
      <path
         id="path855"
         d="m 10126,2789 c 9,-60 24,-73 24,-22 0,24 -6,46 -15,53 -14,12 -15,8 -9,-31 z"
         inkscape:connector-curvature="0"
         style="fill:url(#linearGradient932);fill-opacity:1" />
      <path
         id="path857"
         d="m 16536,2496 c -3,-14 -3,-63 0,-110 6,-80 8,-85 26,-75 27,15 33,36 14,54 -21,21 -21,22 13,39 18,10 31,12 38,5 6,-6 17,-1 32,15 19,20 21,29 14,57 -9,33 -10,34 -70,37 -57,3 -61,2 -67,-22 z"
         inkscape:connector-curvature="0"
         style="fill:url(#linearGradient934);fill-opacity:1" />
      <path
         id="path859"
         d="m 10087,2489 c 7,-7 15,-10 18,-7 3,3 -2,9 -12,12 -14,6 -15,5 -6,-5 z"
         inkscape:connector-curvature="0"
         style="fill:url(#linearGradient936);fill-opacity:1" />
      <path
         id="path861"
         d="m 10127,2460 c -3,-13 0,-20 9,-20 8,0 14,9 14,20 0,11 -4,20 -9,20 -5,0 -11,-9 -14,-20 z"
         inkscape:connector-curvature="0"
         style="fill:url(#linearGradient938);fill-opacity:1" />
      <path
         id="path863"
         d="m 1313,2438 c -20,-21 -22,-31 -16,-78 7,-63 17,-80 46,-80 16,0 18,3 9,12 -19,19 -14,49 8,55 27,7 26,50 -3,86 l -22,28 z"
         inkscape:connector-curvature="0"
         style="fill:url(#linearGradient940);fill-opacity:1" />
      <path
         id="path865"
         d="m 14266,2411 c -15,-6 -16,-10 -7,-15 8,-5 20,-2 29,8 17,17 9,19 -22,7 z"
         inkscape:connector-curvature="0"
         style="fill:url(#linearGradient942);fill-opacity:1" />
      <path
         id="path867"
         d="m 6180,2371 c -6,-12 -7,-21 -1,-21 10,0 24,30 17,37 -2,3 -9,-5 -16,-16 z"
         inkscape:connector-curvature="0"
         style="fill:url(#linearGradient944);fill-opacity:1" />
      <path
         id="path869"
         d="m 4335,2370 c 3,-5 14,-10 23,-10 15,0 15,2 2,10 -20,13 -33,13 -25,0 z"
         inkscape:connector-curvature="0"
         style="fill:url(#linearGradient946);fill-opacity:1" />
      <path
         id="path871"
         d="m 5905,2360 c -10,-11 -13,-20 -8,-20 13,0 38,29 31,35 -3,3 -13,-4 -23,-15 z"
         inkscape:connector-curvature="0"
         style="fill:url(#linearGradient948);fill-opacity:1" />
      <path
         id="path873"
         d="m 6325,2339 c -12,-19 5,-23 22,-6 16,16 16,17 1,17 -9,0 -20,-5 -23,-11 z"
         inkscape:connector-curvature="0"
         style="fill:url(#linearGradient950);fill-opacity:1" />
      <path
         id="path875"
         d="m 9725,2341 c -3,-5 -1,-12 5,-16 5,-3 10,1 10,9 0,18 -6,21 -15,7 z"
         inkscape:connector-curvature="0"
         style="fill:url(#linearGradient952);fill-opacity:1" />
      <path
         id="path877"
         d="m 12281,2200 c 0,-80 -6,-174 -12,-209 -8,-53 -7,-67 5,-79 12,-13 15,-5 21,59 3,41 2,142 -3,224 l -9,150 z"
         inkscape:connector-curvature="0"
         style="fill:url(#linearGradient954);fill-opacity:1" />
      <path
         id="path879"
         d="m 4140,2312 c 0,-22 72,-56 161,-77 33,-7 66,-19 74,-25 20,-17 101,7 125,38 38,47 20,82 -41,82 -35,0 -69,-20 -69,-41 0,-5 -22,-9 -48,-9 -26,0 -53,-5 -58,-10 -17,-17 -63,6 -74,35 -7,19 -17,25 -40,25 -22,0 -30,-5 -30,-18 z"
         inkscape:connector-curvature="0"
         style="fill:url(#linearGradient956);fill-opacity:1" />
      <path
         id="path881"
         d="m 12072,2272 c -16,-35 -15,-77 3,-92 8,-7 15,-17 15,-23 0,-5 13,-38 29,-71 16,-34 35,-81 42,-104 10,-34 17,-42 36,-42 21,0 23,4 23,53 0,37 -3,48 -10,37 -14,-22 -44,0 -48,36 -3,22 -68,221 -76,231 -1,1 -7,-10 -14,-25 z"
         inkscape:connector-curvature="0"
         style="fill:url(#linearGradient958);fill-opacity:1" />
      <path
         id="path883"
         d="m 4157,2153 c -4,-3 -7,-12 -7,-20 0,-20 28,-15 40,7 9,17 8,20 -8,20 -10,0 -22,-3 -25,-7 z"
         inkscape:connector-curvature="0"
         style="fill:url(#linearGradient960);fill-opacity:1" />
      <path
         id="path885"
         d="m 5552,2107 c 3,-24 21,-27 26,-4 2,8 -4,17 -13,21 -13,4 -16,1 -13,-17 z"
         inkscape:connector-curvature="0"
         style="fill:url(#linearGradient962);fill-opacity:1" />
      <path
         id="path887"
         d="m 7616,2069 c -11,-32 -11,-269 0,-269 6,0 26,3 44,6 l 32,7 -4,103 c -3,101 -4,104 -35,136 -24,24 -33,28 -37,17 z"
         inkscape:connector-curvature="0"
         style="fill:url(#linearGradient964);fill-opacity:1" />
      <path
         id="path889"
         d="m 11650,2016 c 0,-8 -12,-29 -27,-47 l -28,-32 34,6 c 18,4 37,7 42,7 5,0 9,18 9,40 0,29 -4,40 -15,40 -8,0 -15,-6 -15,-14 z"
         inkscape:connector-curvature="0"
         style="fill:url(#linearGradient966);fill-opacity:1" />
      <path
         id="path891"
         d="m 2360,1931 c 0,-5 -9,-13 -20,-16 -17,-5 -20,-15 -20,-72 0,-55 2,-64 16,-59 9,3 18,6 20,6 2,0 4,11 4,24 0,18 8,27 30,35 35,12 38,25 10,48 -11,10 -20,23 -20,30 0,7 -4,13 -10,13 -5,0 -10,-4 -10,-9 z"
         inkscape:connector-curvature="0"
         style="fill:url(#linearGradient968);fill-opacity:1" />
      <path
         id="path893"
         d="m 2255,1875 c 0,-30 6,-60 13,-67 11,-11 12,-1 10,51 -4,80 -25,95 -23,16 z"
         inkscape:connector-curvature="0"
         style="fill:url(#linearGradient970);fill-opacity:1" />
      <path
         id="path895"
         d="m 5540,1921 c 0,-5 -2,-15 -5,-23 -3,-7 1,-22 9,-33 14,-19 15,-17 16,23 0,23 -4,42 -10,42 -5,0 -10,-4 -10,-9 z"
         inkscape:connector-curvature="0"
         style="fill:url(#linearGradient972);fill-opacity:1" />
      <path
         id="path897"
         d="m 7216,1914 c -3,-9 -6,-26 -6,-39 0,-13 -10,-31 -22,-40 -16,-12 -19,-19 -11,-22 8,-3 11,-14 7,-30 -6,-23 -5,-24 15,-14 17,9 21,21 21,59 0,26 7,56 15,66 8,11 15,23 15,28 0,15 -28,8 -34,-8 z"
         inkscape:connector-curvature="0"
         style="fill:url(#linearGradient974);fill-opacity:1" />
      <path
         id="path899"
         d="m 11122,1888 c -16,-16 -16,-71 1,-65 6,2 12,20 12,40 0,21 0,37 0,37 -1,0 -6,-5 -13,-12 z"
         inkscape:connector-curvature="0"
         style="fill:url(#linearGradient976);fill-opacity:1" />
      <path
         id="path901"
         d="m 10632,1842 c -20,-13 -27,-14 -44,-3 -17,11 -22,10 -29,-1 -12,-18 -11,-24 6,-38 18,-15 20,-41 4,-57 -8,-8 12,-13 70,-18 76,-7 81,-9 81,-30 0,-21 -5,-23 -80,-30 -75,-7 -80,-9 -80,-30 0,-21 5,-23 81,-30 75,-7 87,-5 153,21 86,34 81,31 68,47 -14,16 3,37 29,37 22,0 41,24 34,43 -4,8 -19,17 -34,20 -26,5 -144,-6 -194,-18 -17,-5 -26,-2 -30,9 -5,13 2,16 38,16 51,0 58,15 23,47 -32,29 -68,35 -96,15 z"
         inkscape:connector-curvature="0"
         style="fill:url(#linearGradient978);fill-opacity:1" />
      <path
         id="path903"
         d="m 9960,1825 c -11,-13 -6,-15 33,-15 47,0 69,13 41,24 -27,11 -61,6 -74,-9 z"
         inkscape:connector-curvature="0"
         style="fill:url(#linearGradient980);fill-opacity:1" />
      <path
         id="path905"
         d="m 5530,1760 c 0,-5 5,-10 11,-10 5,0 7,5 4,10 -3,6 -8,10 -11,10 -2,0 -4,-4 -4,-10 z"
         inkscape:connector-curvature="0"
         style="fill:url(#linearGradient982);fill-opacity:1" />
      <path
         id="path907"
         d="m 11123,1640 c 4,-18 7,-39 7,-46 0,-15 45,-20 54,-6 2,4 -12,25 -31,46 l -36,39 z"
         inkscape:connector-curvature="0"
         style="fill:url(#linearGradient984);fill-opacity:1" />
      <path
         id="path909"
         d="m 11015,1650 c -3,-5 3,-10 15,-10 12,0 18,5 15,10 -3,6 -10,10 -15,10 -5,0 -12,-4 -15,-10 z"
         inkscape:connector-curvature="0"
         style="fill:url(#linearGradient986);fill-opacity:1" />
      <path
         id="path911"
         d="m 11252,1598 c 3,-7 15,-14 29,-16 23,-2 23,-2 5,13 -24,18 -39,20 -34,3 z"
         inkscape:connector-curvature="0"
         style="fill:url(#linearGradient988);fill-opacity:1" />
    </g>
    <flowRoot
       xml:space="preserve"
       id="flowRoot967"
       style="font-style:normal;font-weight:normal;font-size:40px;line-height:1.25;font-family:sans-serif;letter-spacing:0px;word-spacing:0px;fill:#000000;fill-opacity:1;stroke:none"
       transform="scale(0.26458333)"><flowRegion
         id="flowRegion969"><rect
           id="rect971"
           width="794.28571"
           height="268.57144"
           x="-348.57144"
           y="942.51971" /></flowRegion><flowPara
         id="flowPara973" /></flowRoot>    <g
       aria-label="&gt;./dayz-ctl"
       transform="matrix(1.0521455,0,0,0.95043889,202.09702,-18.520834)"
       style="font-style:normal;font-variant:normal;font-weight:bold;font-stretch:normal;font-size:72.94033051px;line-height:1.25;font-family:'JetBrains Mono';-inkscape-font-specification:'JetBrains Mono, Bold';font-variant-ligatures:normal;font-variant-caps:normal;font-variant-numeric:normal;font-feature-settings:normal;text-align:start;letter-spacing:0px;word-spacing:0px;writing-mode:lr-tb;text-anchor:start;fill:#232d23;fill-opacity:0.90019579;stroke:#385a41;stroke-width:1.82353556;stroke-linecap:round;stroke-linejoin:bevel;stroke-opacity:0.6320939;paint-order:stroke fill markers"
       id="text987">
      <path
         d="m -532.45196,-233.67576 v -8.46108 l 21.1527,-9.4093 q 1.02116,-0.43764 1.96939,-0.65646 1.02116,-0.29176 1.82351,-0.43764 0.87528,-0.0729 1.75056,-0.14588 v -0.58353 q -0.87528,-0.0729 -1.75056,-0.29176 -0.80235,-0.14588 -1.82351,-0.3647 -0.94823,-0.29176 -1.96939,-0.7294 l -21.1527,-9.40931 v -8.53401 l 32.67727,14.95276 v 9.11754 z"
         style="font-style:normal;font-variant:normal;font-weight:bold;font-stretch:normal;font-size:72.94033051px;font-family:'JetBrains Mono';-inkscape-font-specification:'JetBrains Mono, Bold';font-variant-ligatures:normal;font-variant-caps:normal;font-variant-numeric:normal;font-feature-settings:normal;text-align:start;writing-mode:lr-tb;text-anchor:start;fill:#232d23;fill-opacity:0.90019579;stroke:#385a41;stroke-width:1.82353556;stroke-linecap:round;stroke-linejoin:bevel;stroke-opacity:0.6320939;paint-order:stroke fill markers"
         id="path874"
         inkscape:connector-curvature="0" />
      <path
         d="m -479.42445,-235.57221 q 0,-3.28231 1.89645,-5.17876 1.96939,-1.96939 5.17876,-1.96939 3.28232,0 5.17877,1.96939 1.89645,1.89645 1.89645,5.17876 0,3.20938 -1.89645,5.17877 -1.89645,1.96939 -5.17877,1.96939 -3.20937,0 -5.17876,-1.96939 -1.89645,-1.96939 -1.89645,-5.17877 z"
         style="font-style:normal;font-variant:normal;font-weight:bold;font-stretch:normal;font-size:72.94033051px;font-family:'JetBrains Mono';-inkscape-font-specification:'JetBrains Mono, Bold';font-variant-ligatures:normal;font-variant-caps:normal;font-variant-numeric:normal;font-feature-settings:normal;text-align:start;writing-mode:lr-tb;text-anchor:start;fill:#232d23;fill-opacity:0.90019579;stroke:#385a41;stroke-width:1.82353556;stroke-linecap:round;stroke-linejoin:bevel;stroke-opacity:0.6320939;paint-order:stroke fill markers"
         id="path876"
         inkscape:connector-curvature="0" />
      <path
         d="m -420.56171,-289.69393 h 9.48224 l -25.45617,68.56391 h -9.55519 z"
         style="font-style:normal;font-variant:normal;font-weight:bold;font-stretch:normal;font-size:72.94033051px;font-family:'JetBrains Mono';-inkscape-font-specification:'JetBrains Mono, Bold';font-variant-ligatures:normal;font-variant-caps:normal;font-variant-numeric:normal;font-feature-settings:normal;text-align:start;writing-mode:lr-tb;text-anchor:start;fill:#232d23;fill-opacity:0.90019579;stroke:#385a41;stroke-width:1.82353556;stroke-linecap:round;stroke-linejoin:bevel;stroke-opacity:0.6320939;paint-order:stroke fill markers"
         id="path878"
         inkscape:connector-curvature="0" />
      <path
         d="m -402.2538,-254.31787 q 0,-3.64702 0.94823,-6.49169 1.02116,-2.91761 2.84467,-4.95994 1.82351,-2.04233 4.37642,-3.13644 2.55291,-1.0941 5.61641,-1.0941 4.37642,0 7.22109,2.04233 2.84467,2.04233 3.50114,5.6164 h 0.7294 q -0.0729,-1.23998 -0.14588,-2.47997 -0.14588,-1.0941 -0.21882,-2.26115 0,-1.23999 0,-2.18821 v -12.39986 h 9.11754 v 52.51704 h -8.75284 v -7.00227 h -0.7294 q -0.65647,3.64702 -3.50114,5.68935 -2.84467,2.04233 -7.22109,2.04233 -3.0635,0 -5.61641,-1.09411 -2.55291,-1.0941 -4.37642,-3.13643 -1.82351,-2.11527 -2.84467,-5.03289 -0.94823,-2.99055 -0.94823,-6.63757 z m 9.11755,0.21882 v 9.55518 q 0,3.71996 2.11527,5.98111 2.11527,2.18821 5.83522,2.18821 3.57408,0 5.68935,-2.18821 2.11527,-2.18821 2.11527,-5.76229 v -9.774 q 0,-3.64702 -2.18821,-5.83523 -2.11527,-2.18821 -5.61641,-2.18821 -3.71995,0 -5.83522,2.18821 -2.11527,2.11527 -2.11527,5.83523 z"
         style="font-style:normal;font-variant:normal;font-weight:bold;font-stretch:normal;font-size:72.94033051px;font-family:'JetBrains Mono';-inkscape-font-specification:'JetBrains Mono, Bold';font-variant-ligatures:normal;font-variant-caps:normal;font-variant-numeric:normal;font-feature-settings:normal;text-align:start;writing-mode:lr-tb;text-anchor:start;fill:#232d23;fill-opacity:0.90019579;stroke:#385a41;stroke-width:1.82353556;stroke-linecap:round;stroke-linejoin:bevel;stroke-opacity:0.6320939;paint-order:stroke fill markers"
         id="path880"
         inkscape:connector-curvature="0" />
      <path
         d="m -359.21911,-240.38627 q 0,-2.99055 1.0941,-5.32464 1.09411,-2.40703 3.13643,-4.08466 2.04233,-1.67763 4.88701,-2.55291 2.91761,-0.94823 6.49169,-0.94823 h 10.06576 v -3.42819 q 0,-2.77174 -2.11527,-4.37642 -2.04233,-1.67763 -5.76228,-1.67763 -2.99056,0 -5.03289,1.0941 -2.04233,1.09411 -2.62585,2.99056 h -8.89872 q 0.43764,-2.62585 1.82351,-4.66818 1.38587,-2.11527 3.57408,-3.57408 2.18821,-1.45881 5.03288,-2.26115 2.84467,-0.80234 6.19993,-0.80234 3.86583,0 7.00227,0.94822 3.13643,0.87529 5.32464,2.62585 2.18821,1.67763 3.35526,4.1576 1.23998,2.40703 1.23998,5.39759 v 27.71732 h -8.60696 v -7.87755 H -333.69 q -0.65646,3.93877 -4.08466,6.27287 -3.42819,2.33409 -8.53402,2.33409 -5.90816,0 -9.4093,-3.20938 -3.50113,-3.28231 -3.50113,-8.75284 z m 9.11754,-1.0941 q 0,2.77173 1.8235,4.37642 1.89645,1.53174 5.25171,1.53174 4.08466,0 6.78345,-1.96939 2.69879,-2.04232 2.69879,-5.10582 v -4.66818 h -9.99282 q -3.0635,0 -4.81407,1.53175 -1.75056,1.53174 -1.75056,4.30348 z"
         style="font-style:normal;font-variant:normal;font-weight:bold;font-stretch:normal;font-size:72.94033051px;font-family:'JetBrains Mono';-inkscape-font-specification:'JetBrains Mono, Bold';font-variant-ligatures:normal;font-variant-caps:normal;font-variant-numeric:normal;font-feature-settings:normal;text-align:start;writing-mode:lr-tb;text-anchor:start;fill:#232d23;fill-opacity:0.90019579;stroke:#385a41;stroke-width:1.82353556;stroke-linecap:round;stroke-linejoin:bevel;stroke-opacity:0.6320939;paint-order:stroke fill markers"
         id="path882"
         inkscape:connector-curvature="0" />
      <path
         d="m -316.62208,-269.27064 h 9.99283 l 7.87755,21.37152 q 0.51059,1.31292 0.80235,2.77173 0.3647,1.38587 0.51058,2.62585 0.21882,1.38587 0.3647,2.77173 h 0.58352 q 0.0729,-1.31292 0.29177,-2.77173 0.14588,-1.23998 0.43764,-2.62585 0.29176,-1.45881 0.7294,-2.77173 l 7.43992,-21.37152 h 9.62812 l -19.11037,52.51704 h -9.62812 l 5.54346,-14.66101 z"
         style="font-style:normal;font-variant:normal;font-weight:bold;font-stretch:normal;font-size:72.94033051px;font-family:'JetBrains Mono';-inkscape-font-specification:'JetBrains Mono, Bold';font-variant-ligatures:normal;font-variant-caps:normal;font-variant-numeric:normal;font-feature-settings:normal;text-align:start;writing-mode:lr-tb;text-anchor:start;fill:#232d23;fill-opacity:0.90019579;stroke:#385a41;stroke-width:1.82353556;stroke-linecap:round;stroke-linejoin:bevel;stroke-opacity:0.6320939;paint-order:stroke fill markers"
         id="path884"
         inkscape:connector-curvature="0" />
      <path
         d="m -270.23213,-237.76042 21.95504,-23.63266 v -0.43765 q -0.87528,0.14588 -1.8235,0.21883 -0.80235,0.14588 -1.82351,0.21882 -1.02117,0.0729 -2.18821,0.0729 h -15.53629 v -7.9505 h 32.0208 v 8.6799 l -22.10092,23.63267 v 0.51058 q 0.87529,-0.21882 1.82351,-0.3647 0.87528,-0.14588 1.89645,-0.21882 1.0941,-0.0729 2.11527,-0.0729 h 17.06804 v 7.95049 h -33.40668 z"
         style="font-style:normal;font-variant:normal;font-weight:bold;font-stretch:normal;font-size:72.94033051px;font-family:'JetBrains Mono';-inkscape-font-specification:'JetBrains Mono, Bold';font-variant-ligatures:normal;font-variant-caps:normal;font-variant-numeric:normal;font-feature-settings:normal;text-align:start;writing-mode:lr-tb;text-anchor:start;fill:#232d23;fill-opacity:0.90019579;stroke:#385a41;stroke-width:1.82353556;stroke-linecap:round;stroke-linejoin:bevel;stroke-opacity:0.6320939;paint-order:stroke fill markers"
         id="path886"
         inkscape:connector-curvature="0" />
      <path
         d="m -224.35279,-257.45431 h 29.17614 v 8.38814 h -29.17614 z"
         style="font-style:normal;font-variant:normal;font-weight:bold;font-stretch:normal;font-size:72.94033051px;font-family:'JetBrains Mono';-inkscape-font-specification:'JetBrains Mono, Bold';font-variant-ligatures:normal;font-variant-caps:normal;font-variant-numeric:normal;font-feature-settings:normal;text-align:start;writing-mode:lr-tb;text-anchor:start;fill:#232d23;fill-opacity:0.90019579;stroke:#385a41;stroke-width:1.82353556;stroke-linecap:round;stroke-linejoin:bevel;stroke-opacity:0.6320939;paint-order:stroke fill markers"
         id="path888"
         inkscape:connector-curvature="0" />
      <path
         d="m -165.56298,-228.42405 q -3.93878,0 -7.14815,-1.09411 -3.20938,-1.0941 -5.47053,-3.13643 -2.26115,-2.04233 -3.50113,-4.88701 -1.23999,-2.91761 -1.23999,-6.49169 v -10.28458 q 0,-3.57408 1.23999,-6.41875 1.23998,-2.91761 3.50113,-4.95994 2.26115,-2.04233 5.47053,-3.13644 3.20937,-1.16704 7.14815,-1.16704 3.50114,0 6.49169,1.02116 2.99055,0.94823 5.2517,2.84467 2.26115,1.82351 3.71996,4.44936 1.53175,2.55292 2.04233,5.83523 h -9.11754 q -0.51058,-2.77173 -2.77173,-4.44936 -2.26115,-1.75057 -5.61641,-1.75057 -3.86584,0 -6.05405,2.04233 -2.18821,2.04233 -2.18821,5.68935 v 10.28458 q 0,3.57408 2.11527,5.61641 2.18821,2.04233 6.12699,2.04233 3.28232,0 5.54347,-1.67763 2.33409,-1.75057 2.84467,-4.5223 h 9.11754 q -0.51058,3.28232 -2.04233,5.90817 -1.45881,2.55291 -3.7929,4.44936 -2.26115,1.82351 -5.2517,2.84467 -2.91761,0.94823 -6.41875,0.94823 z"
         style="font-style:normal;font-variant:normal;font-weight:bold;font-stretch:normal;font-size:72.94033051px;font-family:'JetBrains Mono';-inkscape-font-specification:'JetBrains Mono, Bold';font-variant-ligatures:normal;font-variant-caps:normal;font-variant-numeric:normal;font-feature-settings:normal;text-align:start;writing-mode:lr-tb;text-anchor:start;fill:#232d23;fill-opacity:0.90019579;stroke:#385a41;stroke-width:1.82353556;stroke-linecap:round;stroke-linejoin:bevel;stroke-opacity:0.6320939;paint-order:stroke fill markers"
         id="path890"
         inkscape:connector-curvature="0" />
      <path
         d="m -140.83631,-269.27064 h 11.08693 v -12.39986 h 9.11754 v 12.39986 h 15.24453 v 8.24226 h -15.24453 v 19.47507 q 0,1.89644 1.09411,3.06349 1.16704,1.09411 3.20937,1.09411 h 10.21165 v 8.24225 h -10.86811 q -5.90817,0 -9.33636,-3.35525 -3.4282,-3.35526 -3.4282,-9.0446 v -19.47507 h -11.08693 z"
         style="font-style:normal;font-variant:normal;font-weight:bold;font-stretch:normal;font-size:72.94033051px;font-family:'JetBrains Mono';-inkscape-font-specification:'JetBrains Mono, Bold';font-variant-ligatures:normal;font-variant-caps:normal;font-variant-numeric:normal;font-feature-settings:normal;text-align:start;writing-mode:lr-tb;text-anchor:start;fill:#232d23;fill-opacity:0.90019579;stroke:#385a41;stroke-width:1.82353556;stroke-linecap:round;stroke-linejoin:bevel;stroke-opacity:0.6320939;paint-order:stroke fill markers"
         id="path892"
         inkscape:connector-curvature="0" />
      <path
         d="m -98.093403,-273.72 v -8.24226 h 21.882099 v 39.82542 q 0,2.26115 1.239986,3.50114 1.312926,1.23999 3.428195,1.23999 h 11.962215 v 8.24225 h -12.618678 q -6.126987,0 -9.628123,-3.42819 -3.501136,-3.4282 -3.501136,-9.55519 V -273.72 Z"
         style="font-style:normal;font-variant:normal;font-weight:bold;font-stretch:normal;font-size:72.94033051px;font-family:'JetBrains Mono';-inkscape-font-specification:'JetBrains Mono, Bold';font-variant-ligatures:normal;font-variant-caps:normal;font-variant-numeric:normal;font-feature-settings:normal;text-align:start;writing-mode:lr-tb;text-anchor:start;fill:#232d23;fill-opacity:0.90019579;stroke:#385a41;stroke-width:1.82353556;stroke-linecap:round;stroke-linejoin:bevel;stroke-opacity:0.6320939;paint-order:stroke fill markers"
         id="path894"
         inkscape:connector-curvature="0" />
    </g>
  </g>
</svg>
