<?xml version="1.0" encoding="UTF-8" standalone="no"?>
<!-- Created with Inkscape (http://www.inkscape.org/) -->

<svg
   xmlns:dc="http://purl.org/dc/elements/1.1/"
   xmlns:cc="http://creativecommons.org/ns#"
   xmlns:rdf="http://www.w3.org/1999/02/22-rdf-syntax-ns#"
   xmlns:svg="http://www.w3.org/2000/svg"
   xmlns="http://www.w3.org/2000/svg"
   xmlns:xlink="http://www.w3.org/1999/xlink"
   xmlns:sodipodi="http://sodipodi.sourceforge.net/DTD/sodipodi-0.dtd"
   xmlns:inkscape="http://www.inkscape.org/namespaces/inkscape"
   width="512"
   height="512"
   id="svg2"
   version="1.1"
   inkscape:version="0.92.5 (2060ec1f9f, 2020-04-08)"
   sodipodi:docname="dayz-ctl-logo.svg">
  <sodipodi:namedview
     id="base"
     pagecolor="#ffffff"
     bordercolor="#666666"
     borderopacity="1.0"
     inkscape:pageopacity="0.0"
     inkscape:pageshadow="2"
     inkscape:zoom="1"
     inkscape:cx="-265.47203"
     inkscape:cy="166.0664"
     inkscape:document-units="px"
     inkscape:current-layer="layer2"
     showgrid="false"
     inkscape:window-width="2560"
     inkscape:window-height="1379"
     inkscape:window-x="0"
     inkscape:window-y="33"
     inkscape:window-maximized="1"
     inkscape:object-paths="false"
     inkscape:snap-intersection-paths="false"
     inkscape:object-nodes="true"
     inkscape:snap-smooth-nodes="true"
     inkscape:snap-nodes="true"
     showguides="false"
     inkscape:guide-bbox="true">
    <sodipodi:guide
       id="guide3364"
       position="237.6647,386.58765"
       orientation="0,1"
       inkscape:locked="false" />
    <sodipodi:guide
       id="guide3366"
       position="187.68372,116.2823"
       orientation="0,1"
       inkscape:locked="false" />
    <sodipodi:guide
       id="guide3368"
       position="395.76783,216.24428"
       orientation="1,0"
       inkscape:locked="false" />
    <sodipodi:guide
       id="guide3370"
       position="125.46248,237.6647"
       orientation="1,0"
       inkscape:locked="false" />
    <inkscape:grid
       id="grid4648"
       type="xygrid" />
  </sodipodi:namedview>
  <defs
     id="defs4">
    <linearGradient
       id="linearGradient4673"
       y2="44.984001"
       gradientUnits="userSpaceOnUse"
       x2="19.360001"
       y1="21.030804"
       x1="19.244999">
      <stop
         id="stop4675"
         style="stop-color:#ffffff;stop-opacity:1;"
         offset="0" />
      <stop
         id="stop4677"
         style="stop-color:#efefef;stop-opacity:1;"
         offset="1" />
    </linearGradient>
    <linearGradient
       x1="19.244999"
       y1="21.030804"
       x2="19.360001"
       gradientUnits="userSpaceOnUse"
       y2="44.984001"
       id="linearGradient4667">
      <stop
         offset="0"
         style="stop-color:#00aad8;stop-opacity:1;"
         id="stop4669" />
      <stop
         offset="1"
         style="stop-color:#006fa6;stop-opacity:1;"
         id="stop4671" />
    </linearGradient>
    <radialGradient
       inkscape:collect="always"
       xlink:href="#linearGradient3853"
       id="radialGradient21898"
       cx="255.99385"
       cy="256"
       fx="255.99385"
       fy="256"
       r="216"
       gradientUnits="userSpaceOnUse" />
    <linearGradient
       id="linearGradient3853"
       gradientUnits="userSpaceOnUse"
       x1="64.477501"
       y1="56.3008"
       x2="78.466103"
       y2="48.0854">
      <stop
         offset="0"
         style="stop-color:#d8222c;stop-opacity:1;"
         id="stop3857" />
      <stop
         offset="1"
         style="stop-color:#dc2831;stop-opacity:1;"
         id="stop3859" />
    </linearGradient>
    <radialGradient
       inkscape:collect="always"
       xlink:href="#linearGradient3853"
       id="radialGradient3010"
       gradientUnits="userSpaceOnUse"
       cx="255.99385"
       cy="256"
       fx="255.99385"
       fy="256"
       r="216"
       gradientTransform="matrix(0.97737557,0,0,0.97737557,5.797851,546.154)" />
    <radialGradient
       inkscape:collect="always"
       xlink:href="#linearGradient3853"
       id="radialGradient8001"
       gradientUnits="userSpaceOnUse"
       gradientTransform="translate(0.00614246,540.36218)"
       cx="255.99385"
       cy="256"
       fx="255.99385"
       fy="256"
       r="216" />
    <radialGradient
       r="216"
       fy="256"
       fx="255.99385"
       cy="256"
       cx="255.99385"
       gradientTransform="translate(0.00614246,540.36218)"
       gradientUnits="userSpaceOnUse"
       id="radialGradient8593"
       xlink:href="#linearGradient3853"
       inkscape:collect="always" />
    <radialGradient
       r="216"
       fy="256"
       fx="255.99385"
       cy="256"
       cx="255.99385"
       gradientTransform="matrix(1.0925925,0,0,1.0925917,-23.696989,516.65811)"
       gradientUnits="userSpaceOnUse"
       id="radialGradient3861"
       xlink:href="#linearGradient3853"
       inkscape:collect="always" />
    <linearGradient
       y2="20.625916"
       x2="1006.8082"
       y1="484.41721"
       x1="1012.5133"
       gradientTransform="matrix(1.0317796,0,0,1.0317796,-830.86406,592.67791)"
       gradientUnits="userSpaceOnUse"
       id="linearGradient4114-2"
       xlink:href="#ButtonShadow-0-1-1-5"
       inkscape:collect="always" />
    <linearGradient
       gradientTransform="matrix(1.0058652,0,0,0.994169,100,0)"
       gradientUnits="userSpaceOnUse"
       id="ButtonShadow-0-1-1-5"
       y2="7.0165396"
       x2="45.447727"
       y1="92.539597"
       x1="45.447727">
      <stop
         offset="0"
         style="stop-color:#000000;stop-opacity:1"
         id="stop3750-8-9-3-6" />
      <stop
         offset="1"
         style="stop-color:#000000;stop-opacity:0.58823532"
         id="stop3752-5-6-4-2" />
    </linearGradient>
    <linearGradient
       y2="20.625916"
       x2="1006.8082"
       y1="484.41721"
       x1="1012.5133"
       gradientTransform="matrix(1.0402541,0,0,1.0402541,-837.95116,592.51825)"
       gradientUnits="userSpaceOnUse"
       id="linearGradient4112-2"
       xlink:href="#ButtonShadow-0-1-1-5"
       inkscape:collect="always" />
    <linearGradient
       gradientTransform="matrix(1.0058652,0,0,0.994169,100,0)"
       gradientUnits="userSpaceOnUse"
       id="linearGradient5292"
       y2="7.0165396"
       x2="45.447727"
       y1="92.539597"
       x1="45.447727">
      <stop
         offset="0"
         style="stop-color:#000000;stop-opacity:1"
         id="stop5294" />
      <stop
         offset="1"
         style="stop-color:#000000;stop-opacity:0.58823532"
         id="stop5296" />
    </linearGradient>
    <linearGradient
       y2="20.625916"
       x2="1006.8082"
       y1="484.41721"
       x1="1012.5133"
       gradientTransform="matrix(1.023305,0,0,1.023305,-823.77704,592.83757)"
       gradientUnits="userSpaceOnUse"
       id="linearGradient4110-6"
       xlink:href="#ButtonShadow-0-1-1-5"
       inkscape:collect="always" />
    <linearGradient
       gradientTransform="matrix(1.0058652,0,0,0.994169,100,0)"
       gradientUnits="userSpaceOnUse"
       id="linearGradient5299"
       y2="7.0165396"
       x2="45.447727"
       y1="92.539597"
       x1="45.447727">
      <stop
         offset="0"
         style="stop-color:#000000;stop-opacity:1"
         id="stop5301" />
      <stop
         offset="1"
         style="stop-color:#000000;stop-opacity:0.58823532"
         id="stop5303" />
    </linearGradient>
    <linearGradient
       y2="20.625916"
       x2="1006.8082"
       y1="484.41721"
       x1="1012.5133"
       gradientTransform="matrix(1.0148305,0,0,1.0148305,-816.68996,592.99723)"
       gradientUnits="userSpaceOnUse"
       id="linearGradient4116-6"
       xlink:href="#ButtonShadow-0-1-1-5"
       inkscape:collect="always" />
    <linearGradient
       gradientTransform="matrix(1.0058652,0,0,0.994169,100,0)"
       gradientUnits="userSpaceOnUse"
       id="linearGradient5306"
       y2="7.0165396"
       x2="45.447727"
       y1="92.539597"
       x1="45.447727">
      <stop
         offset="0"
         style="stop-color:#000000;stop-opacity:1"
         id="stop5308" />
      <stop
         offset="1"
         style="stop-color:#000000;stop-opacity:0.58823532"
         id="stop5310" />
    </linearGradient>
    <linearGradient
       inkscape:collect="always"
       xlink:href="#ButtonShadow-0-1-1-5"
       id="linearGradient3372"
       gradientUnits="userSpaceOnUse"
       gradientTransform="matrix(1.0074153,0,0,1.0074153,-810.48879,593.1369)"
       x1="1012.5133"
       y1="484.41721"
       x2="1006.8082"
       y2="20.625916" />
    <linearGradient
       gradientTransform="matrix(1.0058652,0,0,0.994169,100,0)"
       gradientUnits="userSpaceOnUse"
       id="linearGradient5313"
       y2="7.0165396"
       x2="45.447727"
       y1="92.539597"
       x1="45.447727">
      <stop
         offset="0"
         style="stop-color:#000000;stop-opacity:1"
         id="stop5315" />
      <stop
         offset="1"
         style="stop-color:#000000;stop-opacity:0.58823532"
         id="stop5317" />
    </linearGradient>
    <linearGradient
       y2="251.66064"
       x2="1011.9534"
       y1="476.25983"
       x1="1016.1035"
       gradientTransform="translate(-146.22032,369.08845)"
       gradientUnits="userSpaceOnUse"
       id="linearGradient4082"
       xlink:href="#linearGradient4487"
       inkscape:collect="always" />
    <linearGradient
       id="linearGradient4487">
      <stop
         offset="0"
         style="stop-color:#000000;stop-opacity:1"
         id="stop4489" />
      <stop
         offset="1"
         style="stop-color:#000000;stop-opacity:0"
         id="stop4491" />
    </linearGradient>
    <linearGradient
       y2="363.73825"
       x2="988.78552"
       y1="51.511765"
       x1="993.43896"
       gradientTransform="translate(778.59979,-360.55963)"
       gradientUnits="userSpaceOnUse"
       id="linearGradient4084"
       xlink:href="#linearGradient3737"
       inkscape:collect="always" />
    <linearGradient
       id="linearGradient3737">
      <stop
         offset="0"
         style="stop-color:#ffffff;stop-opacity:1"
         id="stop3739" />
      <stop
         offset="1"
         style="stop-color:#ffffff;stop-opacity:0.94117647;"
         id="stop3741" />
    </linearGradient>
    <linearGradient
       y2="-55.941216"
       x2="1763.6903"
       y1="155.59685"
       x1="1764.6487"
       gradientUnits="userSpaceOnUse"
       id="linearGradient4086"
       xlink:href="#linearGradient4046"
       inkscape:collect="always" />
    <linearGradient
       id="linearGradient4046">
      <stop
         offset="0"
         style="stop-color:#000000;stop-opacity:1;"
         id="stop4048" />
      <stop
         offset="1"
         style="stop-color:#ffffff;stop-opacity:0.2"
         id="stop4050" />
    </linearGradient>
    <linearGradient
       inkscape:collect="always"
       xlink:href="#ButtonShadow-0-1-1-5"
       id="linearGradient5342"
       gradientUnits="userSpaceOnUse"
       gradientTransform="matrix(1.0074153,0,0,1.0074153,-810.48879,593.1369)"
       x1="1012.5133"
       y1="484.41721"
       x2="1006.8082"
       y2="20.625916" />
    <linearGradient
       y2="363.73825"
       x2="988.78552"
       y1="51.511765"
       x1="993.43896"
       gradientTransform="translate(778.59979,-360.55963)"
       gradientUnits="userSpaceOnUse"
       id="linearGradient3738"
       xlink:href="#linearGradient3737"
       inkscape:collect="always" />
    <linearGradient
       y2="-55.941216"
       x2="1763.6903"
       y1="155.59685"
       x1="1764.6487"
       gradientUnits="userSpaceOnUse"
       id="linearGradient3740"
       xlink:href="#linearGradient4046"
       inkscape:collect="always" />
    <radialGradient
       r="216"
       fy="256"
       fx="255.99385"
       cy="256"
       cx="255.99385"
       gradientTransform="translate(0.00614246,540.36218)"
       gradientUnits="userSpaceOnUse"
       id="radialGradient3961"
       xlink:href="#linearGradient3853-8"
       inkscape:collect="always" />
    <linearGradient
       y2="48.0854"
       x2="78.466103"
       y1="56.3008"
       x1="64.477501"
       gradientUnits="userSpaceOnUse"
       id="linearGradient3853-8">
      <stop
         id="stop3857-3"
         style="stop-color:#d8222c;stop-opacity:1;"
         offset="0" />
      <stop
         id="stop3859-1"
         style="stop-color:#dc2831;stop-opacity:1;"
         offset="1" />
    </linearGradient>
    <linearGradient
       y2="7.4355001"
       x2="23.5156"
       y1="77.435097"
       x1="23.5156"
       gradientUnits="userSpaceOnUse"
       id="SVGID_1_"
       gradientTransform="matrix(6.1659046,0,0,6.1659046,-870.55518,537.01919)">
      <stop
         id="stop7"
         style="stop-color:#F2F2F2"
         offset="0" />
      <stop
         id="stop9"
         style="stop-color:#F6F6F6"
         offset="0.2413" />
      <stop
         id="stop11"
         style="stop-color:#FFFFFF"
         offset="1" />
    </linearGradient>
    <radialGradient
       r="216"
       fy="256"
       fx="255.99385"
       cy="256"
       cx="255.99385"
       gradientTransform="translate(0.00614237,-5.600586e-6)"
       gradientUnits="userSpaceOnUse"
       id="radialGradient6153"
       xlink:href="#linearGradient3853-89"
       inkscape:collect="always" />
    <linearGradient
       id="linearGradient3853-89"
       gradientUnits="userSpaceOnUse"
       x1="64.477501"
       y1="56.3008"
       x2="78.466103"
       y2="48.0854">
      <stop
         offset="0"
         style="stop-color:#b4b4b4;stop-opacity:1;"
         id="stop3857-5" />
      <stop
         offset="1"
         style="stop-color:#dcdcdc;stop-opacity:1;"
         id="stop3859-5" />
    </linearGradient>
    <linearGradient
       inkscape:collect="always"
       xlink:href="#linearGradient2460"
       id="linearGradient3157"
       gradientUnits="userSpaceOnUse"
       gradientTransform="matrix(12.102564,0,0,12.102564,-34.468255,-46.187105)"
       x1="18.930269"
       y1="6.2951212"
       x2="19.360001"
       y2="36.643665" />
    <linearGradient
       id="linearGradient2460"
       y2="44.984001"
       gradientUnits="userSpaceOnUse"
       x2="19.360001"
       y1="21.030804"
       x1="19.244999">
      <stop
         id="stop3602"
         style="stop-color:#fafafa;stop-opacity:1;"
         offset="0" />
      <stop
         id="stop3604"
         style="stop-color:#f0f0f0;stop-opacity:1;"
         offset="1" />
    </linearGradient>
    <linearGradient
       y2="36.643665"
       x2="19.360001"
       y1="6.2951212"
       x1="18.930269"
       gradientTransform="matrix(12.102564,0,0,12.102564,-34.468235,494.17507)"
       gradientUnits="userSpaceOnUse"
       id="linearGradient3159"
       xlink:href="#linearGradient2460"
       inkscape:collect="always" />
    <radialGradient
       inkscape:collect="always"
       xlink:href="#linearGradient2460-7-7"
       id="radialGradient6124-5-6"
       cx="256"
       cy="151.78598"
       fx="256"
       fy="151.78598"
       r="236"
       gradientUnits="userSpaceOnUse"
       gradientTransform="translate(0,4.4999999e-6)" />
    <linearGradient
       id="linearGradient2460-7-7"
       y2="44.984001"
       gradientUnits="userSpaceOnUse"
       x2="19.360001"
       y1="21.030804"
       x1="19.244999">
      <stop
         id="stop3602-2-8"
         style="stop-color:#00aad8;stop-opacity:1;"
         offset="0" />
      <stop
         id="stop3604-5-2"
         style="stop-color:#006fa6;stop-opacity:1;"
         offset="1" />
    </linearGradient>
    <radialGradient
       inkscape:collect="always"
       xlink:href="#linearGradient2460-7-7"
       id="radialGradient3898"
       gradientUnits="userSpaceOnUse"
       gradientTransform="translate(-1175.8173,773.54188)"
       cx="256"
       cy="151.78598"
       fx="256"
       fy="151.78598"
       r="236" />
    <radialGradient
       gradientUnits="userSpaceOnUse"
       gradientTransform="translate(0,-1.434127e-4)"
       r="235.99997"
       fy="796.36218"
       fx="256"
       cy="796.36218"
       cx="256"
       id="radialGradient4681-1"
       xlink:href="#linearGradient4673-9"
       inkscape:collect="always" />
    <linearGradient
       id="linearGradient4673-9"
       y2="44.984001"
       gradientUnits="userSpaceOnUse"
       x2="19.360001"
       y1="21.030804"
       x1="19.244999">
      <stop
         id="stop4675-0"
         style="stop-color:#ffffff;stop-opacity:1;"
         offset="0" />
      <stop
         id="stop4677-7"
         style="stop-color:#ededed;stop-opacity:1;"
         offset="1" />
    </linearGradient>
    <radialGradient
       inkscape:collect="always"
       xlink:href="#linearGradient3737"
       id="radialGradient4528"
       cx="256"
       cy="796.36218"
       fx="256"
       fy="796.36218"
       r="235.99997"
       gradientTransform="translate(0,-1.434127e-4)"
       gradientUnits="userSpaceOnUse" />
    <linearGradient
       inkscape:collect="always"
       xlink:href="#linearGradient1005"
       id="linearGradient1015"
       gradientUnits="userSpaceOnUse"
       x1="10163.014"
       y1="9155.2842"
       x2="10163.014"
       y2="1655.2848" />
    <linearGradient
       inkscape:collect="always"
       id="linearGradient1005">
      <stop
         style="stop-color:#272727;stop-opacity:1;"
         offset="0"
         id="stop1001" />
      <stop
         style="stop-color:#2b4e35;stop-opacity:0.69275928"
         offset="1"
         id="stop1003" />
    </linearGradient>
    <linearGradient
       inkscape:collect="always"
       xlink:href="#linearGradient1005"
       id="linearGradient1267"
       gradientUnits="userSpaceOnUse"
       x1="10163.014"
       y1="9155.2842"
       x2="10163.014"
       y2="1655.2848" />
    <linearGradient
       inkscape:collect="always"
       xlink:href="#linearGradient1005"
       id="linearGradient1269"
       gradientUnits="userSpaceOnUse"
       x1="10163.014"
       y1="9155.2842"
       x2="10163.014"
       y2="1655.2848" />
    <linearGradient
       inkscape:collect="always"
       xlink:href="#linearGradient1005"
       id="linearGradient1271"
       gradientUnits="userSpaceOnUse"
       x1="10163.014"
       y1="9155.2842"
       x2="10163.014"
       y2="1655.2848" />
    <linearGradient
       inkscape:collect="always"
       xlink:href="#linearGradient1005"
       id="linearGradient1273"
       gradientUnits="userSpaceOnUse"
       x1="10163.014"
       y1="9155.2842"
       x2="10163.014"
       y2="1655.2848" />
    <linearGradient
       inkscape:collect="always"
       xlink:href="#linearGradient1005"
       id="linearGradient1275"
       gradientUnits="userSpaceOnUse"
       x1="10163.014"
       y1="9155.2842"
       x2="10163.014"
       y2="1655.2848" />
    <linearGradient
       inkscape:collect="always"
       xlink:href="#linearGradient1005"
       id="linearGradient1277"
       gradientUnits="userSpaceOnUse"
       x1="10163.014"
       y1="9155.2842"
       x2="10163.014"
       y2="1655.2848" />
    <linearGradient
       inkscape:collect="always"
       xlink:href="#linearGradient1005"
       id="linearGradient1279"
       gradientUnits="userSpaceOnUse"
       x1="10163.014"
       y1="9155.2842"
       x2="10163.014"
       y2="1655.2848" />
    <linearGradient
       inkscape:collect="always"
       xlink:href="#linearGradient1005"
       id="linearGradient1281"
       gradientUnits="userSpaceOnUse"
       x1="10163.014"
       y1="9155.2842"
       x2="10163.014"
       y2="1655.2848" />
    <linearGradient
       inkscape:collect="always"
       xlink:href="#linearGradient1005"
       id="linearGradient1283"
       gradientUnits="userSpaceOnUse"
       x1="10163.014"
       y1="9155.2842"
       x2="10163.014"
       y2="1655.2848" />
    <linearGradient
       inkscape:collect="always"
       xlink:href="#linearGradient1005"
       id="linearGradient1285"
       gradientUnits="userSpaceOnUse"
       x1="10163.014"
       y1="9155.2842"
       x2="10163.014"
       y2="1655.2848" />
    <linearGradient
       inkscape:collect="always"
       xlink:href="#linearGradient1005"
       id="linearGradient1287"
       gradientUnits="userSpaceOnUse"
       x1="10163.014"
       y1="9155.2842"
       x2="10163.014"
       y2="1655.2848" />
    <linearGradient
       inkscape:collect="always"
       xlink:href="#linearGradient1005"
       id="linearGradient1289"
       gradientUnits="userSpaceOnUse"
       x1="10163.014"
       y1="9155.2842"
       x2="10163.014"
       y2="1655.2848" />
    <linearGradient
       inkscape:collect="always"
       xlink:href="#linearGradient1005"
       id="linearGradient1291"
       gradientUnits="userSpaceOnUse"
       x1="10163.014"
       y1="9155.2842"
       x2="10163.014"
       y2="1655.2848" />
    <linearGradient
       inkscape:collect="always"
       xlink:href="#linearGradient1005"
       id="linearGradient1293"
       gradientUnits="userSpaceOnUse"
       x1="10163.014"
       y1="9155.2842"
       x2="10163.014"
       y2="1655.2848" />
    <linearGradient
       inkscape:collect="always"
       xlink:href="#linearGradient1005"
       id="linearGradient1295"
       gradientUnits="userSpaceOnUse"
       x1="10163.014"
       y1="9155.2842"
       x2="10163.014"
       y2="1655.2848" />
    <linearGradient
       inkscape:collect="always"
       xlink:href="#linearGradient1005"
       id="linearGradient1297"
       gradientUnits="userSpaceOnUse"
       x1="10163.014"
       y1="9155.2842"
       x2="10163.014"
       y2="1655.2848" />
    <linearGradient
       inkscape:collect="always"
       xlink:href="#linearGradient1005"
       id="linearGradient1299"
       gradientUnits="userSpaceOnUse"
       x1="10163.014"
       y1="9155.2842"
       x2="10163.014"
       y2="1655.2848" />
    <linearGradient
       inkscape:collect="always"
       xlink:href="#linearGradient1005"
       id="linearGradient1301"
       gradientUnits="userSpaceOnUse"
       x1="10163.014"
       y1="9155.2842"
       x2="10163.014"
       y2="1655.2848" />
    <linearGradient
       inkscape:collect="always"
       xlink:href="#linearGradient1005"
       id="linearGradient1303"
       gradientUnits="userSpaceOnUse"
       x1="10163.014"
       y1="9155.2842"
       x2="10163.014"
       y2="1655.2848" />
    <linearGradient
       inkscape:collect="always"
       xlink:href="#linearGradient1005"
       id="linearGradient1305"
       gradientUnits="userSpaceOnUse"
       x1="10163.014"
       y1="9155.2842"
       x2="10163.014"
       y2="1655.2848" />
    <linearGradient
       inkscape:collect="always"
       xlink:href="#linearGradient1005"
       id="linearGradient1307"
       gradientUnits="userSpaceOnUse"
       x1="10163.014"
       y1="9155.2842"
       x2="10163.014"
       y2="1655.2848" />
    <linearGradient
       inkscape:collect="always"
       xlink:href="#linearGradient1005"
       id="linearGradient1309"
       gradientUnits="userSpaceOnUse"
       x1="10163.014"
       y1="9155.2842"
       x2="10163.014"
       y2="1655.2848" />
    <linearGradient
       inkscape:collect="always"
       xlink:href="#linearGradient1005"
       id="linearGradient1311"
       gradientUnits="userSpaceOnUse"
       x1="10163.014"
       y1="9155.2842"
       x2="10163.014"
       y2="1655.2848" />
    <linearGradient
       inkscape:collect="always"
       xlink:href="#linearGradient1005"
       id="linearGradient1313"
       gradientUnits="userSpaceOnUse"
       x1="10163.014"
       y1="9155.2842"
       x2="10163.014"
       y2="1655.2848" />
    <linearGradient
       inkscape:collect="always"
       xlink:href="#linearGradient1005"
       id="linearGradient1315"
       gradientUnits="userSpaceOnUse"
       x1="10163.014"
       y1="9155.2842"
       x2="10163.014"
       y2="1655.2848" />
    <linearGradient
       inkscape:collect="always"
       xlink:href="#linearGradient1005"
       id="linearGradient1317"
       gradientUnits="userSpaceOnUse"
       x1="10163.014"
       y1="9155.2842"
       x2="10163.014"
       y2="1655.2848" />
    <linearGradient
       inkscape:collect="always"
       xlink:href="#linearGradient1005"
       id="linearGradient1319"
       gradientUnits="userSpaceOnUse"
       x1="10163.014"
       y1="9155.2842"
       x2="10163.014"
       y2="1655.2848" />
    <linearGradient
       inkscape:collect="always"
       xlink:href="#linearGradient1005"
       id="linearGradient1321"
       gradientUnits="userSpaceOnUse"
       x1="10163.014"
       y1="9155.2842"
       x2="10163.014"
       y2="1655.2848" />
    <linearGradient
       inkscape:collect="always"
       xlink:href="#linearGradient1005"
       id="linearGradient1323"
       gradientUnits="userSpaceOnUse"
       x1="10163.014"
       y1="9155.2842"
       x2="10163.014"
       y2="1655.2848" />
    <linearGradient
       inkscape:collect="always"
       xlink:href="#linearGradient1005"
       id="linearGradient1325"
       gradientUnits="userSpaceOnUse"
       x1="10163.014"
       y1="9155.2842"
       x2="10163.014"
       y2="1655.2848" />
    <linearGradient
       inkscape:collect="always"
       xlink:href="#linearGradient1005"
       id="linearGradient1327"
       gradientUnits="userSpaceOnUse"
       x1="10163.014"
       y1="9155.2842"
       x2="10163.014"
       y2="1655.2848" />
    <linearGradient
       inkscape:collect="always"
       xlink:href="#linearGradient1005"
       id="linearGradient1329"
       gradientUnits="userSpaceOnUse"
       x1="10163.014"
       y1="9155.2842"
       x2="10163.014"
       y2="1655.2848" />
    <linearGradient
       inkscape:collect="always"
       xlink:href="#linearGradient1005"
       id="linearGradient1331"
       gradientUnits="userSpaceOnUse"
       x1="10163.014"
       y1="9155.2842"
       x2="10163.014"
       y2="1655.2848" />
    <linearGradient
       inkscape:collect="always"
       xlink:href="#linearGradient1005"
       id="linearGradient1333"
       gradientUnits="userSpaceOnUse"
       x1="10163.014"
       y1="9155.2842"
       x2="10163.014"
       y2="1655.2848" />
    <linearGradient
       inkscape:collect="always"
       xlink:href="#linearGradient1005"
       id="linearGradient1335"
       gradientUnits="userSpaceOnUse"
       x1="10163.014"
       y1="9155.2842"
       x2="10163.014"
       y2="1655.2848" />
    <linearGradient
       inkscape:collect="always"
       xlink:href="#linearGradient1005"
       id="linearGradient1337"
       gradientUnits="userSpaceOnUse"
       x1="10163.014"
       y1="9155.2842"
       x2="10163.014"
       y2="1655.2848" />
    <linearGradient
       inkscape:collect="always"
       xlink:href="#linearGradient1005"
       id="linearGradient1339"
       gradientUnits="userSpaceOnUse"
       x1="10163.014"
       y1="9155.2842"
       x2="10163.014"
       y2="1655.2848" />
    <linearGradient
       inkscape:collect="always"
       xlink:href="#linearGradient1005"
       id="linearGradient1341"
       gradientUnits="userSpaceOnUse"
       x1="10163.014"
       y1="9155.2842"
       x2="10163.014"
       y2="1655.2848" />
    <linearGradient
       inkscape:collect="always"
       xlink:href="#linearGradient1005"
       id="linearGradient1343"
       gradientUnits="userSpaceOnUse"
       x1="10163.014"
       y1="9155.2842"
       x2="10163.014"
       y2="1655.2848" />
    <linearGradient
       inkscape:collect="always"
       xlink:href="#linearGradient1005"
       id="linearGradient1345"
       gradientUnits="userSpaceOnUse"
       x1="10163.014"
       y1="9155.2842"
       x2="10163.014"
       y2="1655.2848" />
    <linearGradient
       inkscape:collect="always"
       xlink:href="#linearGradient1005"
       id="linearGradient1347"
       gradientUnits="userSpaceOnUse"
       x1="10163.014"
       y1="9155.2842"
       x2="10163.014"
       y2="1655.2848" />
    <linearGradient
       inkscape:collect="always"
       xlink:href="#linearGradient1005"
       id="linearGradient1349"
       gradientUnits="userSpaceOnUse"
       x1="10163.014"
       y1="9155.2842"
       x2="10163.014"
       y2="1655.2848" />
    <linearGradient
       inkscape:collect="always"
       xlink:href="#linearGradient1005"
       id="linearGradient1351"
       gradientUnits="userSpaceOnUse"
       x1="10163.014"
       y1="9155.2842"
       x2="10163.014"
       y2="1655.2848" />
  </defs>
  <metadata
     id="metadata7">
    <rdf:RDF>
      <cc:Work
         rdf:about="">
        <dc:format>image/svg+xml</dc:format>
        <dc:type
           rdf:resource="http://purl.org/dc/dcmitype/StillImage" />
        <dc:title />
      </cc:Work>
    </rdf:RDF>
  </metadata>
  <g
     transform="translate(0,-540.36218)"
     id="layer1"
     inkscape:groupmode="layer"
     inkscape:label="back"
     style="display:inline">
    <path
       inkscape:connector-curvature="0"
       id="rect5505"
       d="m 118.34377,560.36217 c -54.476655,0 -98.343745,43.86708 -98.343745,98.34375 l 0,23.0625 0,252.25 c 0,54.47666 43.86709,98.34378 98.343745,98.34378 l 275.31251,0 c 54.47669,0 98.34369,-43.86712 98.34369,-98.34378 l 0,-252.25 0,-23.0625 c 0,-54.47667 -43.867,-98.34375 -98.34369,-98.34375 l -275.3125,0 z"
       style="fill:url(#radialGradient4528);fill-opacity:1;stroke:#000000;stroke-opacity:0.11741683" />
    <g
       transform="translate(-605.51932,186.39349)"
       id="g4076">
      <g
         id="g4038"
         transform="translate(-926.66758,684.38448)">
        <path
           id="rect6809-2"
           d="m 1650.4994,-310.41615 c -54.4767,0 -98.3125,43.83583 -98.3125,98.3125 l 0,275.343747 c 0,54.476673 43.8358,98.343753 98.3125,98.343753 l 2.9375,0 c -53.3225,0 -96.25,-42.9275 -96.25,-96.250003 l 0,-269.499997 c 0,-53.3225 42.9275,-96.25 96.25,-96.25 l 269.5001,0 c 53.3225,0 96.25,42.9275 96.25,96.25 l 0,269.499997 c 0,53.322503 -42.9275,96.250003 -96.25,96.250003 l 2.9062,0 c 54.4767,0 98.3438,-43.86708 98.3438,-98.343753 l 0,-275.343747 c 0,-54.47667 -43.8671,-98.3125 -98.3438,-98.3125 l -275.3438,0 z"
           style="opacity:0.5;color:#000000;fill:url(#linearGradient3738);fill-opacity:1;fill-rule:nonzero;stroke:none;stroke-width:1.5;marker:none;visibility:visible;display:inline;overflow:visible;enable-background:accumulate"
           inkscape:connector-curvature="0" />
        <path
           inkscape:connector-curvature="0"
           style="opacity:0.2;color:#000000;fill:url(#linearGradient3740);fill-opacity:1;fill-rule:nonzero;stroke:none;stroke-width:1.5;marker:none;visibility:visible;display:inline;overflow:visible;enable-background:accumulate"
           d="m 1650.4994,161.58385 c -54.4767,0 -98.3125,-43.83583 -98.3125,-98.312503 l 0,-275.343747 c 0,-54.47667 43.8358,-98.34375 98.3125,-98.34375 l 2.9375,0 c -53.3225,0 -96.25,42.9275 -96.25,96.25 l 0,269.499997 c 0,53.322503 42.9275,96.250003 96.25,96.250003 l 269.5001,0 c 53.3225,0 96.25,-42.9275 96.25,-96.250003 l 0,-269.499997 c 0,-53.3225 -42.9275,-96.25 -96.25,-96.25 l 2.9062,0 c 54.4767,0 98.3438,43.86708 98.3438,98.34375 l 0,275.343747 c 0,54.476673 -43.8671,98.312503 -98.3438,98.312503 l -275.3438,0 z"
           id="path3981" />
      </g>
    </g>
    <path
       style="fill:#000000;fill-opacity:0.39215686;display:none"
       d="m 382.59375,149 c -0.029,-0.007 -0.0345,0.0203 -0.0625,0.0312 -0.15221,0.0589 -3.01954,1.11629 -6.375,2.375 -18.39735,6.90112 -39.22465,15.30527 -71.5,28.8125 -19.71362,8.25016 -31.4556,13.1191 -40.53125,16.84375 l -8.28125,3.40625 -3.5,-1.1875 c -2.10838,-0.71809 -8.83161,-3.44935 -17.125,-6.9375 -7.51433,-3.16043 -25.32123,-10.65184 -39.59375,-16.65625 -40.00856,-16.83126 -55.37501,-23.24173 -57.0625,-23.8125 -2.39424,-0.80971 -9.38478,-2.7786 -9.53125,-2.6875 -0.22048,0.13628 -2.51239,4.86953 -3.34375,6.90625 -3.82322,9.36642 -6.66084,21.98795 -7.125,31.6875 -0.14574,3.04545 -0.003,8.00991 0.25,8.25 l 32.7734,32.68175 c -0.86111,3.60686 -1.00233,5.10089 -1,9.5625 0.003,4.73813 0.26593,6.77267 1.375,10.625 1.82891,6.35282 5.79171,13.26275 10.46875,18.59375 0.3083,0.3514 0.62327,0.69435 0.9375,1.03125 0.18528,0.2032 0.37525,0.39585 0.5625,0.59375 0.15978,0.1649 0.30775,0.3392 0.46875,0.5 0.24052,0.24614 0.47557,0.48206 0.71875,0.71875 0.0532,0.0531 0.10296,0.10362 0.15625,0.15625 0.0214,0.0206 0.041,0.0419 0.0625,0.0625 0.0408,0.0411 0.0841,0.0842 0.125,0.125 0,0 28.21234,28.18138 28.21375,28.1821 -1.64865,1.86426 -3.19097,3.71361 -4.53125,5.5 -4.88855,6.51577 -7.54019,11.5336 -8.25,15.5625 -0.25042,1.42129 -0.21333,4.89064 0.0625,6.34375 l 0.21875,1.125 13.2473,13.15505 c -0.74718,-0.11663 -0.89784,-0.20973 -1.09375,-0.4375 -0.15088,-0.1754 -0.28432,-0.23585 -0.375,-0.1875 -0.15113,0.0806 -0.19936,0.41273 -0.0937,0.6875 0.77263,1.25333 1.03975,1.23226 1.28125,2.15625 0.75409,2.89981 1.01584,3.53948 2.65625,6.375 3.63895,6.2901 7.95874,12.17282 12.9375,17.71875 0.9761,1.08729 1.97098,2.15879 3,3.21875 0.12285,0.12898 0.25137,0.24642 0.375,0.375 0.12276,0.12887 0.25147,0.24652 0.375,0.375 0.2594,0.26233 0.51854,0.5206 0.78125,0.78125 0.53335,0.52918 1.04672,1.07142 1.59375,1.59375 0.0316,0.0304 0.0621,0.0633 0.0937,0.0937 0.0958,0.0929 0.18505,0.18854 0.28125,0.28125 0.0316,0.0304 0.0621,0.0634 0.0937,0.0937 0.0957,0.0928 0.18514,0.18863 0.28125,0.28125 0.13254,0.12894 0.27288,0.24647 0.40625,0.375 0.0212,0.0202 0.0413,0.0423 0.0625,0.0625 0.1379,0.1339 0.26746,0.2728 0.40625,0.40625 l 347.671,347.69925 c 9.70301,9.4251 21.59614,17.7801 35.875,25.15625 1.93766,1.0009 3.55479,1.84215 3.59375,1.84375 0.039,0 1.69429,-0.849 3.6875,-1.875 13.96514,-7.1879 25.34981,-15.256 34.84375,-24.75 6.56578,-6.5657 11.56247,-12.96905 16.21875,-20.71875 1.38253,-2.3011 4.03125,-7.29115 4.03125,-7.59375 0,-0.047 -0.15216,-0.11971 -0.40625,-0.1875 0.008,-0.0257 0.0621,-0.14392 0.0625,-0.15625 0,-0.0484 -0.17023,-0.11767 -0.4375,-0.1875 0.008,-0.0257 0.0621,-0.14394 0.0625,-0.15625 -0.0234,-0.0473 -0.15998,-0.12315 -0.40625,-0.1875 0.006,-0.0195 0.0622,-0.11479 0.0625,-0.125 0.004,-0.01 0,-0.0293 0,-0.0312 0,-0.047 -0.15314,-0.12 -0.40625,-0.1875 0.006,-0.0194 0.0622,-0.1148 0.0625,-0.125 0.006,-0.01 0,-0.0293 0,-0.0312 0,-0.0485 -0.17062,-0.11783 -0.4375,-0.1875 0.006,-0.0194 0.0622,-0.11482 0.0625,-0.125 0.007,-0.012 0.0312,-0.0293 0.0312,-0.0312 0,-0.0479 -0.1713,-0.11786 -0.4375,-0.1875 0.006,-0.0194 0.0622,-0.11482 0.0625,-0.125 0.008,-0.014 0.0312,-0.0605 0.0312,-0.0625 0,-0.0479 -0.17173,-0.0867 -0.4375,-0.15625 0.006,-0.0194 0.0622,-0.11483 0.0625,-0.125 0.01,-0.017 0.0312,-0.0595 0.0312,-0.0625 0,-0.0465 -0.15416,-0.12019 -0.40625,-0.1875 0.003,-0.0122 0.031,-0.0864 0.0312,-0.0937 0.0111,-0.019 0.0312,-0.0605 0.0312,-0.0625 0,-0.0493 -0.18956,-0.11593 -0.46875,-0.1875 0.006,-0.0193 0.0622,-0.11485 0.0625,-0.125 0.0125,-0.021 0.0312,-0.0595 0.0312,-0.0625 0,-0.0465 -0.15466,-0.12035 -0.40625,-0.1875 0.003,-0.0118 0.031,-0.0866 0.0312,-0.0937 0.0138,-0.024 0.0312,-0.0585 0.0312,-0.0625 0,-0.0465 -0.15492,-0.12041 -0.40625,-0.1875 0.002,-0.008 0.0311,-0.0573 0.0312,-0.0625 0.0152,-0.026 0.0312,-0.0897 0.0312,-0.0937 0,-0.0479 -0.1729,-0.11835 -0.4375,-0.1875 0.002,-0.008 0.0311,-0.0573 0.0312,-0.0625 0.0166,-0.028 0.0625,-0.0897 0.0625,-0.0937 0,-0.0479 -0.17317,-0.11842 -0.4375,-0.1875 0.002,-0.008 0.0311,-0.0573 0.0312,-0.0625 0.018,-0.03 0.0625,-0.1206 0.0625,-0.125 0,-0.0479 -0.17344,-0.0873 -0.4375,-0.15625 0.002,-0.008 0.0311,-0.0573 0.0312,-0.0625 0.0194,-0.033 0.0312,-0.1202 0.0312,-0.125 0,-0.0465 -0.15593,-0.12074 -0.40625,-0.1875 3e-4,-0.003 -7e-5,-0.0291 0,-0.0312 0.0207,-0.035 0.0625,-0.1199 0.0625,-0.125 0,-0.0465 -0.15619,-0.12082 -0.40625,-0.1875 7.85697,-2.07595 15.73048,-4.45542 17.9375,-5.5625 1.51504,-0.7599 2.8567,-2.06315 3.375,-3.21875 0.61275,-1.3662 0.55574,-3.8312 -0.15625,-6.5 -1.59055,-5.9617 -4.22752,-11.5818 -8.5,-18.0625 -3.32108,-5.03765 -7.30447,-10.00585 -11.84375,-14.8125 -0.11008,-0.11743 -0.233,-0.22651 -0.34375,-0.34375 -0.24498,-0.26133 -0.50169,-0.52089 -0.75,-0.78125 -10.13723,-10.13786 -21.43184,-21.55203 -31.12385,-30.9055 -0.2193,-0.21848 -0.43442,-0.43864 -0.65625,-0.65625 -0.11417,-0.11285 -0.22891,-0.23113 -0.34375,-0.34375 -0.10366,-0.10247 -0.20828,-0.21022 -0.3125,-0.3125 -0.10355,-0.10236 -0.20839,-0.21034 -0.3125,-0.3125 7.4078,3.56103 15.18721,8.63047 24.75,16 1.39191,1.07264 2.3904,1.86337 3.25,2.5625 l 11.24705,11.2168 c 0.0802,0 2.90372,-0.9193 6.28125,-2.0625 7.44476,-2.52 9.31971,-3.27275 12.65625,-4.90625 7.53916,-3.6912 13.23473,-9.09475 17.59375,-16.71875 2.56856,-4.4924 4.38323,-9.78645 5.125,-14.96875 0.3768,-2.6325 0.35585,-7.5753 -0.0312,-9.8125 -2.95963,-12.47419 -2.69173,-21.41683 -9.90625,-28.5937 -0.23415,-0.24067 -0.4875,-0.50634 -0.6875,-0.7186 l 37.59375,-9.46875 c 5.08655,-1.6739 10.90625,-4.1072 10.90625,-4.5625 0,-0.5945 -0.56438,-6.1461 -0.875,-8.625 -1.44919,-11.566 -4.56181,-23.8664 -8.9375,-35.375 -0.73003,-1.9201 -1.15625,-2.28125 -1.15625,-2.28125 0,0 -349.67019,-349.71657 -349.6698,-349.71585 -0.11632,-0.2149 -0.18373,-0.26391 -0.26395,-0.28386 z"
       transform="translate(0,540.36218)"
       id="path8574"
       inkscape:connector-curvature="0"
       sodipodi:nodetypes="ccsscccssccsscccssccccccccscccccsccsscccsccccccccccccscsccccccsccsccsccsccsccsccsccsccsccsccsccsccsccscscccccccccccccssccccssscccc" />
    <path
       sodipodi:nodetypes="ccsscccssccsscccsccccccccccccccccccccccccsccccsscsssccccccccccccscsccccccscsssccc"
       inkscape:connector-curvature="0"
       id="path8003"
       d="m 1061.0366,688.46011 c -0.029,-0.007 -0.034,0.0203 -0.062,0.0312 -0.1522,0.0589 -3.0195,1.11629 -6.375,2.375 -18.3973,6.90112 -39.2246,15.30527 -71.50002,28.8125 -19.7136,8.25016 -31.4556,13.1191 -40.5312,16.84375 l -8.2813,3.40625 -3.5,-1.1875 c -2.1083,-0.71809 -8.8316,-3.44935 -17.125,-6.9375 -7.5143,-3.16043 -25.3212,-10.65184 -39.5937,-16.65625 -40.0086,-16.83126 -55.375,-23.24173 -57.0625,-23.8125 -2.3943,-0.80971 -9.3848,-2.7786 -9.5313,-2.6875 -0.2204,0.13628 -2.5124,4.86953 -3.3437,6.90625 -3.8232,9.36642 -6.6609,21.98795 -7.125,31.6875 -0.1458,3.04545 0,8.00991 0.25,8.25 0,0 18.2026,18.6573 27.2787,27.27735 -0.8895,3.85524 -1.7216,7.48497 -1.875,8.3125 -1.1178,6.03136 -1.04,13.28321 0.1875,19.4375 1.5942,7.99262 5.2872,15.8834 10.4063,22.28125 0.5306,0.66312 1.2286,1.45352 2,2.28125 0.1127,0.12283 0.2585,0.25011 0.375,0.375 0.4518,0.47735 0.8965,0.95826 1.375,1.4375 0.1896,0.19244 0.3708,0.37199 0.5625,0.5625 0.096,0.0971 0.1843,0.1847 0.2812,0.28125 0.021,0.0213 0.041,0.0412 0.062,0.0625 0.011,0.0106 0.021,0.0207 0.031,0.0312 0.1073,0.10782 0.2048,0.20543 0.3125,0.3125 0.011,0.0106 0.021,0.0207 0.031,0.0312 0.054,0.0541 0.1023,0.10232 0.1563,0.15625 0.1056,0.10697 0.2062,0.20604 0.3125,0.3125 0.043,0.0425 0.082,0.0827 0.125,0.125 0.1535,0.15506 0.2828,0.31511 0.4375,0.46875 0,0 21.4987,21.46755 21.4675,21.43635 0.011,0.0107 0.02,0.0205 0.031,0.0312 -7.9375,13.92061 -11.9409,21.1705 -12.0313,21.78125 -0.1883,1.27269 0.2,3.35599 0.875,4.78125 0.3409,0.71968 0.7825,1.32694 1.3438,1.9375 0.1021,0.12542 0.2299,0.25186 0.3437,0.375 0.071,0.0689 0.1429,0.14995 0.2188,0.21875 0.039,0.044 0.085,0.0812 0.125,0.125 0.051,0.0487 0.1035,0.10763 0.1562,0.15625 l 10.531,10.531 c 1.2909,3.63465 2.8376,7.33726 4.4688,10.59375 3.9036,7.79291 9.0242,15.03928 15.5312,21.96875 0.1098,0.11796 0.2332,0.22598 0.3438,0.34375 1.2329,1.34747 2.5444,2.6391 3.781,3.87485 l 348.77992,348.74844 c 5.6829,5.621 12.3019,11.0582 20.0312,16.4063 5.7024,3.9457 12.5678,8.2086 22.6563,14.125 3.5185,2.0635 6.4656,3.7812 6.5312,3.7812 0.3192,0.029 10.0582,-6.0143 15,-9.3125 11.5878,-7.7338 20.2356,-14.7627 28.875,-23.4062 6.2324,-6.2355 10.1611,-10.8221 14.5938,-17.0313 3.7427,-5.2425 6.132,-9.1894 9.375,-15.5937 l 2.3125,-4.625 6.375,-2.9688 6.3437,-2.9375 0.094,-4.7187 c 0.073,-4.033 0.042,-4.9831 -0.2187,-6.4063 l -0.3067,-1.6491 -7.8125,-13.5312 c -4.2933,-7.4495 -7.7556,-13.6195 -7.6875,-13.6875 0.068,-0.068 2.8503,-1.3431 6.1563,-2.8438 3.3059,-1.5008 6.7735,-3.1156 7.7187,-3.5937 6.4076,-3.2409 12.0762,-8.3476 16.25,-14.625 5.9957,-9.0178 9.5,-21.2528 9.5,-33.1875 0,-8.8188 -1.6828,-16.3751 -5.4062,-24.375 -0.7058,-1.5164 -1.2049,-2.9544 -1.625,-4.5938 -0.5604,-2.1865 -0.6554,-2.4518 -1.2188,-2.9375 -0.099,-0.1249 -0.2298,-0.2194 -0.375,-0.3437 -0.014,-0.012 -0.018,-0.02 -0.031,-0.031 -0.1459,-0.1769 -0.1533,-0.2904 -0.031,-0.4375 0.1223,-0.1473 0.4806,-0.313 0.7813,-0.375 0.3006,-0.061 1.3513,-0.3726 2.3437,-0.6875 2.8209,-0.8949 6.1884,-1.828 11.5938,-3.25 6.6547,-1.7506 10.4219,-2.8432 13.9375,-4 5.0865,-1.674 10.9062,-4.1072 10.9062,-4.5625 0,-0.5945 -0.5644,-6.146 -0.875,-8.625 -1.4492,-11.5659 -4.5618,-23.8663 -8.9375,-35.375 -0.6935,-1.8241 -0.9109,-2.2811 -1.125,-2.25 0,0 -349.6963,-349.64455 -349.6876,-349.65629 -0.1177,-0.21673 -0.2004,-0.35489 -0.2813,-0.375 z"
       style="fill:#000000;fill-opacity:0.33333333;display:none" />
    <g
       id="g15"
       transform="matrix(6.1659046,0,0,6.1659046,-1043.4628,-109.1093)" />
    <g
       id="g17"
       transform="matrix(6.1659046,0,0,6.1659046,-1043.4628,-109.1093)" />
    <g
       id="g19"
       transform="matrix(6.1659046,0,0,6.1659046,-1043.4628,-109.1093)" />
    <g
       id="g21"
       transform="matrix(6.1659046,0,0,6.1659046,-1043.4628,-109.1093)" />
    <g
       id="g23"
       transform="matrix(6.1659046,0,0,6.1659046,-1043.4628,-109.1093)" />
    <g
       id="g25"
       transform="matrix(6.1659046,0,0,6.1659046,-1043.4628,-109.1093)" />
    <path
       style="fill:#000000;fill-opacity:0.31372549;display:none"
       d="m 141.15625,67.125 c -35.1687,0.65003 -77.113232,5.9486 -115.34375,37.59375 -1.640109,1.41214 -3.391016,3.00398 -4.96875,4.5 -0.298238,3.132 -0.4375,6.31857 -0.4375,9.53125 l 0,154.96875 97.96875,97.9591 c -27.666013,0.66617 -71.369294,-0.0296 -97.96875,21.25 l 0,1.125 c 1.09e-4,11.00641 1.787312,21.60348 5.09375,31.46875 l 399.59375,399.59375 c 13.68456,-14.583 31.96126,-21.52375 40.53125,-24.65625 26.91966,-9.01772 60.91472,-10.62367 69.1875,-10.75 l 101.75,102.28125 39.28125,0 c 4.04601,-9.4529 5.40625,-20.6207 5.40625,-33.0625 -0.003,-26.34683 -12.42384,-47.01937 -28.53125,-64.53125 L 571.6892,713.11915 c -0.0484,-0.70479 -0.0937,-1.41864 -0.0937,-2.15625 0,-14.8293 10.0635,-24.29535 18.78125,-33.03125 28.17021,-22.1741 54.40625,-45.7649 54.40625,-95.5625 0,-17.12167 -3.4943,-31.41487 -8.71875,-43.34375 l 134.125,134.28125 36.46875,0 0,-85.8125 85.34375,0 0,-35.71875 L 407.0625,67.125 l -36.46875,0 0,85.0625 -3.40625,0 -84.28125,-85.0625 z"
       transform="translate(0,540.36218)"
       id="path17467"
       inkscape:connector-curvature="0"
       sodipodi:nodetypes="cccscccscccccccccscscccccccccccc" />
    <path
       sodipodi:nodetypes="ccccccccccccccc"
       inkscape:connector-curvature="0"
       id="path8312"
       transform="translate(0,540.36218)"
       d="M 212.5625,111.90625 247.96875,173.5 195.21885,120.59375 91,301.125 l 52.125,90.28125 349.9995,350 c 3.14521,-7.89251 5.90753,-4.41097 6.46875,-2.15625 l 10.8439,10.84365 208.4375,0 52.125,-90.28125 -26.93715,-17.34335 26.9375,0 -104.21875,-180.5625 c 0,0 -350.00047,-349.99124 -350,-350.0003 z"
       style="fill:#000000;fill-opacity:0.31372549;fill-rule:evenodd;display:none" />
    <g
       style="fill:#000000;fill-opacity:0.15686275"
       id="g4683"
       transform="translate(532.45054,-293.76581)">
      <g
         style="fill:#000000;fill-opacity:0.15686275"
         id="g4685"
         transform="translate(-4.6151575,-4.565025)" />
    </g>
  </g>
  <g
     inkscape:groupmode="layer"
     id="layer2"
     inkscape:label="shadow"
     style="display:inline">
    <g
       id="g913"
       transform="matrix(0.02412595,0,0,-0.02774246,24.209762,355.75274)"
       style="fill:url(#linearGradient1015);fill-opacity:1;stroke:none">
      <path
         id="path827"
         d="m 7945,9129 c -93,-5 -303,-24 -466,-44 -276,-33 -316,-35 -591,-35 h -296 l -6,-32 c -3,-18 -23,-164 -46,-324 -38,-276 -47,-318 -169,-805 -72,-283 -149,-610 -172,-727 -40,-201 -41,-213 -25,-231 12,-13 16,-32 14,-57 -3,-33 -7,-39 -35,-46 -37,-10 -33,2 -73,-203 -33,-167 -177,-847 -186,-877 -9,-30 -23,-20 -29,20 -3,20 -10,44 -16,52 -30,47 -32,60 -17,77 14,16 17,104 23,698 5,474 3,713 -4,790 -10,94 -62,342 -78,368 -9,14 -83,-65 -109,-115 -14,-27 -31,-48 -40,-48 -15,0 -16,15 -9,134 6,117 5,137 -10,160 -19,29 -14,56 10,56 12,0 15,15 15,83 v 82 l -65,90 c -128,179 -314,366 -460,463 -38,25 -93,63 -120,83 -28,20 -65,40 -83,43 l -32,8 20,38 c 39,77 19,104 -82,115 -38,3 -72,13 -79,21 -14,17 -65,19 -75,3 -11,-18 -247,-1 -439,32 -252,43 -463,50 -1429,47 l -848,-3 -108,-309 c -69,-200 -113,-312 -124,-318 -10,-5 -19,-8 -21,-6 -2,2 30,147 70,323 41,175 72,321 70,323 -2,2 -33,1 -69,-3 l -66,-7 -15,-52 c -8,-28 -78,-280 -155,-561 -77,-280 -142,-514 -145,-520 -2,-5 -2,37 1,95 4,72 32,242 90,540 47,239 88,446 91,459 6,23 5,24 -53,16 -32,-4 -60,-8 -62,-10 -2,-2 -82,-745 -82,-766 0,-3 -11,-23 -25,-43 l -25,-37 4,-1032 c 4,-1075 6,-1134 25,-1180 6,-16 11,-83 11,-155 0,-123 -1,-127 -27,-154 l -26,-27 12,-308 c 6,-169 13,-372 16,-451 2,-79 9,-160 15,-180 5,-20 10,-93 10,-162 0,-70 4,-130 9,-135 10,-10 18,-166 24,-422 l 2,-123 h -37 -38 v -92 c 0,-84 2,-94 24,-117 14,-15 28,-43 31,-64 7,-35 5,-38 -23,-48 -26,-9 -31,-17 -37,-57 -6,-41 -12,-50 -48,-73 -23,-14 -51,-29 -61,-33 -18,-6 -17,-9 9,-36 21,-22 38,-30 62,-30 h 33 v -270 -269 l 91,-208 c 67,-155 99,-215 121,-234 18,-15 28,-31 24,-38 -4,-6 -2,-27 4,-47 12,-34 14,-36 49,-29 20,3 59,13 88,21 61,17 52,-3 109,252 20,86 47,195 61,242 26,84 116,260 134,260 14,0 11,-59 -6,-120 -42,-153 -77,-299 -105,-428 -16,-79 -32,-147 -35,-153 -8,-12 18,-12 30,0 6,5 34,19 63,30 l 52,21 68,-49 c 51,-37 79,-50 118,-56 l 51,-7 8,38 c 5,31 3,40 -13,53 -13,10 -24,37 -31,74 l -11,58 51,65 c 37,47 57,64 75,64 31,0 33,39 4,65 -22,20 -27,70 -7,79 10,5 10,7 0,12 -25,11 -14,57 22,90 25,22 35,40 35,61 0,22 14,42 58,86 l 59,58 18,-28 c 10,-15 36,-45 57,-65 21,-20 38,-43 38,-51 0,-8 11,-22 25,-31 17,-11 27,-29 31,-56 6,-33 9,-38 21,-29 20,17 44,-9 64,-69 9,-29 24,-51 37,-57 26,-12 32,-65 7,-65 -22,0 -18,-14 8,-25 18,-8 23,-19 25,-58 2,-33 -1,-47 -10,-47 -7,0 3,-13 22,-28 l 33,-28 -12,-50 c -7,-27 -21,-58 -31,-69 -10,-11 -20,-29 -22,-40 -2,-12 -13,-21 -25,-23 -27,-4 -73,-56 -73,-82 0,-10 7,-20 15,-24 8,-3 15,-1 15,4 0,6 21,10 46,10 61,0 74,-17 67,-90 -6,-60 -16,-78 -50,-91 -14,-5 -23,-17 -23,-29 0,-21 14,-27 25,-10 3,6 33,10 65,10 37,0 64,5 73,14 19,19 83,36 137,36 26,0 52,6 58,12 8,8 15,9 20,3 15,-22 54,-37 65,-26 14,14 167,15 167,1 0,-5 18,-10 40,-10 39,0 40,1 40,37 0,36 0,36 -20,18 -23,-21 -22,-21 -40,23 -10,25 -10,36 -1,45 14,14 15,64 0,69 -30,10 73,128 112,128 5,0 9,5 9,10 0,22 40,9 54,-17 8,-16 28,-41 45,-57 29,-28 43,-76 21,-76 -6,0 -10,-55 -10,-145 v -145 h 26 c 23,0 25,3 19,28 -9,41 17,62 45,37 18,-17 19,-20 5,-41 -8,-13 -15,-26 -15,-29 0,-8 75,-6 106,4 16,5 55,17 88,26 l 58,16 -6,35 c -6,27 -4,34 9,34 19,0 20,19 0,26 -12,5 -15,25 -15,89 0,46 -4,87 -10,90 -12,7 -2,62 16,92 11,18 11,23 0,32 -7,6 -16,34 -20,61 -4,27 -11,52 -16,55 -6,3 -10,39 -10,79 0,39 -5,77 -10,82 -6,6 -35,260 -65,565 -30,305 -57,576 -61,602 l -6,48 -43,-7 c -37,-5 -45,-3 -54,14 -7,13 -26,22 -57,27 -42,6 -49,4 -74,-20 l -29,-27 -136,7 -137,7 -19,47 c -10,25 -25,57 -33,71 -21,37 -21,37 -96,855 -58,629 -129,1295 -156,1467 -5,34 -8,37 -26,27 -11,-6 -26,-8 -35,-5 -12,5 -7,17 24,58 36,51 38,56 37,128 -1,51 -6,84 -17,101 -13,20 -15,50 -10,192 l 6,168 50,26 c 30,15 60,23 76,20 21,-3 370,-110 407,-124 7,-3 14,33 21,107 8,94 13,114 33,135 35,38 72,33 125,-16 52,-48 57,-75 20,-109 l -25,-24 30,-25 c 25,-22 31,-38 40,-96 6,-38 14,-73 18,-76 4,-3 86,-36 182,-73 189,-73 212,-84 235,-119 27,-42 34,-107 160,-1447 40,-421 48,-487 64,-505 52,-55 62,-159 20,-189 -17,-12 -18,-15 -4,-26 19,-15 22,-159 3,-178 -8,-8 -8,-15 1,-26 9,-11 7,-19 -13,-40 -13,-15 -27,-43 -30,-64 -4,-20 -9,-50 -13,-67 -5,-30 -5,-30 16,-11 11,11 21,25 21,31 0,7 9,24 20,38 11,14 20,36 20,50 0,36 21,50 48,31 32,-22 29,-69 -8,-111 -28,-31 -30,-40 -30,-107 0,-83 -5,-90 -69,-105 -23,-5 -50,-16 -60,-25 -22,-20 -54,-20 -96,0 -30,14 -36,14 -65,-1 -25,-13 -38,-14 -61,-6 l -29,10 v -74 c 0,-41 -5,-77 -10,-80 -6,-3 -10,-38 -10,-76 0,-57 5,-79 25,-112 22,-38 27,-74 55,-331 16,-159 33,-292 36,-295 3,-3 46,-5 95,-4 86,2 90,1 141,-33 29,-19 61,-37 70,-40 32,-10 70,-107 105,-269 l 9,-40 56,-3 c 55,-3 57,-4 83,-47 l 26,-45 h 92 c 56,0 123,8 172,19 44,11 83,17 88,14 4,-3 13,-17 19,-31 l 11,-27 9,40 c 9,37 18,170 36,534 4,81 11,146 17,148 30,9 35,-19 55,-307 11,-162 20,-298 20,-302 0,-5 19,-8 43,-8 55,0 67,-13 67,-71 0,-56 -23,-79 -77,-79 -48,0 -33,-25 38,-60 63,-32 119,-40 119,-16 0,8 -4,18 -10,21 -23,14 -8,53 38,98 l 48,47 h 72 72 v 35 c 0,29 5,37 26,46 32,11 64,3 64,-17 0,-8 10,-14 25,-14 33,0 315,127 337,151 18,21 86,26 119,9 16,-9 19,-7 19,9 0,11 7,27 16,36 22,22 36,7 49,-52 l 10,-46 130,-57 c 125,-55 134,-58 243,-65 94,-6 116,-5 130,8 9,8 45,18 80,22 57,6 62,5 62,-13 0,-17 6,-19 48,-14 71,6 77,-5 91,-179 6,-81 11,-172 11,-204 0,-35 4,-54 10,-50 6,3 10,22 10,42 0,45 26,100 57,120 32,21 26,44 -17,58 -33,11 -35,15 -38,58 -2,28 1,47 7,47 17,0 13,37 -4,44 -13,4 -15,36 -15,200 v 195 l -57,42 c -32,23 -73,53 -91,66 l -33,25 27,46 c 15,26 37,58 50,73 24,25 35,54 12,31 -7,-7 -25,-12 -41,-12 h -29 l 8,82 c 12,112 7,213 -21,473 -26,235 -36,275 -72,275 -29,0 -47,33 -33,59 5,11 69,295 140,633 127,597 132,614 167,667 20,29 54,67 76,84 l 38,32 -5,65 c -12,151 -23,229 -35,244 -17,21 7,66 60,108 23,18 60,49 83,69 75,66 98,74 156,61 28,-7 62,-12 74,-12 28,0 232,-205 241,-242 3,-13 1,-36 -5,-52 -9,-25 -7,-32 22,-65 17,-20 47,-42 67,-49 46,-16 58,-29 43,-44 -9,-9 -9,-15 2,-27 7,-9 18,-29 23,-46 9,-29 12,-30 72,-33 48,-2 68,1 82,14 17,15 23,15 89,-1 l 71,-17 29,27 c 26,25 30,26 57,13 15,-7 36,-28 45,-47 9,-18 26,-43 37,-55 11,-12 30,-44 42,-71 12,-28 36,-68 54,-90 18,-22 69,-121 115,-220 l 82,-180 -7,-180 c -3,-99 -13,-232 -21,-295 -9,-63 -12,-138 -9,-167 4,-31 0,-80 -8,-125 -8,-40 -18,-120 -22,-178 -3,-58 -15,-136 -26,-173 -20,-68 -21,-69 -73,-92 -44,-19 -56,-30 -69,-63 -9,-22 -21,-43 -27,-47 -6,-3 -8,-11 -5,-16 4,-5 10,-35 16,-68 5,-32 16,-72 24,-87 9,-18 15,-57 15,-106 v -77 l -41,-11 c -41,-11 -54,-8 -54,12 0,14 -32,34 -41,26 -3,-4 1,-17 10,-30 9,-12 16,-36 16,-53 0,-16 9,-59 20,-93 11,-35 20,-83 20,-106 0,-23 18,-132 40,-241 22,-109 40,-200 40,-202 0,-2 21,8 47,21 25,14 50,23 55,20 25,-16 -14,-104 -47,-104 -7,0 -23,-8 -35,-18 l -23,-18 37,-22 c 47,-28 47,-45 0,-40 l -37,4 7,-74 c 3,-41 6,-86 6,-99 v -25 l 36,21 c 37,22 69,27 78,12 3,-4 17,-6 31,-3 16,3 33,-2 45,-13 17,-15 32,-17 125,-10 58,4 105,10 105,14 0,73 24,329 32,338 8,10 7,18 -5,31 -14,15 -14,23 -1,72 8,30 14,64 14,77 0,28 14,37 30,18 7,-8 27,-15 45,-15 42,0 61,-21 45,-49 -6,-12 -15,-21 -20,-21 -6,0 -10,-4 -10,-10 0,-5 7,-10 15,-10 24,0 18,-20 -15,-48 -29,-25 -30,-30 -30,-108 0,-72 2,-82 20,-90 20,-9 20,-11 -15,-51 -31,-36 -35,-47 -35,-97 v -56 h 88 c 76,0 91,3 107,20 11,12 31,20 52,20 30,0 33,3 33,29 0,17 -4,33 -10,36 -5,3 -10,0 -10,-7 0,-9 -3,-9 -10,2 -18,28 -10,40 46,65 l 55,24 -2,84 c -2,46 1,88 5,95 4,6 -1,23 -9,36 -16,24 -16,27 12,68 l 29,43 69,3 c 43,2 76,9 85,17 14,13 19,13 36,0 27,-20 51,-18 64,5 16,31 37,24 100,-30 l 58,-50 6,47 c 3,27 10,102 16,168 6,66 15,160 22,208 14,111 4,138 -48,130 -27,-4 -35,-2 -40,13 -4,11 -23,34 -41,52 -27,27 -32,37 -22,48 6,8 15,14 20,14 16,0 51,-41 46,-54 -3,-7 3,-18 13,-24 17,-10 19,-6 26,56 5,57 11,71 35,92 28,25 29,28 40,180 9,137 31,286 44,298 2,3 11,0 19,-7 11,-9 13,-50 8,-230 l -5,-218 63,-6 c 112,-12 107,-15 115,51 5,47 -2,103 -39,295 -43,221 -51,246 -111,387 l -65,151 -50,367 c -95,682 -139,966 -200,1267 -33,165 -85,437 -115,605 -31,168 -78,418 -105,555 -27,138 -70,363 -95,500 -25,138 -71,375 -101,529 -54,272 -59,330 -21,272 9,-14 147,-398 306,-854 260,-744 576,-1619 629,-1743 12,-27 37,-60 60,-79 l 40,-32 7,-116 7,-117 134,-358 134,-357 v -669 -669 l 113,-7 c 81,-5 117,-12 130,-23 15,-14 38,-16 130,-13 108,3 113,2 135,-22 17,-18 23,-34 20,-58 l -3,-34 -201,-5 -201,-5 211,-362 c 116,-199 214,-365 218,-368 4,-4 10,6 14,21 4,16 73,169 154,339 152,319 173,375 147,375 -8,0 -17,-7 -21,-15 -3,-9 -19,-15 -41,-15 -35,0 -35,0 -35,45 0,45 0,45 34,45 25,0 39,7 53,26 l 19,26 93,-17 92,-17 -6,-42 c -4,-22 -18,-55 -31,-73 -21,-28 -28,-31 -49,-23 -31,12 -34,-5 -4,-21 17,-9 20,-17 14,-46 -3,-19 -87,-208 -186,-419 -135,-291 -178,-391 -173,-410 8,-33 38,-31 66,6 18,25 29,30 65,30 38,0 46,-4 61,-30 14,-25 23,-30 56,-30 37,0 38,1 23,18 -19,21 -23,82 -5,100 8,8 8,15 -1,26 -16,19 -5,38 57,99 46,45 52,48 73,37 20,-10 22,-10 12,1 -7,7 -13,36 -13,65 0,34 -5,56 -15,64 -12,10 -14,24 -9,59 3,25 10,50 15,55 5,6 9,37 9,70 1,53 6,71 44,140 l 44,79 10,-44 9,-44 8,50 c 12,75 30,105 64,105 16,0 35,7 42,17 18,21 16,90 -4,129 -19,37 -15,44 28,44 18,0 38,7 45,15 28,34 150,3 150,-38 0,-9 5,-26 12,-36 9,-15 9,-28 -1,-59 -8,-22 -12,-45 -9,-52 2,-7 37,-32 78,-55 68,-39 75,-46 72,-72 -3,-41 30,-89 67,-96 42,-9 40,-34 -3,-43 -19,-3 -42,-14 -51,-24 -15,-17 -14,-19 16,-43 28,-22 33,-32 37,-81 7,-89 19,-74 26,33 7,87 10,102 32,122 24,22 24,24 24,223 l 1,201 29,35 c 17,19 30,40 30,47 0,7 -14,28 -31,48 l -31,35 6,103 7,102 -56,-102 c -31,-57 -63,-103 -71,-103 -18,0 -18,44 0,73 8,12 37,85 64,162 l 50,140 7,430 7,430 78,200 c 71,182 80,200 106,208 16,6 35,14 42,20 19,15 14,71 -8,100 l -20,25 39,108 c 31,88 43,110 61,114 21,5 21,7 6,19 -9,7 -16,21 -16,30 0,28 152,475 168,493 11,13 12,21 4,31 -8,9 -6,32 8,86 15,59 26,80 54,106 20,18 36,39 36,48 0,8 10,36 21,63 18,39 19,51 9,67 -10,17 -7,31 16,90 17,42 36,72 47,76 15,6 60,123 196,507 296,835 586,1634 592,1634 4,0 10,-187 14,-415 l 7,-414 472,5 c 410,5 469,4 453,-9 -15,-12 59,-15 575,-22 664,-8 638,-5 614,-73 -22,-62 -740,-1670 -881,-1973 -74,-157 -137,-303 -141,-325 -3,-21 -24,-79 -44,-129 -21,-49 -41,-105 -45,-123 -5,-24 -35,-63 -105,-135 l -98,-102 -7,-85 c -4,-47 -11,-90 -16,-95 -4,-6 -13,-32 -19,-58 -6,-27 -107,-262 -225,-523 -187,-412 -215,-480 -215,-523 0,-28 22,-130 49,-233 90,-335 179,-642 200,-691 12,-27 21,-58 21,-68 0,-19 7,-20 181,-18 l 181,2 27,-34 c 16,-20 62,-127 111,-256 82,-218 83,-223 65,-243 -10,-11 -31,-20 -48,-20 -29,0 -29,-1 -23,-38 3,-20 6,-43 6,-49 0,-10 32,-13 124,-13 h 124 l 7,121 c 6,100 10,119 22,115 8,-3 18,-6 23,-6 5,0 11,-30 15,-67 8,-88 21,-119 61,-149 28,-22 41,-25 101,-22 l 68,3 1,30 c 1,49 3,54 24,65 30,16 54,-1 90,-65 20,-35 38,-55 50,-55 9,0 23,-7 30,-15 14,-17 46,-20 55,-5 3,5 32,10 63,11 83,1 157,13 156,24 -3,36 9,47 46,42 34,-4 42,-1 78,37 32,32 43,52 49,91 8,47 10,50 40,53 25,3 35,-3 52,-27 12,-16 18,-36 15,-45 -8,-20 50,-76 77,-76 20,0 20,15 -2,84 -5,15 -6,33 -2,40 4,6 60,70 125,143 l 118,131 v 54 c 0,50 -2,55 -22,54 -14,-1 -23,5 -23,14 0,8 10,16 23,18 20,3 22,9 22,67 0,36 -7,85 -16,111 -26,76 0,132 43,93 20,-19 31,-21 156,-18 149,4 152,2 86,-51 -27,-21 -37,-36 -31,-42 6,-6 17,-6 29,1 11,5 109,102 218,215 180,188 200,205 224,199 14,-3 118,-50 231,-103 l 205,-97 10,66 c 6,36 13,71 18,78 4,6 25,14 47,17 22,3 58,9 80,12 l 40,6 v 84 84 l -47,2 c -27,0 -55,0 -63,-1 -87,-15 -88,-14 -95,17 -5,23 -13,32 -35,37 -38,8 -47,2 -55,-36 l -7,-31 -862,7 c -473,4 -865,11 -870,15 -12,12 15,96 83,255 36,85 66,141 76,145 12,4 124,240 321,675 246,542 301,672 292,685 -7,8 -20,25 -31,36 -18,22 -18,22 17,49 30,23 39,25 51,15 11,-9 19,-10 26,-3 5,5 108,230 228,499 225,505 349,778 648,1429 97,209 186,405 200,435 22,50 26,53 38,37 11,-16 18,-8 63,80 28,54 96,201 152,328 l 102,229 -25,21 c -13,11 -41,33 -62,49 -22,17 -48,51 -63,85 -26,54 -27,63 -30,281 -4,260 0,280 53,280 19,0 35,4 35,8 0,4 -20,27 -44,51 l -44,43 -7,119 -7,119 h -68 -68 l -7,-75 c -4,-51 -11,-75 -20,-75 -18,0 -32,20 -39,60 -20,100 -26,104 -241,120 -77,6 -152,13 -166,16 -22,5 -27,2 -33,-20 l -6,-26 h -954 c -796,0 -958,-2 -981,-14 -15,-8 -22,-17 -16,-21 18,-10 13,-33 -10,-46 -17,-9 -25,-8 -37,5 -14,13 -14,21 -5,46 l 11,30 h -470 c -430,0 -470,-1 -464,-16 4,-9 1,-23 -5,-30 -14,-17 -71,-18 -88,-1 -9,9 -60,11 -199,10 -103,-1 -196,2 -207,7 -53,22 -275,30 -882,30 -602,0 -642,-1 -647,-17 -3,-10 -98,-364 -211,-788 -113,-423 -220,-819 -237,-880 -17,-60 -31,-137 -32,-171 -2,-45 -9,-72 -28,-106 -15,-24 -63,-165 -106,-312 -75,-253 -93,-299 -108,-283 -4,4 -137,464 -296,1024 l -289,1018 -44,45 c -24,25 -47,57 -50,73 -4,15 -11,30 -16,33 -5,3 -9,14 -9,24 0,10 -16,40 -36,66 -24,31 -50,86 -74,158 l -37,111 -449,3 c -329,2 -455,-1 -471,-9 -16,-9 -80,-10 -230,-6 -114,4 -433,11 -708,17 -395,9 -503,14 -514,25 -17,17 -7,33 33,51 28,12 19,13 -99,12 -71,0 -206,-5 -300,-9 z m -225,-129 c 0,-5 -4,-10 -9,-10 -6,0 -13,5 -16,10 -3,6 1,10 9,10 9,0 16,-4 16,-10 z m 6145,-61 c 10,-15 -1,-23 -20,-15 -9,3 -13,10 -10,16 8,13 22,13 30,-1 z M 8268,8834 c 24,-17 29,-39 10,-50 -13,-8 -61,43 -53,57 8,13 17,11 43,-7 z m 4173,-54 c 23,-13 24,-38 3,-69 -10,-14 -23,-21 -35,-18 -10,3 -20,0 -22,-6 -5,-17 -71,6 -75,26 -2,9 10,31 26,47 32,31 68,38 103,20 z m 1744,-161 c 21,-26 25,-40 23,-78 -2,-35 -7,-47 -21,-49 -41,-8 -73,62 -60,132 7,35 25,33 58,-5 z m -9101,-50 c 6,-5 5,-18 -2,-33 -8,-18 -16,-23 -32,-19 -27,7 -47,53 -28,64 14,9 47,2 62,-12 z m 7232,-174 c 10,-24 -23,-65 -51,-65 -33,0 -50,32 -27,52 33,29 70,35 78,13 z M 4900,7924 c 0,-9 -5,-14 -12,-12 -18,6 -21,28 -4,28 9,0 16,-7 16,-16 z m 12510,-529 c 10,-13 9,-15 -9,-15 -12,0 -21,6 -21,15 0,8 4,15 9,15 5,0 14,-7 21,-15 z M 6312,7088 c -6,-6 -16,-7 -23,-3 -9,6 -7,12 7,22 21,15 34,-1 16,-19 z m 10638,-38 c 0,-37 -38,-80 -51,-59 -23,37 -3,89 33,89 13,0 18,-8 18,-30 z M 2806,6425 c 9,-23 -4,-65 -20,-65 -8,0 -22,7 -31,17 -15,15 -15,17 -1,25 9,5 16,16 16,23 0,20 29,19 36,0 z m 13865,-295 c 27,-15 26,-66 -2,-81 -33,-17 -47,14 -33,69 7,25 8,26 35,12 z M 8334,5376 c 28,-60 18,-76 -45,-76 -63,0 -85,32 -54,77 13,19 31,27 71,32 7,0 19,-14 28,-33 z m 926,-386 c 0,-5 -2,-10 -4,-10 -3,0 -8,5 -11,10 -3,6 -1,10 4,10 6,0 11,-4 11,-10 z m 7110,-45 c 0,-8 -4,-15 -10,-15 -5,0 -7,7 -4,15 4,8 8,15 10,15 2,0 4,-7 4,-15 z m -5535,-376 c 10,-30 -16,-47 -44,-30 -10,7 -11,13 -2,30 15,27 38,27 46,0 z M 9098,4388 c 21,-21 14,-38 -15,-38 -42,0 -60,15 -44,34 16,19 42,21 59,4 z m -318,-38 c 0,-11 -7,-20 -15,-20 -15,0 -21,21 -8,33 12,13 23,7 23,-13 z m 260,-40 c 0,-4 -6,-13 -14,-19 -18,-15 -41,10 -25,26 12,12 39,7 39,-7 z m -6300,-10 c 0,-5 -2,-10 -4,-10 -3,0 -8,5 -11,10 -3,6 -1,10 4,10 6,0 11,-4 11,-10 z m 7925,-70 c 3,-5 1,-10 -4,-10 -6,0 -11,5 -11,10 0,6 2,10 4,10 3,0 8,-4 11,-10 z m -1385,-71 c 0,-6 -4,-7 -10,-4 -5,3 -10,11 -10,16 0,6 5,7 10,4 6,-3 10,-11 10,-16 z m -392,-156 c 6,-58 -64,-123 -82,-77 -4,9 0,27 9,40 8,13 15,32 15,42 0,25 10,33 35,30 14,-2 21,-12 23,-35 z m -6148,-13 c 0,-25 -30,-79 -50,-90 -21,-11 -75,-5 -85,10 -8,13 36,61 69,76 37,16 66,18 66,4 z m 6095,-131 c -8,-12 -35,-12 -35,0 0,11 22,20 33,14 4,-2 5,-9 2,-14 z m -57,-91 c 12,-12 17,-68 7,-68 -17,0 -75,30 -75,39 0,10 38,41 50,41 3,0 11,-5 18,-12 z m 722,-28 c 21,-21 28,-46 9,-34 -7,4 -9,0 -5,-14 8,-24 -9,-39 -18,-16 -3,8 -10,13 -15,10 -5,-3 -11,12 -13,34 -4,46 10,52 42,20 z M 3276,3616 c 25,-19 8,-50 -30,-54 -22,-3 -26,1 -26,20 0,22 16,48 30,48 3,0 15,-6 26,-14 z m 5607,3 c 57,-26 59,-92 5,-132 -23,-17 -33,-19 -55,-11 -16,5 -28,17 -28,27 0,10 -6,21 -12,25 -22,14 3,79 35,90 15,6 28,11 29,11 1,1 13,-4 26,-10 z M 1540,3135 c 0,-12 -20,-35 -31,-35 -13,0 -19,64 -7,72 13,8 38,-16 38,-37 z m 10350,-16 c 0,-11 -6,-19 -14,-19 -9,0 -12,-7 -9,-19 3,-11 -2,-21 -12,-25 -27,-10 -35,2 -24,37 6,17 12,37 14,44 6,18 45,3 45,-18 z m -10470,6 c 14,-16 10,-18 -14,-9 -9,3 -16,10 -16,15 0,14 16,11 30,-6 z m 7270,6 c 0,-6 -4,-13 -10,-16 -5,-3 -10,1 -10,9 0,9 5,16 10,16 6,0 10,-4 10,-9 z m -6910,-42 c 0,-4 -10,-13 -22,-20 -18,-10 -20,-9 -15,6 4,9 7,21 7,26 0,4 7,6 15,3 8,-4 15,-10 15,-15 z m 15552,-51 c -9,-9 -15,-9 -24,0 -9,9 -7,12 12,12 19,0 21,-3 12,-12 z m -5992,-28 c -8,-5 -24,-10 -35,-10 -18,0 -18,2 5,20 16,12 28,16 35,9 6,-6 5,-13 -5,-19 z m -108,-5 c 6,-14 17,-25 23,-25 24,0 36,-26 25,-54 -21,-56 -100,-14 -100,54 0,20 3,40 7,43 14,14 34,6 45,-18 z m 5598,-75 c 0,-13 -5,-17 -21,-13 -26,7 -37,32 -18,43 17,11 39,-6 39,-30 z M 1657,2904 c -9,-9 -28,6 -21,18 4,6 10,6 17,-1 6,-6 8,-13 4,-17 z m 7153,-35 c 0,-10 -4,-20 -9,-23 -10,-7 -33,42 -25,55 8,14 34,-10 34,-32 z m 2968,12 c 19,-12 -19,-57 -41,-48 -21,8 -21,21 -1,41 18,18 24,19 42,7 z m -3201,-40 c 15,-19 15,-22 4,-39 -13,-21 -54,-10 -68,18 -23,47 31,65 64,21 z m 7817,-183 c 31,-27 43,-76 24,-100 -15,-20 -86,-39 -74,-20 4,6 -7,21 -24,33 -24,18 -30,30 -30,59 0,20 3,40 7,43 15,15 73,6 97,-15 z m -7689,-59 c -14,-14 -22,-16 -36,-8 -16,8 -17,14 -8,30 5,11 20,24 32,28 18,7 23,5 25,-11 2,-11 -4,-28 -13,-39 z m 245,41 c 0,-5 -5,-10 -11,-10 -5,0 -7,5 -4,10 3,6 8,10 11,10 2,0 4,-4 4,-10 z M 1566,2444 c -7,-19 -21,-18 -41,3 -21,21 -14,82 12,101 16,12 19,8 26,-38 5,-28 6,-58 3,-66 z m 7078,74 c 9,-37 -7,-88 -32,-96 -18,-6 -45,65 -38,102 5,27 10,31 34,31 22,-1 29,-8 36,-37 z m 254,10 c 27,-27 -1,-118 -36,-118 -17,1 -72,43 -72,57 0,14 64,73 80,73 9,0 21,-5 28,-12 z m -5158,-28 c 0,-5 -4,-10 -10,-10 -5,0 -10,5 -10,10 0,6 5,10 10,10 6,0 10,-4 10,-10 z m 5750,-80 c -21,-14 -27,-12 -34,7 -9,23 16,36 34,17 13,-13 13,-16 0,-24 z m -270,16 c 0,-21 -21,-31 -31,-15 -14,22 -11,29 11,29 11,0 20,-6 20,-14 z m -626,-52 c 9,-3 16,-15 16,-25 0,-15 -7,-19 -35,-19 -19,0 -35,2 -35,4 0,2 -3,11 -6,19 -5,14 5,20 38,26 3,0 13,-2 22,-5 z m 7684,-18 c 6,-14 21,-26 34,-28 17,-2 26,-14 36,-42 7,-21 11,-41 8,-43 -2,-2 -22,5 -45,17 -27,13 -41,27 -41,40 0,11 -6,20 -14,20 -19,0 -29,30 -15,46 16,20 24,17 37,-10 z m -7458,-21 c 21,-25 4,-45 -38,-45 -50,0 -76,25 -41,38 13,5 31,12 39,15 23,9 27,8 40,-8 z m 400,-25 c 0,-11 -7,-20 -15,-20 -8,0 -19,-9 -25,-20 -21,-39 -67,-11 -56,34 12,47 96,52 96,6 z m 76,-20 c 7,-24 11,-46 9,-48 -2,-2 -17,-1 -34,3 -28,6 -31,10 -31,44 0,68 36,69 56,1 z m -7626,6 c 0,-39 -24,-67 -34,-40 -3,8 -6,29 -6,45 0,22 5,29 20,29 16,0 20,-7 20,-34 z m 7180,-71 c 11,-13 8,-15 -13,-15 -19,0 -25,4 -21,15 4,8 10,15 14,15 4,0 13,-7 20,-15 z m 370,-21 c 0,-8 -9,-14 -20,-14 -19,0 -28,28 -13,43 9,9 33,-12 33,-29 z m -371,-33 c 11,-7 11,-14 -3,-42 -13,-27 -14,-39 -5,-68 10,-30 9,-36 -7,-48 -37,-28 -114,7 -114,51 0,11 22,41 51,68 55,51 57,52 78,39 z m 369,-72 c 2,-11 -4,-16 -18,-15 -11,0 -20,4 -20,9 0,4 0,12 0,18 0,17 34,6 38,-12 z m -573,-90 c 4,-6 5,-12 2,-15 -7,-7 -37,7 -37,17 0,13 27,11 35,-2 z m 6675,-99 c 6,-12 8,-30 5,-40 -8,-25 -61,-27 -87,-3 -18,16 -18,17 4,40 27,28 64,30 78,3 z m -6250,-11 c 0,-5 -4,-9 -10,-9 -5,0 -10,7 -10,16 0,8 5,12 10,9 6,-3 10,-10 10,-16 z m 6750,-90 c 0,-20 -25,-20 -42,1 -15,18 -16,25 -6,37 11,13 15,12 30,-7 10,-12 18,-26 18,-31 z"
         inkscape:connector-curvature="0"
         style="fill:url(#linearGradient1267);fill-opacity:1" />
      <path
         id="path829"
         d="m 5310,8826 c 0,-10 9,-16 21,-16 24,0 21,23 -4,28 -10,2 -17,-3 -17,-12 z"
         inkscape:connector-curvature="0"
         style="fill:url(#linearGradient1269);fill-opacity:1" />
      <path
         id="path831"
         d="m 3180,6459 c -21,-40 -21,-41 -2,-72 15,-25 25,-32 47,-30 40,3 60,25 46,51 -6,11 -11,29 -11,40 0,20 -29,52 -48,52 -6,0 -21,-18 -32,-41 z"
         inkscape:connector-curvature="0"
         style="fill:url(#linearGradient1271);fill-opacity:1" />
      <path
         id="path833"
         d="m 3310,6181 c -5,-11 -10,-29 -10,-40 0,-23 34,-45 56,-37 28,11 10,96 -21,96 -8,0 -19,-9 -25,-19 z"
         inkscape:connector-curvature="0"
         style="fill:url(#linearGradient1273);fill-opacity:1" />
      <path
         id="path835"
         d="m 1187,6030 c -13,-39 -28,-165 -23,-195 7,-38 17,-48 39,-40 11,5 13,24 11,93 -3,93 -17,168 -27,142 z"
         inkscape:connector-curvature="0"
         style="fill:url(#linearGradient1275);fill-opacity:1" />
      <path
         id="path837"
         d="m 4032,4567 c -14,-17 3,-87 21,-87 21,0 37,22 37,50 0,43 -35,65 -58,37 z"
         inkscape:connector-curvature="0"
         style="fill:url(#linearGradient1277);fill-opacity:1" />
      <path
         id="path839"
         d="m 12395,3729 c -10,-15 1,-23 20,-15 9,3 13,10 10,16 -8,13 -22,13 -30,-1 z"
         inkscape:connector-curvature="0"
         style="fill:url(#linearGradient1279);fill-opacity:1" />
      <path
         id="path841"
         d="m 8430,3491 c 0,-49 14,-81 37,-81 11,0 14,6 9,23 -4,12 -9,34 -12,49 -4,15 -13,33 -20,39 -12,9 -14,4 -14,-30 z"
         inkscape:connector-curvature="0"
         style="fill:url(#linearGradient1281);fill-opacity:1" />
      <path
         id="path843"
         d="m 13872,2933 c -108,-245 -113,-259 -110,-316 3,-57 5,-61 33,-70 44,-14 75,-46 75,-78 0,-15 -4,-31 -10,-34 -5,-3 -10,-17 -10,-30 0,-21 5,-24 66,-30 59,-7 67,-5 88,14 22,20 28,21 67,11 38,-10 149,-6 149,6 0,2 -7,22 -16,44 -9,23 -13,51 -10,65 5,19 -24,120 -100,348 -58,177 -107,323 -108,324 -1,1 -52,-113 -114,-254 z"
         inkscape:connector-curvature="0"
         style="fill:url(#linearGradient1283);fill-opacity:1" />
      <path
         id="path845"
         d="m 7683,2966 c -13,-6 -23,-18 -23,-28 0,-9 -4,-20 -10,-23 -5,-3 -10,-14 -10,-24 0,-14 10,-20 45,-24 82,-9 82,-7 90,-268 4,-126 12,-232 17,-235 4,-3 13,8 19,25 12,33 27,39 47,19 14,-14 16,-67 3,-101 -6,-14 -15,-63 -21,-109 -6,-45 -17,-89 -23,-96 -15,-19 -19,-112 -5,-139 8,-16 8,-34 -1,-69 -7,-29 -8,-51 -3,-56 6,-6 69,-5 163,1 188,14 229,20 235,35 7,17 -24,87 -51,116 -14,15 -25,45 -30,74 -7,49 -72,244 -115,344 -22,50 -40,60 -40,22 0,-24 -40,-36 -69,-20 -31,16 -26,39 20,86 l 41,42 -54,163 -53,164 -60,10 c -59,10 -59,11 -72,54 -7,24 -14,45 -15,45 -2,1 -13,-3 -25,-8 z"
         inkscape:connector-curvature="0"
         style="fill:url(#linearGradient1285);fill-opacity:1" />
      <path
         id="path847"
         d="m 8275,2950 c 3,-5 8,-10 11,-10 2,0 4,5 4,10 0,6 -5,10 -11,10 -5,0 -7,-4 -4,-10 z"
         inkscape:connector-curvature="0"
         style="fill:url(#linearGradient1287);fill-opacity:1" />
      <path
         id="path849"
         d="m 17895,2950 c -8,-13 3,-50 15,-50 12,0 23,37 15,50 -3,5 -10,10 -15,10 -5,0 -12,-5 -15,-10 z"
         inkscape:connector-curvature="0"
         style="fill:url(#linearGradient1289);fill-opacity:1" />
      <path
         id="path851"
         d="m 2460,2916 c 0,-8 5,-18 10,-21 6,-3 10,1 10,9 0,8 -4,18 -10,21 -5,3 -10,-1 -10,-9 z"
         inkscape:connector-curvature="0"
         style="fill:url(#linearGradient1291);fill-opacity:1" />
      <path
         id="path853"
         d="m 10546,2615 6,-260 29,-30 c 36,-39 36,-64 0,-141 l -29,-61 19,-42 c 12,-27 28,-45 46,-52 15,-6 36,-17 45,-26 41,-37 208,57 223,125 3,17 15,32 30,38 24,9 23,9 -62,164 -142,258 -281,504 -298,525 -14,18 -15,-2 -9,-240 z"
         inkscape:connector-curvature="0"
         style="fill:url(#linearGradient1293);fill-opacity:1" />
      <path
         id="path855"
         d="m 10126,2789 c 9,-60 24,-73 24,-22 0,24 -6,46 -15,53 -14,12 -15,8 -9,-31 z"
         inkscape:connector-curvature="0"
         style="fill:url(#linearGradient1295);fill-opacity:1" />
      <path
         id="path857"
         d="m 16536,2496 c -3,-14 -3,-63 0,-110 6,-80 8,-85 26,-75 27,15 33,36 14,54 -21,21 -21,22 13,39 18,10 31,12 38,5 6,-6 17,-1 32,15 19,20 21,29 14,57 -9,33 -10,34 -70,37 -57,3 -61,2 -67,-22 z"
         inkscape:connector-curvature="0"
         style="fill:url(#linearGradient1297);fill-opacity:1" />
      <path
         id="path859"
         d="m 10087,2489 c 7,-7 15,-10 18,-7 3,3 -2,9 -12,12 -14,6 -15,5 -6,-5 z"
         inkscape:connector-curvature="0"
         style="fill:url(#linearGradient1299);fill-opacity:1" />
      <path
         id="path861"
         d="m 10127,2460 c -3,-13 0,-20 9,-20 8,0 14,9 14,20 0,11 -4,20 -9,20 -5,0 -11,-9 -14,-20 z"
         inkscape:connector-curvature="0"
         style="fill:url(#linearGradient1301);fill-opacity:1" />
      <path
         id="path863"
         d="m 1313,2438 c -20,-21 -22,-31 -16,-78 7,-63 17,-80 46,-80 16,0 18,3 9,12 -19,19 -14,49 8,55 27,7 26,50 -3,86 l -22,28 z"
         inkscape:connector-curvature="0"
         style="fill:url(#linearGradient1303);fill-opacity:1" />
      <path
         id="path865"
         d="m 14266,2411 c -15,-6 -16,-10 -7,-15 8,-5 20,-2 29,8 17,17 9,19 -22,7 z"
         inkscape:connector-curvature="0"
         style="fill:url(#linearGradient1305);fill-opacity:1" />
      <path
         id="path867"
         d="m 6180,2371 c -6,-12 -7,-21 -1,-21 10,0 24,30 17,37 -2,3 -9,-5 -16,-16 z"
         inkscape:connector-curvature="0"
         style="fill:url(#linearGradient1307);fill-opacity:1" />
      <path
         id="path869"
         d="m 4335,2370 c 3,-5 14,-10 23,-10 15,0 15,2 2,10 -20,13 -33,13 -25,0 z"
         inkscape:connector-curvature="0"
         style="fill:url(#linearGradient1309);fill-opacity:1" />
      <path
         id="path871"
         d="m 5905,2360 c -10,-11 -13,-20 -8,-20 13,0 38,29 31,35 -3,3 -13,-4 -23,-15 z"
         inkscape:connector-curvature="0"
         style="fill:url(#linearGradient1311);fill-opacity:1" />
      <path
         id="path873"
         d="m 6325,2339 c -12,-19 5,-23 22,-6 16,16 16,17 1,17 -9,0 -20,-5 -23,-11 z"
         inkscape:connector-curvature="0"
         style="fill:url(#linearGradient1313);fill-opacity:1" />
      <path
         id="path875"
         d="m 9725,2341 c -3,-5 -1,-12 5,-16 5,-3 10,1 10,9 0,18 -6,21 -15,7 z"
         inkscape:connector-curvature="0"
         style="fill:url(#linearGradient1315);fill-opacity:1" />
      <path
         id="path877"
         d="m 12281,2200 c 0,-80 -6,-174 -12,-209 -8,-53 -7,-67 5,-79 12,-13 15,-5 21,59 3,41 2,142 -3,224 l -9,150 z"
         inkscape:connector-curvature="0"
         style="fill:url(#linearGradient1317);fill-opacity:1" />
      <path
         id="path879"
         d="m 4140,2312 c 0,-22 72,-56 161,-77 33,-7 66,-19 74,-25 20,-17 101,7 125,38 38,47 20,82 -41,82 -35,0 -69,-20 -69,-41 0,-5 -22,-9 -48,-9 -26,0 -53,-5 -58,-10 -17,-17 -63,6 -74,35 -7,19 -17,25 -40,25 -22,0 -30,-5 -30,-18 z"
         inkscape:connector-curvature="0"
         style="fill:url(#linearGradient1319);fill-opacity:1" />
      <path
         id="path881"
         d="m 12072,2272 c -16,-35 -15,-77 3,-92 8,-7 15,-17 15,-23 0,-5 13,-38 29,-71 16,-34 35,-81 42,-104 10,-34 17,-42 36,-42 21,0 23,4 23,53 0,37 -3,48 -10,37 -14,-22 -44,0 -48,36 -3,22 -68,221 -76,231 -1,1 -7,-10 -14,-25 z"
         inkscape:connector-curvature="0"
         style="fill:url(#linearGradient1321);fill-opacity:1" />
      <path
         id="path883"
         d="m 4157,2153 c -4,-3 -7,-12 -7,-20 0,-20 28,-15 40,7 9,17 8,20 -8,20 -10,0 -22,-3 -25,-7 z"
         inkscape:connector-curvature="0"
         style="fill:url(#linearGradient1323);fill-opacity:1" />
      <path
         id="path885"
         d="m 5552,2107 c 3,-24 21,-27 26,-4 2,8 -4,17 -13,21 -13,4 -16,1 -13,-17 z"
         inkscape:connector-curvature="0"
         style="fill:url(#linearGradient1325);fill-opacity:1" />
      <path
         id="path887"
         d="m 7616,2069 c -11,-32 -11,-269 0,-269 6,0 26,3 44,6 l 32,7 -4,103 c -3,101 -4,104 -35,136 -24,24 -33,28 -37,17 z"
         inkscape:connector-curvature="0"
         style="fill:url(#linearGradient1327);fill-opacity:1" />
      <path
         id="path889"
         d="m 11650,2016 c 0,-8 -12,-29 -27,-47 l -28,-32 34,6 c 18,4 37,7 42,7 5,0 9,18 9,40 0,29 -4,40 -15,40 -8,0 -15,-6 -15,-14 z"
         inkscape:connector-curvature="0"
         style="fill:url(#linearGradient1329);fill-opacity:1" />
      <path
         id="path891"
         d="m 2360,1931 c 0,-5 -9,-13 -20,-16 -17,-5 -20,-15 -20,-72 0,-55 2,-64 16,-59 9,3 18,6 20,6 2,0 4,11 4,24 0,18 8,27 30,35 35,12 38,25 10,48 -11,10 -20,23 -20,30 0,7 -4,13 -10,13 -5,0 -10,-4 -10,-9 z"
         inkscape:connector-curvature="0"
         style="fill:url(#linearGradient1331);fill-opacity:1" />
      <path
         id="path893"
         d="m 2255,1875 c 0,-30 6,-60 13,-67 11,-11 12,-1 10,51 -4,80 -25,95 -23,16 z"
         inkscape:connector-curvature="0"
         style="fill:url(#linearGradient1333);fill-opacity:1" />
      <path
         id="path895"
         d="m 5540,1921 c 0,-5 -2,-15 -5,-23 -3,-7 1,-22 9,-33 14,-19 15,-17 16,23 0,23 -4,42 -10,42 -5,0 -10,-4 -10,-9 z"
         inkscape:connector-curvature="0"
         style="fill:url(#linearGradient1335);fill-opacity:1" />
      <path
         id="path897"
         d="m 7216,1914 c -3,-9 -6,-26 -6,-39 0,-13 -10,-31 -22,-40 -16,-12 -19,-19 -11,-22 8,-3 11,-14 7,-30 -6,-23 -5,-24 15,-14 17,9 21,21 21,59 0,26 7,56 15,66 8,11 15,23 15,28 0,15 -28,8 -34,-8 z"
         inkscape:connector-curvature="0"
         style="fill:url(#linearGradient1337);fill-opacity:1" />
      <path
         id="path899"
         d="m 11122,1888 c -16,-16 -16,-71 1,-65 6,2 12,20 12,40 0,21 0,37 0,37 -1,0 -6,-5 -13,-12 z"
         inkscape:connector-curvature="0"
         style="fill:url(#linearGradient1339);fill-opacity:1" />
      <path
         id="path901"
         d="m 10632,1842 c -20,-13 -27,-14 -44,-3 -17,11 -22,10 -29,-1 -12,-18 -11,-24 6,-38 18,-15 20,-41 4,-57 -8,-8 12,-13 70,-18 76,-7 81,-9 81,-30 0,-21 -5,-23 -80,-30 -75,-7 -80,-9 -80,-30 0,-21 5,-23 81,-30 75,-7 87,-5 153,21 86,34 81,31 68,47 -14,16 3,37 29,37 22,0 41,24 34,43 -4,8 -19,17 -34,20 -26,5 -144,-6 -194,-18 -17,-5 -26,-2 -30,9 -5,13 2,16 38,16 51,0 58,15 23,47 -32,29 -68,35 -96,15 z"
         inkscape:connector-curvature="0"
         style="fill:url(#linearGradient1341);fill-opacity:1" />
      <path
         id="path903"
         d="m 9960,1825 c -11,-13 -6,-15 33,-15 47,0 69,13 41,24 -27,11 -61,6 -74,-9 z"
         inkscape:connector-curvature="0"
         style="fill:url(#linearGradient1343);fill-opacity:1" />
      <path
         id="path905"
         d="m 5530,1760 c 0,-5 5,-10 11,-10 5,0 7,5 4,10 -3,6 -8,10 -11,10 -2,0 -4,-4 -4,-10 z"
         inkscape:connector-curvature="0"
         style="fill:url(#linearGradient1345);fill-opacity:1" />
      <path
         id="path907"
         d="m 11123,1640 c 4,-18 7,-39 7,-46 0,-15 45,-20 54,-6 2,4 -12,25 -31,46 l -36,39 z"
         inkscape:connector-curvature="0"
         style="fill:url(#linearGradient1347);fill-opacity:1" />
      <path
         id="path909"
         d="m 11015,1650 c -3,-5 3,-10 15,-10 12,0 18,5 15,10 -3,6 -10,10 -15,10 -5,0 -12,-4 -15,-10 z"
         inkscape:connector-curvature="0"
         style="fill:url(#linearGradient1349);fill-opacity:1" />
      <path
         id="path911"
         d="m 11252,1598 c 3,-7 15,-14 29,-16 23,-2 23,-2 5,13 -24,18 -39,20 -34,3 z"
         inkscape:connector-curvature="0"
         style="fill:url(#linearGradient1351);fill-opacity:1" />
    </g>
    <g
       aria-label="&gt;ctl"
       transform="matrix(3.267457,0,0,2.8016089,-582.14973,-602.63726)"
       style="font-style:normal;font-variant:normal;font-weight:bold;font-stretch:normal;font-size:40px;line-height:1.25;font-family:'JetBrains Mono';-inkscape-font-specification:'JetBrains Mono, Bold';font-variant-ligatures:normal;font-variant-caps:normal;font-variant-numeric:normal;font-feature-settings:normal;text-align:center;letter-spacing:0px;word-spacing:0px;writing-mode:lr-tb;text-anchor:middle;fill:#293b28;fill-opacity:0.8023483;stroke:none"
       id="flowRoot1025">
      <path
         d="m 211.79012,360.81032 v -4.64 l 11.6,-5.16 q 0.56,-0.24 1.08,-0.36 0.56,-0.16 1,-0.24 0.48,-0.04 0.96,-0.08 v -0.32 q -0.48,-0.04 -0.96,-0.16 -0.44,-0.08 -1,-0.2 -0.52,-0.16 -1.08,-0.4 l -11.6,-5.16 v -4.68 l 17.92,8.2 v 5 z"
         style="fill:#293b28;fill-opacity:0.8023483"
         id="path1033" />
      <path
         d="m 244.99006,363.69032 q -2.16,0 -3.92,-0.6 -1.76,-0.6 -3,-1.72 -1.24,-1.12 -1.92,-2.68 -0.68,-1.6 -0.68,-3.56 v -5.64 q 0,-1.96 0.68,-3.52 0.68,-1.6 1.92,-2.72 1.24,-1.12 3,-1.72 1.76,-0.64 3.92,-0.64 1.92,0 3.56,0.56 1.64,0.52 2.88,1.56 1.24,1 2.04,2.44 0.84,1.4 1.12,3.2 h -5 q -0.28,-1.52 -1.52,-2.44 -1.24,-0.96 -3.08,-0.96 -2.12,0 -3.32,1.12 -1.2,1.12 -1.2,3.12 v 5.64 q 0,1.96 1.16,3.08 1.2,1.12 3.36,1.12 1.8,0 3.04,-0.92 1.28,-0.96 1.56,-2.48 h 5 q -0.28,1.8 -1.12,3.24 -0.8,1.4 -2.08,2.44 -1.24,1 -2.88,1.56 -1.6,0.52 -3.52,0.52 z"
         style="fill:#293b28;fill-opacity:0.8023483"
         id="path1035" />
      <path
         d="m 258.55,341.29032 h 6.08 v -6.8 h 5 v 6.8 h 8.36 v 4.52 h -8.36 v 10.68 q 0,1.04 0.6,1.68 0.64,0.6 1.76,0.6 h 5.6 v 4.52 h -5.96 q -3.24,0 -5.12,-1.84 -1.88,-1.84 -1.88,-4.96 v -10.68 h -6.08 z"
         style="fill:#293b28;fill-opacity:0.8023483"
         id="path1037" />
      <path
         d="m 281.98994,338.85032 v -4.52 h 12 v 21.84 q 0,1.24 0.68,1.92 0.72,0.68 1.88,0.68 h 6.56 v 4.52 h -6.92 q -3.36,0 -5.28,-1.88 -1.92,-1.88 -1.92,-5.24 v -17.32 z"
         style="fill:#293b28;fill-opacity:0.8023483"
         id="path1039" />
    </g>
  </g>
  <g
     inkscape:groupmode="layer"
     id="layer5"
     inkscape:label="main"
     style="display:inline" />
</svg>
